M48
; DRILL file {KiCad 8.0.0} date 2024-04-21T04:34:17+0200
; FORMAT={-:-/ absolute / inch / decimal}
; #@! TF.CreationDate,2024-04-21T04:34:17+02:00
; #@! TF.GenerationSoftware,Kicad,Pcbnew,8.0.0
; #@! TF.FileFunction,Plated,1,2,PTH
FMAT,2
INCH
; #@! TA.AperFunction,Plated,PTH,ViaDrill
T1C0.0118
; #@! TA.AperFunction,Plated,PTH,ComponentDrill
T2C0.0295
; #@! TA.AperFunction,Plated,PTH,ComponentDrill
T3C0.0394
%
G90
G05
T1
X7.3537Y-2.4565
X7.381Y-2.113
X7.4718Y-2.3096
X7.5026Y-2.1559
X7.5436Y-2.4714
X7.607Y-2.0966
X7.8144Y-2.3033
T2
X7.9276Y-2.1642
X7.9276Y-2.2429
T3
X7.1083Y-1.8646
X7.1083Y-1.9646
X7.2083Y-1.8646
X7.2083Y-1.9646
X7.3083Y-1.8646
X7.3083Y-1.9646
X7.4083Y-1.8646
X7.4083Y-1.9646
X7.5083Y-1.8646
X7.5083Y-1.9646
X7.6083Y-1.8646
X7.6083Y-1.9646
X7.7083Y-1.8646
X7.7083Y-1.9646
X7.8083Y-1.8646
X7.8083Y-1.9646
M30
