%TF.GenerationSoftware,KiCad,Pcbnew,(7.0.0-0)*%
%TF.CreationDate,2024-03-24T23:26:04+02:00*%
%TF.ProjectId,MicroMouse Sensor ,4d696372-6f4d-46f7-9573-652053656e73,rev?*%
%TF.SameCoordinates,Original*%
%TF.FileFunction,Copper,L1,Top*%
%TF.FilePolarity,Positive*%
%FSLAX46Y46*%
G04 Gerber Fmt 4.6, Leading zero omitted, Abs format (unit mm)*
G04 Created by KiCad (PCBNEW (7.0.0-0)) date 2024-03-24 23:26:04*
%MOMM*%
%LPD*%
G01*
G04 APERTURE LIST*
G04 Aperture macros list*
%AMRoundRect*
0 Rectangle with rounded corners*
0 $1 Rounding radius*
0 $2 $3 $4 $5 $6 $7 $8 $9 X,Y pos of 4 corners*
0 Add a 4 corners polygon primitive as box body*
4,1,4,$2,$3,$4,$5,$6,$7,$8,$9,$2,$3,0*
0 Add four circle primitives for the rounded corners*
1,1,$1+$1,$2,$3*
1,1,$1+$1,$4,$5*
1,1,$1+$1,$6,$7*
1,1,$1+$1,$8,$9*
0 Add four rect primitives between the rounded corners*
20,1,$1+$1,$2,$3,$4,$5,0*
20,1,$1+$1,$4,$5,$6,$7,0*
20,1,$1+$1,$6,$7,$8,$9,0*
20,1,$1+$1,$8,$9,$2,$3,0*%
%AMFreePoly0*
4,1,6,1.000000,0.000000,0.500000,-0.750000,-0.500000,-0.750000,-0.500000,0.750000,0.500000,0.750000,1.000000,0.000000,1.000000,0.000000,$1*%
%AMFreePoly1*
4,1,6,0.500000,-0.750000,-0.650000,-0.750000,-0.150000,0.000000,-0.650000,0.750000,0.500000,0.750000,0.500000,-0.750000,0.500000,-0.750000,$1*%
G04 Aperture macros list end*
%TA.AperFunction,ComponentPad*%
%ADD10C,1.250000*%
%TD*%
%TA.AperFunction,ComponentPad*%
%ADD11R,1.250000X1.250000*%
%TD*%
%TA.AperFunction,SMDPad,CuDef*%
%ADD12RoundRect,0.100000X0.100000X-0.130000X0.100000X0.130000X-0.100000X0.130000X-0.100000X-0.130000X0*%
%TD*%
%TA.AperFunction,ComponentPad*%
%ADD13R,1.000000X1.000000*%
%TD*%
%TA.AperFunction,SMDPad,CuDef*%
%ADD14RoundRect,0.100000X0.130000X0.100000X-0.130000X0.100000X-0.130000X-0.100000X0.130000X-0.100000X0*%
%TD*%
%TA.AperFunction,SMDPad,CuDef*%
%ADD15FreePoly0,180.000000*%
%TD*%
%TA.AperFunction,SMDPad,CuDef*%
%ADD16FreePoly1,180.000000*%
%TD*%
%TA.AperFunction,SMDPad,CuDef*%
%ADD17RoundRect,0.150000X0.587500X0.150000X-0.587500X0.150000X-0.587500X-0.150000X0.587500X-0.150000X0*%
%TD*%
%TA.AperFunction,SMDPad,CuDef*%
%ADD18FreePoly0,270.000000*%
%TD*%
%TA.AperFunction,SMDPad,CuDef*%
%ADD19FreePoly1,270.000000*%
%TD*%
%TA.AperFunction,SMDPad,CuDef*%
%ADD20RoundRect,0.150000X0.825000X0.150000X-0.825000X0.150000X-0.825000X-0.150000X0.825000X-0.150000X0*%
%TD*%
%TA.AperFunction,ComponentPad*%
%ADD21R,1.800000X1.800000*%
%TD*%
%TA.AperFunction,ComponentPad*%
%ADD22C,1.800000*%
%TD*%
%TA.AperFunction,SMDPad,CuDef*%
%ADD23RoundRect,0.150000X-0.587500X-0.150000X0.587500X-0.150000X0.587500X0.150000X-0.587500X0.150000X0*%
%TD*%
%TA.AperFunction,SMDPad,CuDef*%
%ADD24RoundRect,0.100000X-0.100000X0.130000X-0.100000X-0.130000X0.100000X-0.130000X0.100000X0.130000X0*%
%TD*%
%TA.AperFunction,SMDPad,CuDef*%
%ADD25FreePoly0,90.000000*%
%TD*%
%TA.AperFunction,SMDPad,CuDef*%
%ADD26FreePoly1,90.000000*%
%TD*%
%TA.AperFunction,SMDPad,CuDef*%
%ADD27RoundRect,0.150000X-0.825000X-0.150000X0.825000X-0.150000X0.825000X0.150000X-0.825000X0.150000X0*%
%TD*%
%TA.AperFunction,SMDPad,CuDef*%
%ADD28RoundRect,0.100000X-0.130000X-0.100000X0.130000X-0.100000X0.130000X0.100000X-0.130000X0.100000X0*%
%TD*%
%TA.AperFunction,ComponentPad*%
%ADD29R,1.700000X1.700000*%
%TD*%
%TA.AperFunction,ComponentPad*%
%ADD30O,1.700000X1.700000*%
%TD*%
%TA.AperFunction,ViaPad*%
%ADD31C,0.800000*%
%TD*%
%TA.AperFunction,Conductor*%
%ADD32C,0.250000*%
%TD*%
%TA.AperFunction,Conductor*%
%ADD33C,0.150000*%
%TD*%
G04 APERTURE END LIST*
D10*
%TO.P,D6_Right1,A*%
%TO.N,Net-(Q5-C)*%
X247650000Y-97068000D03*
D11*
%TO.P,D6_Right1,C*%
%TO.N,Right Sense*%
X247649999Y-99567999D03*
%TD*%
%TO.P,D6_Front1,C*%
%TO.N,Front Sense*%
X224314171Y-91896999D03*
D10*
%TO.P,D6_Front1,A*%
%TO.N,Net-(Q4-C)*%
X221814172Y-91897000D03*
%TD*%
D11*
%TO.P,D6_Left1,C*%
%TO.N,Left Sense*%
X204615671Y-91166999D03*
D10*
%TO.P,D6_Left1,A*%
%TO.N,Net-(Q6-C)*%
X204615672Y-93667000D03*
%TD*%
D12*
%TO.P,R9,1*%
%TO.N,PE15*%
X240175672Y-114144000D03*
%TO.P,R9,2*%
%TO.N,Net-(Q5-B)*%
X240175672Y-113504000D03*
%TD*%
D13*
%TO.P,TP6,1,1*%
%TO.N,Net-(Q6-C)*%
X209695671Y-90872999D03*
%TD*%
D14*
%TO.P,R3,1*%
%TO.N,+3V3*%
X236848672Y-96461000D03*
%TO.P,R3,2*%
%TO.N,Net-(D1_Front1-A)*%
X236208672Y-96461000D03*
%TD*%
D15*
%TO.P,JP6,1,A*%
%TO.N,Left Sense*%
X211399672Y-102811000D03*
D16*
%TO.P,JP6,2,B*%
%TO.N,Net-(JP6-B)*%
X209949672Y-102811000D03*
%TD*%
D17*
%TO.P,Q6,1,B*%
%TO.N,Net-(Q6-B)*%
X214267672Y-93027000D03*
%TO.P,Q6,2,E*%
%TO.N,GND*%
X214267672Y-91127000D03*
%TO.P,Q6,3,C*%
%TO.N,Net-(Q6-C)*%
X212392672Y-92077000D03*
%TD*%
D18*
%TO.P,JP18LO1,1,A*%
%TO.N,Net-(J1-Pin_11)*%
X226205672Y-105605000D03*
D19*
%TO.P,JP18LO1,2,B*%
%TO.N,Left Out*%
X226205672Y-107055000D03*
%TD*%
D20*
%TO.P,U3,1,VOS*%
%TO.N,unconnected-(U3-VOS-Pad1)*%
X227124836Y-116830500D03*
%TO.P,U3,2,-*%
%TO.N,Left Out*%
X227124836Y-115560500D03*
%TO.P,U3,3,+*%
%TO.N,Net-(JP6-B)*%
X227124836Y-114290500D03*
%TO.P,U3,4,V-*%
%TO.N,GND*%
X227124836Y-113020500D03*
%TO.P,U3,5,NC*%
%TO.N,unconnected-(U3-NC-Pad5)*%
X222174836Y-113020500D03*
%TO.P,U3,6*%
%TO.N,Left Out*%
X222174836Y-114290500D03*
%TO.P,U3,7,V+*%
%TO.N,+3V3*%
X222174836Y-115560500D03*
%TO.P,U3,8,VOS*%
%TO.N,unconnected-(U3-VOS-Pad8)*%
X222174836Y-116830500D03*
%TD*%
D21*
%TO.P,D3_Left1,1,K*%
%TO.N,Net-(D3_Left1-K)*%
X209218671Y-96734999D03*
D22*
%TO.P,D3_Left1,2,A*%
%TO.N,Net-(D3_Left1-A)*%
X209218672Y-99275000D03*
%TD*%
D14*
%TO.P,R5,1*%
%TO.N,PE15*%
X218651672Y-115765000D03*
%TO.P,R5,2*%
%TO.N,Net-(Q3-B)*%
X218011672Y-115765000D03*
%TD*%
D18*
%TO.P,JP17FO1,1,A*%
%TO.N,Front Out*%
X211981672Y-109960000D03*
D19*
%TO.P,JP17FO1,2,B*%
%TO.N,Net-(J1-Pin_5)*%
X211981672Y-111410000D03*
%TD*%
D17*
%TO.P,Q2,3,C*%
%TO.N,Net-(D1_Front1-K)*%
X236619672Y-92905000D03*
%TO.P,Q2,2,E*%
%TO.N,GND*%
X238494672Y-91955000D03*
%TO.P,Q2,1,B*%
%TO.N,Net-(Q2-B)*%
X238494672Y-93855000D03*
%TD*%
D13*
%TO.P,TP4,1,1*%
%TO.N,Net-(Q4-C)*%
X222903671Y-99254999D03*
%TD*%
D15*
%TO.P,JP11,1,A*%
%TO.N,Left Sense*%
X213468672Y-106113000D03*
D16*
%TO.P,JP11,2,B*%
%TO.N,Net-(JP11-B)*%
X212018672Y-106113000D03*
%TD*%
D23*
%TO.P,Q5,3,C*%
%TO.N,Net-(Q5-C)*%
X245860672Y-114777459D03*
%TO.P,Q5,2,E*%
%TO.N,GND*%
X243985672Y-115727459D03*
%TO.P,Q5,1,B*%
%TO.N,Net-(Q5-B)*%
X243985672Y-113827459D03*
%TD*%
D20*
%TO.P,U1,1,VOS*%
%TO.N,unconnected-(U1-VOS-Pad1)*%
X219601672Y-112463000D03*
%TO.P,U1,2,-*%
%TO.N,Front Out*%
X219601672Y-111193000D03*
%TO.P,U1,3,+*%
%TO.N,Net-(JP16-B)*%
X219601672Y-109923000D03*
%TO.P,U1,4,V-*%
%TO.N,GND*%
X219601672Y-108653000D03*
%TO.P,U1,5,NC*%
%TO.N,unconnected-(U1-NC-Pad5)*%
X214651672Y-108653000D03*
%TO.P,U1,6*%
%TO.N,Front Out*%
X214651672Y-109923000D03*
%TO.P,U1,7,V+*%
%TO.N,+3V3*%
X214651672Y-111193000D03*
%TO.P,U1,8,VOS*%
%TO.N,unconnected-(U1-VOS-Pad8)*%
X214651672Y-112463000D03*
%TD*%
D15*
%TO.P,JP3,1,A*%
%TO.N,Right Sense*%
X249573672Y-110939000D03*
D16*
%TO.P,JP3,2,B*%
%TO.N,Net-(JP3-B)*%
X248123672Y-110939000D03*
%TD*%
D13*
%TO.P,TP2,1,1*%
%TO.N,Net-(D3_Left1-K)*%
X204215999Y-119633999D03*
%TD*%
D18*
%TO.P,JP16RO1,1,A*%
%TO.N,Net-(J1-Pin_7)*%
X226459672Y-109415000D03*
D19*
%TO.P,JP16RO1,2,B*%
%TO.N,Right Out*%
X226459672Y-110865000D03*
%TD*%
D14*
%TO.P,R6,1*%
%TO.N,+3V3*%
X209827672Y-93413000D03*
%TO.P,R6,2*%
%TO.N,Net-(D3_Left1-A)*%
X209187672Y-93413000D03*
%TD*%
D13*
%TO.P,TP3,1,1*%
%TO.N,Net-(D1_Front1-K)*%
X234841671Y-99000999D03*
%TD*%
D14*
%TO.P,R2,1*%
%TO.N,PE15*%
X238209672Y-100271000D03*
%TO.P,R2,2*%
%TO.N,Net-(Q1-B)*%
X237569672Y-100271000D03*
%TD*%
D17*
%TO.P,Q3,3,C*%
%TO.N,Net-(D3_Left1-K)*%
X212743672Y-115257000D03*
%TO.P,Q3,2,E*%
%TO.N,GND*%
X214618672Y-114307000D03*
%TO.P,Q3,1,B*%
%TO.N,Net-(Q3-B)*%
X214618672Y-116207000D03*
%TD*%
D21*
%TO.P,D1_Front1,1,K*%
%TO.N,Net-(D1_Front1-K)*%
X230015671Y-96968999D03*
D22*
%TO.P,D1_Front1,2,A*%
%TO.N,Net-(D1_Front1-A)*%
X227475672Y-96969000D03*
%TD*%
D18*
%TO.P,JP15,1,A*%
%TO.N,Front Sense*%
X214521672Y-98313000D03*
D19*
%TO.P,JP15,2,B*%
%TO.N,Net-(JP15-B)*%
X214521672Y-99763000D03*
%TD*%
D14*
%TO.P,R1,2*%
%TO.N,Net-(Q2-B)*%
X240937672Y-96715000D03*
%TO.P,R1,1*%
%TO.N,PE15*%
X241577672Y-96715000D03*
%TD*%
D24*
%TO.P,R10,2*%
%TO.N,Net-(JP9-B)*%
X246525672Y-103959000D03*
%TO.P,R10,1*%
%TO.N,+3V3*%
X246525672Y-103319000D03*
%TD*%
D23*
%TO.P,Q1,1,B*%
%TO.N,Net-(Q1-B)*%
X241953672Y-103959000D03*
%TO.P,Q1,2,E*%
%TO.N,GND*%
X241953672Y-105859000D03*
%TO.P,Q1,3,C*%
%TO.N,Net-(D2_Right1-K)*%
X243828672Y-104909000D03*
%TD*%
D14*
%TO.P,R11,1*%
%TO.N,PE15*%
X219068672Y-107383000D03*
%TO.P,R11,2*%
%TO.N,Net-(Q6-B)*%
X218428672Y-107383000D03*
%TD*%
D21*
%TO.P,D2_Right1,1,K*%
%TO.N,Net-(D2_Right1-K)*%
X243446671Y-93646999D03*
D22*
%TO.P,D2_Right1,2,A*%
%TO.N,Net-(D2_Right1-A)*%
X243446672Y-91107000D03*
%TD*%
D12*
%TO.P,R4,1*%
%TO.N,+3V3*%
X233363672Y-93479000D03*
%TO.P,R4,2*%
%TO.N,Net-(D2_Right1-A)*%
X233363672Y-92839000D03*
%TD*%
D14*
%TO.P,R7,2*%
%TO.N,Net-(Q4-B)*%
X220739672Y-107383000D03*
%TO.P,R7,1*%
%TO.N,PE15*%
X221379672Y-107383000D03*
%TD*%
D18*
%TO.P,JP16,1,A*%
%TO.N,Front Sense*%
X231539672Y-101578000D03*
D19*
%TO.P,JP16,2,B*%
%TO.N,Net-(JP16-B)*%
X231539672Y-103028000D03*
%TD*%
D25*
%TO.P,JP9,1,A*%
%TO.N,Right Sense*%
X249065672Y-107129000D03*
D26*
%TO.P,JP9,2,B*%
%TO.N,Net-(JP9-B)*%
X249065672Y-105679000D03*
%TD*%
D27*
%TO.P,U2,1,VOS*%
%TO.N,unconnected-(U2-VOS-Pad1)*%
X233890672Y-107764000D03*
%TO.P,U2,2,-*%
%TO.N,Right Out*%
X233890672Y-109034000D03*
%TO.P,U2,3,+*%
%TO.N,Net-(JP3-B)*%
X233890672Y-110304000D03*
%TO.P,U2,4,V-*%
%TO.N,GND*%
X233890672Y-111574000D03*
%TO.P,U2,5,NC*%
%TO.N,unconnected-(U2-NC-Pad5)*%
X238840672Y-111574000D03*
%TO.P,U2,6*%
%TO.N,Right Out*%
X238840672Y-110304000D03*
%TO.P,U2,7,V+*%
%TO.N,+3V3*%
X238840672Y-109034000D03*
%TO.P,U2,8,VOS*%
%TO.N,unconnected-(U2-VOS-Pad8)*%
X238840672Y-107764000D03*
%TD*%
D13*
%TO.P,TP5,1,1*%
%TO.N,Net-(Q5-C)*%
X246271671Y-107128999D03*
%TD*%
D28*
%TO.P,R8,1*%
%TO.N,+3V3*%
X216142672Y-94429000D03*
%TO.P,R8,2*%
%TO.N,Net-(JP15-B)*%
X216782672Y-94429000D03*
%TD*%
D13*
%TO.P,TP1,1,1*%
%TO.N,Net-(D2_Right1-K)*%
X241699671Y-99254999D03*
%TD*%
D28*
%TO.P,R12,1*%
%TO.N,+3V3*%
X213947672Y-103573000D03*
%TO.P,R12,2*%
%TO.N,Net-(JP11-B)*%
X214587672Y-103573000D03*
%TD*%
D23*
%TO.P,Q4,1,B*%
%TO.N,Net-(Q4-B)*%
X225189672Y-99001000D03*
%TO.P,Q4,2,E*%
%TO.N,GND*%
X225189672Y-100901000D03*
%TO.P,Q4,3,C*%
%TO.N,Net-(Q4-C)*%
X227064672Y-99951000D03*
%TD*%
D29*
%TO.P,J1,1,Pin_1*%
%TO.N,/RESV3*%
X240537999Y-122681999D03*
D30*
%TO.P,J1,2,Pin_2*%
%TO.N,+3V3*%
X240537999Y-120141999D03*
%TO.P,J1,3,Pin_3*%
%TO.N,GND*%
X237997999Y-122681999D03*
%TO.P,J1,4,Pin_4*%
%TO.N,/+BATT1*%
X237997999Y-120141999D03*
%TO.P,J1,5,Pin_5*%
%TO.N,Net-(J1-Pin_5)*%
X235457999Y-122681999D03*
%TO.P,J1,6,Pin_6*%
%TO.N,/RESV2*%
X235457999Y-120141999D03*
%TO.P,J1,7,Pin_7*%
%TO.N,Net-(J1-Pin_7)*%
X232917999Y-122681999D03*
%TO.P,J1,8,Pin_8*%
%TO.N,PE15*%
X232917999Y-120141999D03*
%TO.P,J1,9,Pin_9*%
%TO.N,GND*%
X230377999Y-122681999D03*
%TO.P,J1,10,Pin_10*%
%TO.N,/PE14*%
X230377999Y-120141999D03*
%TO.P,J1,11,Pin_11*%
%TO.N,Net-(J1-Pin_11)*%
X227837999Y-122681999D03*
%TO.P,J1,12,Pin_12*%
%TO.N,/PE13*%
X227837999Y-120141999D03*
%TO.P,J1,13,Pin_13*%
%TO.N,/PA6*%
X225297999Y-122681999D03*
%TO.P,J1,14,Pin_14*%
%TO.N,/PE12*%
X225297999Y-120141999D03*
%TO.P,J1,15,Pin_15*%
%TO.N,GND*%
X222757999Y-122681999D03*
%TO.P,J1,16,Pin_16*%
%TO.N,/PE11*%
X222757999Y-120141999D03*
%TO.P,J1,17,Pin_17*%
%TO.N,/PA7*%
X220217999Y-122681999D03*
%TO.P,J1,18,Pin_18*%
%TO.N,/PE10*%
X220217999Y-120141999D03*
%TO.P,J1,19,Pin_19*%
%TO.N,/PC4*%
X217677999Y-122681999D03*
%TO.P,J1,20,Pin_20*%
%TO.N,/PE9*%
X217677999Y-120141999D03*
%TO.P,J1,21,Pin_21*%
%TO.N,GND*%
X215137999Y-122681999D03*
%TO.P,J1,22,Pin_22*%
%TO.N,/PE8*%
X215137999Y-120141999D03*
%TO.P,J1,23,Pin_23*%
%TO.N,/PC5*%
X212597999Y-122681999D03*
%TO.P,J1,24,Pin_24*%
%TO.N,/RESV1*%
X212597999Y-120141999D03*
%TO.P,J1,25,Pin_25*%
%TO.N,/AB0*%
X210057999Y-122681999D03*
%TO.P,J1,26,Pin_26*%
%TO.N,/+BATT*%
X210057999Y-120141999D03*
%TO.P,J1,27,Pin_27*%
%TO.N,GND*%
X207517999Y-122681999D03*
%TO.P,J1,28,Pin_28*%
%TO.N,+3V3*%
X207517999Y-120141999D03*
%TD*%
D31*
%TO.N,Net-(Q5-C)*%
X246634000Y-105156000D03*
%TO.N,Right Sense*%
X248412000Y-109220000D03*
%TO.N,GND*%
X240030000Y-105918000D03*
X235204000Y-114046000D03*
%TO.N,+3V3*%
X246380000Y-101600000D03*
%TO.N,PE15*%
X216408000Y-117094000D03*
X219456000Y-103378000D03*
%TO.N,Net-(J1-Pin_7)*%
X224028000Y-110490000D03*
X241046000Y-112776000D03*
%TO.N,+3V3*%
X212777515Y-112850495D03*
%TO.N,Net-(J1-Pin_5)*%
X230632000Y-117602000D03*
%TO.N,GND*%
X229253672Y-100525000D03*
X233825672Y-94937000D03*
%TO.N,+3V3*%
X232809672Y-91635000D03*
X215537672Y-95445000D03*
%TO.N,PE15*%
X224427672Y-103065000D03*
%TO.N,Front Out*%
X212743672Y-108145000D03*
X221887672Y-111193000D03*
%TO.N,Left Out*%
X229761672Y-115511000D03*
X231539672Y-109923000D03*
%TO.N,Net-(Q6-B)*%
X215791672Y-92143000D03*
X218839672Y-95953000D03*
%TO.N,Net-(JP6-B)*%
X229253672Y-113733000D03*
X216045672Y-101541000D03*
%TO.N,PE15*%
X237889672Y-99255000D03*
X239667672Y-98493000D03*
%TO.N,Net-(D1_Front1-K)*%
X238397672Y-95953000D03*
%TO.N,Net-(D1_Front1-A)*%
X232047672Y-94937000D03*
%TD*%
D32*
%TO.N,Net-(JP9-B)*%
X249065672Y-105679000D02*
X248245672Y-105679000D01*
X248245672Y-105679000D02*
X246525672Y-103959000D01*
%TO.N,Net-(JP3-B)*%
X233890672Y-110304000D02*
X233584631Y-110304000D01*
X233584631Y-110304000D02*
X232640672Y-109360041D01*
X250589672Y-98068500D02*
X250589672Y-111561910D01*
X250589672Y-111561910D02*
X249942582Y-112209000D01*
X232640672Y-109360041D02*
X232640672Y-108707959D01*
X232640672Y-108707959D02*
X232889631Y-108459000D01*
X232889631Y-108459000D02*
X244941672Y-108459000D01*
X244941672Y-108459000D02*
X245496672Y-107904000D01*
X245496672Y-107904000D02*
X245496672Y-97589500D01*
X245496672Y-97589500D02*
X247436172Y-95650000D01*
X247436172Y-95650000D02*
X248171172Y-95650000D01*
X248171172Y-95650000D02*
X250589672Y-98068500D01*
X249942582Y-112209000D02*
X249204764Y-112209000D01*
X249204764Y-112209000D02*
X248123672Y-111127908D01*
X248123672Y-111127908D02*
X248123672Y-110939000D01*
%TO.N,+3V3*%
X245096672Y-97423814D02*
X245096672Y-96533328D01*
X245096672Y-96533328D02*
X246380000Y-95250000D01*
X246380000Y-95250000D02*
X248336857Y-95250000D01*
X248336857Y-95250000D02*
X250989672Y-97902815D01*
X250989672Y-97902815D02*
X250989672Y-111727596D01*
X250989672Y-111727596D02*
X247364809Y-115352459D01*
X247364809Y-115352459D02*
X245097131Y-115352459D01*
X245097131Y-115352459D02*
X244848172Y-115103500D01*
X244848172Y-115103500D02*
X243123172Y-115103500D01*
X243123172Y-115103500D02*
X242207672Y-116019000D01*
%TO.N,Net-(Q5-C)*%
X246634000Y-105156000D02*
X246271672Y-105518328D01*
X246271672Y-105518328D02*
X246271672Y-107129000D01*
%TO.N,Right Sense*%
X248412000Y-109220000D02*
X248412000Y-107782672D01*
X248412000Y-107782672D02*
X249065672Y-107129000D01*
%TO.N,GND*%
X240089000Y-105859000D02*
X241953672Y-105859000D01*
X240030000Y-105918000D02*
X240089000Y-105859000D01*
X239971000Y-105859000D02*
X240030000Y-105918000D01*
X239921672Y-105859000D02*
X239971000Y-105859000D01*
X233890672Y-112732672D02*
X235204000Y-114046000D01*
X233890672Y-111574000D02*
X233890672Y-112732672D01*
%TO.N,+3V3*%
X246525672Y-103319000D02*
X246380000Y-103173328D01*
X246380000Y-103173328D02*
X246380000Y-101600000D01*
%TO.N,GND*%
X243985672Y-115727459D02*
X243985672Y-120845000D01*
X243985672Y-120845000D02*
X242207672Y-122623000D01*
X242207672Y-122623000D02*
X242207672Y-121303672D01*
X242207672Y-121303672D02*
X242062000Y-121158000D01*
X242062000Y-121158000D02*
X241112991Y-121158000D01*
X241112991Y-121158000D02*
X241003991Y-121267000D01*
X241003991Y-121267000D02*
X240072009Y-121267000D01*
X240072009Y-121267000D02*
X239963009Y-121158000D01*
X239963009Y-121158000D02*
X239522000Y-121158000D01*
X239522000Y-121158000D02*
X237998000Y-122682000D01*
%TO.N,Net-(J1-Pin_11)*%
X226205672Y-105605000D02*
X225615713Y-105605000D01*
X222167267Y-110518000D02*
X224027760Y-112378493D01*
X225615713Y-105605000D02*
X222167267Y-109053446D01*
X222167267Y-109053446D02*
X222167267Y-110518000D01*
X230234493Y-112378493D02*
X232410000Y-114554000D01*
X224027760Y-112378493D02*
X230234493Y-112378493D01*
%TO.N,PE15*%
X216408000Y-117094000D02*
X217443002Y-117094000D01*
X217443002Y-117094000D02*
X218651672Y-115885330D01*
X218651672Y-115885330D02*
X218651672Y-115765000D01*
%TO.N,Net-(J1-Pin_5)*%
X230632000Y-117602000D02*
X230378000Y-117856000D01*
X230378000Y-117856000D02*
X214929131Y-117856000D01*
X214929131Y-117856000D02*
X213606172Y-116533041D01*
X213606172Y-116533041D02*
X213606172Y-115880959D01*
X213606172Y-115880959D02*
X213855131Y-115632000D01*
X213855131Y-115632000D02*
X213855131Y-114882000D01*
X213855131Y-114882000D02*
X211981672Y-113008541D01*
X211981672Y-113008541D02*
X211981672Y-111410000D01*
%TO.N,PE15*%
X219456000Y-103378000D02*
X219456000Y-106995672D01*
X219456000Y-106995672D02*
X219068672Y-107383000D01*
%TO.N,Net-(J1-Pin_7)*%
X224028000Y-110490000D02*
X225103000Y-109415000D01*
X225103000Y-109415000D02*
X226459672Y-109415000D01*
X240030000Y-112776000D02*
X241046000Y-112776000D01*
X239700672Y-113757686D02*
X239700672Y-113105328D01*
X239700672Y-113105328D02*
X240030000Y-112776000D01*
X233847000Y-116165000D02*
X237293358Y-116165000D01*
X237293358Y-116165000D02*
X239700672Y-113757686D01*
X231503000Y-118509000D02*
X233847000Y-116165000D01*
X231503000Y-121267000D02*
X231503000Y-118509000D01*
X232918000Y-122682000D02*
X231503000Y-121267000D01*
%TO.N,Net-(J1-Pin_11)*%
X227838000Y-122682000D02*
X226423000Y-121267000D01*
X221633000Y-118727000D02*
X230461595Y-118727000D01*
X230461595Y-118727000D02*
X232410000Y-116778595D01*
X221633000Y-120607991D02*
X221633000Y-118727000D01*
X222292009Y-121267000D02*
X221633000Y-120607991D01*
X226423000Y-121267000D02*
X222292009Y-121267000D01*
X232410000Y-116778595D02*
X232410000Y-114554000D01*
%TO.N,+3V3*%
X217170000Y-108980713D02*
X217170000Y-102870000D01*
X214957713Y-111193000D02*
X217170000Y-108980713D01*
X214589342Y-102811000D02*
X215392000Y-102811000D01*
X217170000Y-102870000D02*
X215451000Y-102870000D01*
X215392000Y-102811000D02*
X217287672Y-102811000D01*
X214651672Y-111193000D02*
X214957713Y-111193000D01*
X215451000Y-102870000D02*
X215392000Y-102811000D01*
X212777515Y-112850495D02*
X212777515Y-112761116D01*
X214345631Y-111193000D02*
X214651672Y-111193000D01*
X212777515Y-112761116D02*
X214345631Y-111193000D01*
X242207672Y-116166918D02*
X242207672Y-118472328D01*
X242207672Y-118472328D02*
X240538000Y-120142000D01*
%TO.N,PE15*%
X232918000Y-120142000D02*
X234598000Y-118462000D01*
X234598000Y-118462000D02*
X235857672Y-118462000D01*
%TO.N,GND*%
X225189672Y-100901000D02*
X228877672Y-100901000D01*
X228877672Y-100901000D02*
X229253672Y-100525000D01*
X229485672Y-90597000D02*
X233825672Y-94937000D01*
X218201301Y-90597000D02*
X229485672Y-90597000D01*
X217874486Y-90923814D02*
X218201301Y-90597000D01*
X217671300Y-91127000D02*
X217874486Y-90923814D01*
X217874486Y-90923814D02*
X218201300Y-90597000D01*
X219347672Y-113987000D02*
X220175295Y-113987000D01*
X223175877Y-114985500D02*
X223424836Y-115234459D01*
X220175295Y-113987000D02*
X221173795Y-114985500D01*
X221173795Y-114985500D02*
X223175877Y-114985500D01*
X223424836Y-115234459D02*
X223424836Y-115886541D01*
X223424836Y-115886541D02*
X223175877Y-116135500D01*
X223175877Y-116135500D02*
X220676486Y-116135500D01*
X219295631Y-108653000D02*
X218351672Y-109596959D01*
X218351672Y-109596959D02*
X218351672Y-112991000D01*
X218351672Y-112991000D02*
X219347672Y-113987000D01*
%TO.N,+3V3*%
X214651672Y-111193000D02*
X215537672Y-111193000D01*
X215537672Y-111193000D02*
X219201672Y-114857000D01*
X219201672Y-114857000D02*
X219963672Y-114857000D01*
X219963672Y-114857000D02*
X220667172Y-115560500D01*
X220667172Y-115560500D02*
X222174836Y-115560500D01*
%TO.N,GND*%
X214618672Y-114307000D02*
X215568672Y-115257000D01*
X215568672Y-115257000D02*
X219797986Y-115257000D01*
X219797986Y-115257000D02*
X220676486Y-116135500D01*
X223938109Y-116135500D02*
X225208109Y-114865500D01*
X220676486Y-116135500D02*
X223938109Y-116135500D01*
X225208109Y-114865500D02*
X221173795Y-114865500D01*
X221173795Y-114865500D02*
X220924836Y-114616541D01*
X220924836Y-114616541D02*
X220924836Y-113964459D01*
X220924836Y-113964459D02*
X221173795Y-113715500D01*
X221173795Y-113715500D02*
X226429836Y-113715500D01*
X226429836Y-113715500D02*
X227124836Y-113020500D01*
%TO.N,+3V3*%
X232809672Y-93045330D02*
X232809672Y-91635000D01*
X233243342Y-93479000D02*
X232809672Y-93045330D01*
X233363672Y-93479000D02*
X233243342Y-93479000D01*
X233363672Y-93479000D02*
X233987002Y-93479000D01*
X215537672Y-95445000D02*
X215537672Y-95034000D01*
X215537672Y-95034000D02*
X216142672Y-94429000D01*
%TO.N,PE15*%
X224427672Y-103065000D02*
X224427672Y-104335000D01*
X224427672Y-104335000D02*
X221379672Y-107383000D01*
%TO.N,Front Out*%
X212743672Y-108145000D02*
X212743672Y-109198000D01*
X212743672Y-109198000D02*
X211981672Y-109960000D01*
X221887672Y-111193000D02*
X219601672Y-111193000D01*
%TO.N,Left Out*%
X227124836Y-115560500D02*
X229712172Y-115560500D01*
X229712172Y-115560500D02*
X229761672Y-115511000D01*
X226205672Y-107129000D02*
X228999672Y-109923000D01*
X231539672Y-109923000D02*
X228999672Y-109923000D01*
X226205672Y-107055000D02*
X226205672Y-107129000D01*
%TO.N,Net-(Q4-B)*%
X225189672Y-99001000D02*
X220739672Y-103451000D01*
X220739672Y-103451000D02*
X220739672Y-107383000D01*
%TO.N,Net-(Q6-B)*%
X215791672Y-92143000D02*
X215151672Y-92143000D01*
X215151672Y-92143000D02*
X214267672Y-93027000D01*
X218428672Y-96364000D02*
X218839672Y-95953000D01*
X218428672Y-107383000D02*
X218428672Y-96364000D01*
%TO.N,+3V3*%
X233987002Y-93479000D02*
X237064672Y-96556670D01*
X237064672Y-96556670D02*
X237064672Y-104411959D01*
X237064672Y-104411959D02*
X240391027Y-107738314D01*
X240391027Y-107738314D02*
X245096672Y-107738314D01*
X245096672Y-107738314D02*
X245096672Y-97423814D01*
%TO.N,GND*%
X220258076Y-109348000D02*
X225189672Y-104416404D01*
X225189672Y-104416404D02*
X225189672Y-100901000D01*
X219295631Y-108653000D02*
X218600631Y-109348000D01*
X218600631Y-109348000D02*
X220258076Y-109348000D01*
X219601672Y-108653000D02*
X219295631Y-108653000D01*
%TO.N,Net-(Q3-B)*%
X214618672Y-116207000D02*
X217569672Y-116207000D01*
X217569672Y-116207000D02*
X218011672Y-115765000D01*
%TO.N,Net-(D3_Left1-K)*%
X204361672Y-119829000D02*
X205232672Y-118958000D01*
X205232672Y-118958000D02*
X209042672Y-118958000D01*
X209042672Y-118958000D02*
X212743672Y-115257000D01*
%TO.N,Front Out*%
X211981672Y-109960000D02*
X214614672Y-109960000D01*
X214614672Y-109960000D02*
X214651672Y-109923000D01*
%TO.N,Net-(JP6-B)*%
X229253672Y-113733000D02*
X227682336Y-113733000D01*
X227682336Y-113733000D02*
X227124836Y-114290500D01*
X209949672Y-102622092D02*
X211030764Y-101541000D01*
X211030764Y-101541000D02*
X216045672Y-101541000D01*
X209949672Y-102811000D02*
X209949672Y-102622092D01*
%TO.N,+3V3*%
X217287672Y-97223000D02*
X217287672Y-102811000D01*
X213947672Y-103452670D02*
X214589342Y-102811000D01*
X213947672Y-103573000D02*
X213947672Y-103452670D01*
%TO.N,Net-(JP11-B)*%
X212018672Y-106113000D02*
X212018672Y-106301908D01*
X212854764Y-107138000D02*
X214082582Y-107138000D01*
X214082582Y-107138000D02*
X214587672Y-106632910D01*
X212018672Y-106301908D02*
X212854764Y-107138000D01*
X214587672Y-106632910D02*
X214587672Y-103573000D01*
%TO.N,Left Sense*%
X211399672Y-102811000D02*
X211399672Y-103753000D01*
X211399672Y-103753000D02*
X212734672Y-105088000D01*
X212734672Y-105088000D02*
X212782582Y-105088000D01*
X212782582Y-105088000D02*
X213468672Y-105774090D01*
X213468672Y-105774090D02*
X213468672Y-106113000D01*
%TO.N,+3V3*%
X217287672Y-94173670D02*
X217287672Y-97223000D01*
X217287672Y-98635910D02*
X217287672Y-97223000D01*
X211091301Y-97971539D02*
X213657762Y-100538000D01*
X213657762Y-100538000D02*
X215385582Y-100538000D01*
X209827672Y-93413000D02*
X211091301Y-94676629D01*
X211091301Y-94676629D02*
X211091301Y-97971539D01*
X215385582Y-100538000D02*
X217287672Y-98635910D01*
%TO.N,Net-(JP16-B)*%
X231539672Y-103028000D02*
X227143762Y-103028000D01*
X227143762Y-103028000D02*
X220248762Y-109923000D01*
X220248762Y-109923000D02*
X219601672Y-109923000D01*
%TO.N,+3V3*%
X216142672Y-94429000D02*
X216142672Y-94289000D01*
X216142672Y-94289000D02*
X216477672Y-93954000D01*
X216477672Y-93954000D02*
X217068002Y-93954000D01*
X217068002Y-93954000D02*
X217287672Y-94173670D01*
%TO.N,PE15*%
X241577672Y-96715000D02*
X241577672Y-96835330D01*
X241577672Y-96835330D02*
X239920002Y-98493000D01*
X239920002Y-98493000D02*
X239667672Y-98493000D01*
%TO.N,Net-(Q1-B)*%
X237569672Y-100271000D02*
X237569672Y-100391330D01*
X241137342Y-103959000D02*
X241953672Y-103959000D01*
X237569672Y-100391330D02*
X241137342Y-103959000D01*
%TO.N,PE15*%
X235857672Y-118462000D02*
X240175672Y-114144000D01*
D33*
X237889672Y-99255000D02*
X238209672Y-99575000D01*
X238209672Y-99575000D02*
X238209672Y-100271000D01*
D32*
%TO.N,Net-(D1_Front1-K)*%
X236619672Y-94175000D02*
X238397672Y-95953000D01*
X236619672Y-92905000D02*
X236619672Y-94175000D01*
X230015672Y-96969000D02*
X232809672Y-96969000D01*
X232809672Y-96969000D02*
X234841672Y-99001000D01*
%TO.N,Net-(Q2-B)*%
X238494672Y-93855000D02*
X240937672Y-96298000D01*
X240937672Y-96298000D02*
X240937672Y-96715000D01*
%TO.N,Net-(D2_Right1-K)*%
X241699672Y-99255000D02*
X241699672Y-100174000D01*
X241699672Y-100174000D02*
X243671672Y-102146000D01*
X243446672Y-96746000D02*
X241699672Y-98493000D01*
X241699672Y-98493000D02*
X241699672Y-99255000D01*
%TO.N,+3V3*%
X236848672Y-96461000D02*
X236848672Y-96716000D01*
X236848672Y-96716000D02*
X243065131Y-102932459D01*
X243065131Y-102932459D02*
X243065131Y-104334000D01*
X243065131Y-104334000D02*
X242816172Y-104582959D01*
X242816172Y-104582959D02*
X242816172Y-105235041D01*
X242816172Y-105235041D02*
X245096672Y-107515541D01*
X245096672Y-107515541D02*
X245096672Y-97423814D01*
%TO.N,Net-(D1_Front1-A)*%
X233317672Y-96461000D02*
X232047672Y-94937000D01*
X236208672Y-96461000D02*
X233317672Y-96461000D01*
%TO.N,+3V3*%
X236848672Y-96461000D02*
X236848672Y-96340670D01*
X236848672Y-96340670D02*
X233987002Y-93479000D01*
%TO.N,Right Out*%
X238840672Y-110304000D02*
X238205672Y-110939000D01*
X238205672Y-110939000D02*
X226533672Y-110939000D01*
X226533672Y-110939000D02*
X226459672Y-110865000D01*
%TO.N,+3V3*%
X238840672Y-109034000D02*
X239146713Y-109034000D01*
X239146713Y-109034000D02*
X242461672Y-112348959D01*
X242461672Y-112348959D02*
X243845713Y-112348959D01*
X243371590Y-115003000D02*
X242207672Y-116166918D01*
X243845713Y-112348959D02*
X244998172Y-113501418D01*
X244998172Y-113501418D02*
X244998172Y-114153500D01*
X244148672Y-115003000D02*
X243371590Y-115003000D01*
X244998172Y-114153500D02*
X244148672Y-115003000D01*
%TO.N,Right Out*%
X238840672Y-110304000D02*
X237690672Y-110304000D01*
X237690672Y-110304000D02*
X236420672Y-109034000D01*
X236420672Y-109034000D02*
X233890672Y-109034000D01*
%TO.N,Right Sense*%
X249573672Y-110939000D02*
X249573672Y-107637000D01*
X249573672Y-107637000D02*
X249065672Y-107129000D01*
%TO.N,Net-(Q5-B)*%
X240175672Y-113504000D02*
X243662213Y-113504000D01*
X243662213Y-113504000D02*
X243985672Y-113827459D01*
%TO.N,Net-(Q5-C)*%
X245860672Y-114777459D02*
X246271672Y-114366459D01*
X246271672Y-114366459D02*
X246271672Y-107129000D01*
%TO.N,Net-(D2_Right1-K)*%
X243828672Y-102146000D02*
X243828672Y-104909000D01*
%TO.N,Net-(D2_Right1-A)*%
X233363672Y-92839000D02*
X233921631Y-92281041D01*
X233921631Y-92281041D02*
X237482172Y-92281041D01*
X242023672Y-92530000D02*
X243446672Y-91107000D01*
X237482172Y-92281041D02*
X237731131Y-92530000D01*
X237731131Y-92530000D02*
X242023672Y-92530000D01*
%TO.N,GND*%
X214267672Y-91127000D02*
X217671300Y-91127000D01*
X238494672Y-91955000D02*
X237136672Y-90597000D01*
X237136672Y-90597000D02*
X218201300Y-90597000D01*
%TO.N,Net-(Q4-C)*%
X222903672Y-99255000D02*
X223842672Y-98316000D01*
X223842672Y-98316000D02*
X225843213Y-98316000D01*
X225843213Y-98316000D02*
X227064672Y-99537459D01*
X227064672Y-99537459D02*
X227064672Y-99951000D01*
%TO.N,Front Sense*%
X224314172Y-91897000D02*
X223414172Y-90997000D01*
X218366986Y-90997000D02*
X214521672Y-94842314D01*
X214521672Y-94842314D02*
X214521672Y-98313000D01*
X223414172Y-90997000D02*
X218366986Y-90997000D01*
X224314172Y-91897000D02*
X228650672Y-96233500D01*
X228650672Y-96233500D02*
X228650672Y-98689000D01*
X228650672Y-98689000D02*
X231539672Y-101578000D01*
%TO.N,Net-(Q4-C)*%
X221814172Y-91897000D02*
X222903672Y-92986500D01*
X222903672Y-92986500D02*
X222903672Y-99255000D01*
%TO.N,Left Sense*%
X204107672Y-91167000D02*
X203207672Y-92067000D01*
X203207672Y-92067000D02*
X203207672Y-97707910D01*
X203207672Y-97707910D02*
X209335762Y-103836000D01*
X209335762Y-103836000D02*
X210713582Y-103836000D01*
X210713582Y-103836000D02*
X211399672Y-103149910D01*
X211399672Y-103149910D02*
X211399672Y-102811000D01*
%TO.N,Net-(D3_Left1-A)*%
X209187672Y-93413000D02*
X209187672Y-94354000D01*
X209187672Y-94354000D02*
X210393672Y-95560000D01*
X210393672Y-95560000D02*
X210393672Y-98100000D01*
X210393672Y-98100000D02*
X209218672Y-99275000D01*
%TO.N,Net-(Q6-C)*%
X209695672Y-90873000D02*
X211188672Y-90873000D01*
X211188672Y-90873000D02*
X212392672Y-92077000D01*
X204107672Y-93667000D02*
X206901672Y-90873000D01*
X206901672Y-90873000D02*
X209695672Y-90873000D01*
%TO.N,Net-(D2_Right1-K)*%
X243446672Y-93647000D02*
X243446672Y-96746000D01*
%TO.N,+3V3*%
X236848672Y-96461000D02*
X236873672Y-96486000D01*
%TO.N,PE15*%
X219576672Y-107891000D02*
X219068672Y-107383000D01*
X220992002Y-107891000D02*
X219576672Y-107891000D01*
X221379672Y-107503330D02*
X220992002Y-107891000D01*
%TO.N,Left Out*%
X227124836Y-115560500D02*
X226818795Y-115560500D01*
X225548795Y-114290500D02*
X222174836Y-114290500D01*
X226818795Y-115560500D02*
X225548795Y-114290500D01*
%TO.N,Net-(JP15-B)*%
X214521672Y-99763000D02*
X214710580Y-99763000D01*
X216782672Y-97690908D02*
X216782672Y-94429000D01*
X214710580Y-99763000D02*
X216782672Y-97690908D01*
%TD*%
%TA.AperFunction,Conductor*%
%TO.N,GND*%
G36*
X251187172Y-88748113D02*
G01*
X251232559Y-88793500D01*
X251249172Y-88855500D01*
X251249172Y-96978363D01*
X251235657Y-97034658D01*
X251198057Y-97078681D01*
X251144570Y-97100836D01*
X251086854Y-97096294D01*
X251037491Y-97066044D01*
X250029788Y-96058341D01*
X248834143Y-94862695D01*
X248826699Y-94854514D01*
X248822643Y-94848123D01*
X248773632Y-94802098D01*
X248770835Y-94799387D01*
X248754084Y-94782636D01*
X248754084Y-94782635D01*
X248751328Y-94779880D01*
X248748147Y-94777412D01*
X248739271Y-94769830D01*
X248713126Y-94745278D01*
X248713124Y-94745276D01*
X248707439Y-94739938D01*
X248700606Y-94736182D01*
X248700600Y-94736177D01*
X248689882Y-94730285D01*
X248673623Y-94719606D01*
X248663952Y-94712104D01*
X248663949Y-94712102D01*
X248657793Y-94707327D01*
X248650636Y-94704229D01*
X248650633Y-94704228D01*
X248617706Y-94689978D01*
X248607220Y-94684841D01*
X248575789Y-94667562D01*
X248575780Y-94667558D01*
X248568949Y-94663803D01*
X248561392Y-94661862D01*
X248561388Y-94661861D01*
X248549545Y-94658820D01*
X248531141Y-94652519D01*
X248519914Y-94647660D01*
X248519907Y-94647658D01*
X248512753Y-94644562D01*
X248505049Y-94643341D01*
X248505047Y-94643341D01*
X248469616Y-94637729D01*
X248458181Y-94635361D01*
X248423428Y-94626438D01*
X248423420Y-94626437D01*
X248415876Y-94624500D01*
X248408080Y-94624500D01*
X248395840Y-94624500D01*
X248376454Y-94622974D01*
X248356661Y-94619840D01*
X248348895Y-94620574D01*
X248348892Y-94620574D01*
X248313181Y-94623950D01*
X248301512Y-94624500D01*
X246457775Y-94624500D01*
X246446719Y-94623978D01*
X246439333Y-94622327D01*
X246431545Y-94622571D01*
X246431538Y-94622571D01*
X246372127Y-94624439D01*
X246368232Y-94624500D01*
X246340650Y-94624500D01*
X246336805Y-94624985D01*
X246336780Y-94624987D01*
X246336653Y-94625004D01*
X246325034Y-94625918D01*
X246289172Y-94627045D01*
X246289165Y-94627046D01*
X246281373Y-94627291D01*
X246273888Y-94629465D01*
X246273872Y-94629468D01*
X246262126Y-94632881D01*
X246243083Y-94636825D01*
X246230949Y-94638358D01*
X246230948Y-94638358D01*
X246223208Y-94639336D01*
X246215958Y-94642205D01*
X246215951Y-94642208D01*
X246182598Y-94655413D01*
X246171554Y-94659194D01*
X246137101Y-94669204D01*
X246137090Y-94669208D01*
X246129610Y-94671382D01*
X246122898Y-94675351D01*
X246122896Y-94675352D01*
X246112364Y-94681580D01*
X246094904Y-94690134D01*
X246083519Y-94694642D01*
X246083513Y-94694644D01*
X246076268Y-94697514D01*
X246069963Y-94702094D01*
X246069955Y-94702099D01*
X246040932Y-94723185D01*
X246031174Y-94729595D01*
X246000296Y-94747857D01*
X246000290Y-94747861D01*
X245993580Y-94751830D01*
X245988067Y-94757341D01*
X245988060Y-94757348D01*
X245979410Y-94765998D01*
X245964627Y-94778624D01*
X245954726Y-94785817D01*
X245954716Y-94785826D01*
X245948413Y-94790406D01*
X245943444Y-94796411D01*
X245943441Y-94796415D01*
X245920572Y-94824059D01*
X245912711Y-94832697D01*
X244709368Y-96036039D01*
X244701183Y-96043487D01*
X244694795Y-96047542D01*
X244689460Y-96053222D01*
X244689455Y-96053227D01*
X244648768Y-96096553D01*
X244646064Y-96099344D01*
X244629300Y-96116108D01*
X244629293Y-96116115D01*
X244626552Y-96118857D01*
X244624172Y-96121924D01*
X244624161Y-96121937D01*
X244624072Y-96122053D01*
X244616514Y-96130898D01*
X244591952Y-96157055D01*
X244591945Y-96157064D01*
X244586610Y-96162746D01*
X244582854Y-96169577D01*
X244582851Y-96169582D01*
X244576957Y-96180303D01*
X244566281Y-96196555D01*
X244558781Y-96206224D01*
X244558773Y-96206235D01*
X244553999Y-96212392D01*
X244550906Y-96219536D01*
X244550901Y-96219547D01*
X244536646Y-96252488D01*
X244531510Y-96262971D01*
X244514232Y-96294401D01*
X244510475Y-96301236D01*
X244508536Y-96308784D01*
X244508535Y-96308789D01*
X244505494Y-96320635D01*
X244499193Y-96339039D01*
X244494330Y-96350276D01*
X244494328Y-96350280D01*
X244491234Y-96357432D01*
X244490014Y-96365131D01*
X244490014Y-96365133D01*
X244484401Y-96400569D01*
X244482033Y-96412004D01*
X244473110Y-96446756D01*
X244473108Y-96446764D01*
X244471172Y-96454309D01*
X244471172Y-96462105D01*
X244471172Y-96474345D01*
X244469646Y-96493730D01*
X244466512Y-96513524D01*
X244467246Y-96521289D01*
X244467246Y-96521292D01*
X244470622Y-96557004D01*
X244471172Y-96568673D01*
X244471172Y-101602213D01*
X244451869Y-101668655D01*
X244399969Y-101714411D01*
X244331631Y-101725235D01*
X244268132Y-101697757D01*
X244252317Y-101684674D01*
X244166495Y-101613676D01*
X244159435Y-101610354D01*
X244159434Y-101610353D01*
X244030559Y-101549708D01*
X244030554Y-101549706D01*
X244023498Y-101546386D01*
X244015836Y-101544924D01*
X244015832Y-101544923D01*
X243978360Y-101537775D01*
X243943573Y-101525559D01*
X243913916Y-101503653D01*
X242618463Y-100208200D01*
X242588032Y-100158274D01*
X242583861Y-100099954D01*
X242606877Y-100046209D01*
X242643468Y-99997331D01*
X242693763Y-99862483D01*
X242700172Y-99802873D01*
X242700171Y-98707128D01*
X242693763Y-98647517D01*
X242649889Y-98529884D01*
X242644905Y-98460192D01*
X242678388Y-98398872D01*
X243833983Y-97243278D01*
X243842153Y-97235844D01*
X243848549Y-97231786D01*
X243894590Y-97182756D01*
X243897207Y-97180054D01*
X243916792Y-97160471D01*
X243919257Y-97157292D01*
X243926839Y-97148416D01*
X243928070Y-97147105D01*
X243956734Y-97116582D01*
X243966385Y-97099023D01*
X243977062Y-97082770D01*
X243989345Y-97066936D01*
X244006690Y-97026852D01*
X244011823Y-97016371D01*
X244032869Y-96978092D01*
X244037851Y-96958684D01*
X244044154Y-96940276D01*
X244052109Y-96921896D01*
X244058943Y-96878744D01*
X244061305Y-96867338D01*
X244072172Y-96825019D01*
X244072172Y-96804983D01*
X244073699Y-96785585D01*
X244075611Y-96773513D01*
X244075610Y-96773513D01*
X244076832Y-96765804D01*
X244072722Y-96722324D01*
X244072172Y-96710655D01*
X244072172Y-95171499D01*
X244088785Y-95109499D01*
X244134172Y-95064112D01*
X244196172Y-95047499D01*
X244391233Y-95047499D01*
X244394544Y-95047499D01*
X244454155Y-95041091D01*
X244589003Y-94990796D01*
X244704218Y-94904546D01*
X244790468Y-94789331D01*
X244840763Y-94654483D01*
X244847172Y-94594873D01*
X244847171Y-92699128D01*
X244840763Y-92639517D01*
X244790468Y-92504669D01*
X244704218Y-92389454D01*
X244642982Y-92343613D01*
X244596103Y-92308519D01*
X244596102Y-92308518D01*
X244589003Y-92303204D01*
X244535823Y-92283369D01*
X244508766Y-92273277D01*
X244459231Y-92239261D01*
X244431504Y-92185951D01*
X244432097Y-92125865D01*
X244460868Y-92073114D01*
X244555651Y-91970153D01*
X244682596Y-91775849D01*
X244775829Y-91563300D01*
X244832806Y-91338305D01*
X244851972Y-91107000D01*
X244832806Y-90875695D01*
X244775829Y-90650700D01*
X244682596Y-90438151D01*
X244569606Y-90265207D01*
X244558452Y-90248134D01*
X244558450Y-90248132D01*
X244555651Y-90243847D01*
X244398456Y-90073087D01*
X244369590Y-90050620D01*
X244219344Y-89933679D01*
X244219343Y-89933678D01*
X244215298Y-89930530D01*
X244161169Y-89901237D01*
X244015679Y-89822501D01*
X244015674Y-89822499D01*
X244011175Y-89820064D01*
X244006329Y-89818400D01*
X244006326Y-89818399D01*
X243796506Y-89746368D01*
X243796505Y-89746367D01*
X243791653Y-89744702D01*
X243786603Y-89743859D01*
X243786594Y-89743857D01*
X243567783Y-89707344D01*
X243567774Y-89707343D01*
X243562721Y-89706500D01*
X243330623Y-89706500D01*
X243325570Y-89707343D01*
X243325560Y-89707344D01*
X243106749Y-89743857D01*
X243106737Y-89743859D01*
X243101691Y-89744702D01*
X243096841Y-89746366D01*
X243096837Y-89746368D01*
X242887017Y-89818399D01*
X242887009Y-89818402D01*
X242882169Y-89820064D01*
X242877673Y-89822496D01*
X242877664Y-89822501D01*
X242682554Y-89928090D01*
X242682550Y-89928092D01*
X242678046Y-89930530D01*
X242674006Y-89933674D01*
X242673999Y-89933679D01*
X242498935Y-90069936D01*
X242498927Y-90069943D01*
X242494888Y-90073087D01*
X242491418Y-90076855D01*
X242491414Y-90076860D01*
X242341163Y-90240077D01*
X242341160Y-90240080D01*
X242337693Y-90243847D01*
X242334898Y-90248124D01*
X242334891Y-90248134D01*
X242213756Y-90433547D01*
X242210748Y-90438151D01*
X242208693Y-90442835D01*
X242208688Y-90442845D01*
X242119575Y-90646003D01*
X242117515Y-90650700D01*
X242116257Y-90655665D01*
X242116256Y-90655670D01*
X242061797Y-90870720D01*
X242061795Y-90870729D01*
X242060538Y-90875695D01*
X242060114Y-90880802D01*
X242060113Y-90880813D01*
X242047091Y-91037980D01*
X242041372Y-91107000D01*
X242041796Y-91112117D01*
X242060113Y-91333186D01*
X242060114Y-91333195D01*
X242060538Y-91338305D01*
X242061795Y-91343270D01*
X242061797Y-91343280D01*
X242097847Y-91485637D01*
X242097192Y-91548995D01*
X242065322Y-91603758D01*
X241800900Y-91868181D01*
X241760672Y-91895061D01*
X241713219Y-91904500D01*
X239856172Y-91904500D01*
X239794172Y-91887887D01*
X239748785Y-91842500D01*
X239732172Y-91780500D01*
X239732172Y-91741803D01*
X239731980Y-91736923D01*
X239729769Y-91708826D01*
X239727502Y-91696416D01*
X239685630Y-91552294D01*
X239679482Y-91538087D01*
X239603827Y-91410161D01*
X239594336Y-91397925D01*
X239489246Y-91292835D01*
X239477010Y-91283344D01*
X239349084Y-91207689D01*
X239334877Y-91201541D01*
X239190751Y-91159668D01*
X239178345Y-91157402D01*
X239150248Y-91155191D01*
X239145369Y-91155000D01*
X238760998Y-91155000D01*
X238748122Y-91158450D01*
X238744672Y-91171326D01*
X238744672Y-91780500D01*
X238728059Y-91842500D01*
X238682672Y-91887887D01*
X238620672Y-91904500D01*
X238368672Y-91904500D01*
X238306672Y-91887887D01*
X238261285Y-91842500D01*
X238244672Y-91780500D01*
X238244672Y-91171326D01*
X238241221Y-91158450D01*
X238228346Y-91155000D01*
X237843975Y-91155000D01*
X237839095Y-91155191D01*
X237810998Y-91157402D01*
X237798592Y-91159668D01*
X237654466Y-91201541D01*
X237640259Y-91207689D01*
X237512333Y-91283344D01*
X237500097Y-91292835D01*
X237395007Y-91397925D01*
X237385516Y-91410161D01*
X237309861Y-91538087D01*
X237303715Y-91552289D01*
X237299693Y-91566135D01*
X237274484Y-91612565D01*
X237232235Y-91644286D01*
X237180616Y-91655541D01*
X233999402Y-91655541D01*
X233988349Y-91655020D01*
X233980963Y-91653369D01*
X233973165Y-91653614D01*
X233913775Y-91655480D01*
X233909881Y-91655541D01*
X233882281Y-91655541D01*
X233878430Y-91656027D01*
X233878399Y-91656029D01*
X233878271Y-91656046D01*
X233866659Y-91656959D01*
X233833104Y-91658014D01*
X233773299Y-91644756D01*
X233727138Y-91604487D01*
X233705887Y-91547037D01*
X233695346Y-91446744D01*
X233636851Y-91266716D01*
X233542205Y-91102784D01*
X233420375Y-90967479D01*
X233419892Y-90966942D01*
X233419891Y-90966941D01*
X233415543Y-90962112D01*
X233410285Y-90958292D01*
X233410283Y-90958290D01*
X233267660Y-90854669D01*
X233267659Y-90854668D01*
X233262402Y-90850849D01*
X233223479Y-90833519D01*
X233095417Y-90776501D01*
X233095412Y-90776499D01*
X233089475Y-90773856D01*
X233083116Y-90772504D01*
X233083112Y-90772503D01*
X232910680Y-90735852D01*
X232910677Y-90735851D01*
X232904318Y-90734500D01*
X232715026Y-90734500D01*
X232708667Y-90735851D01*
X232708663Y-90735852D01*
X232536231Y-90772503D01*
X232536224Y-90772505D01*
X232529869Y-90773856D01*
X232523934Y-90776498D01*
X232523926Y-90776501D01*
X232362879Y-90848205D01*
X232362874Y-90848207D01*
X232356942Y-90850849D01*
X232351688Y-90854665D01*
X232351683Y-90854669D01*
X232209060Y-90958290D01*
X232209053Y-90958295D01*
X232203801Y-90962112D01*
X232199456Y-90966937D01*
X232199451Y-90966942D01*
X232081485Y-91097956D01*
X232081480Y-91097962D01*
X232077139Y-91102784D01*
X232073894Y-91108404D01*
X232073890Y-91108410D01*
X231985741Y-91261089D01*
X231985738Y-91261094D01*
X231982493Y-91266716D01*
X231980487Y-91272888D01*
X231980485Y-91272894D01*
X231926005Y-91440564D01*
X231926003Y-91440573D01*
X231923998Y-91446744D01*
X231923320Y-91453194D01*
X231923318Y-91453204D01*
X231907153Y-91607018D01*
X231904212Y-91635000D01*
X231904891Y-91641460D01*
X231923318Y-91816795D01*
X231923319Y-91816803D01*
X231923998Y-91823256D01*
X231926003Y-91829428D01*
X231926005Y-91829435D01*
X231980054Y-91995777D01*
X231982493Y-92003284D01*
X231985740Y-92008908D01*
X231985741Y-92008910D01*
X232044226Y-92110210D01*
X232077139Y-92167216D01*
X232081483Y-92172041D01*
X232081485Y-92172043D01*
X232152322Y-92250715D01*
X232175936Y-92289249D01*
X232184172Y-92333687D01*
X232184172Y-92967555D01*
X232183650Y-92978610D01*
X232181999Y-92985997D01*
X232182243Y-92993783D01*
X232182243Y-92993791D01*
X232184111Y-93053203D01*
X232184172Y-93057098D01*
X232184172Y-93084680D01*
X232184660Y-93088549D01*
X232184661Y-93088555D01*
X232184676Y-93088673D01*
X232185590Y-93100296D01*
X232186717Y-93136160D01*
X232186718Y-93136167D01*
X232186963Y-93143957D01*
X232189139Y-93151449D01*
X232189140Y-93151451D01*
X232192551Y-93163192D01*
X232196497Y-93182245D01*
X232197087Y-93186919D01*
X232199008Y-93202122D01*
X232201878Y-93209372D01*
X232201880Y-93209378D01*
X232215086Y-93242734D01*
X232218869Y-93253781D01*
X232231054Y-93295720D01*
X232235025Y-93302435D01*
X232235026Y-93302437D01*
X232241253Y-93312967D01*
X232249808Y-93330429D01*
X232254314Y-93341810D01*
X232254315Y-93341813D01*
X232257186Y-93349062D01*
X232262604Y-93356519D01*
X232282853Y-93384390D01*
X232289265Y-93394152D01*
X232307528Y-93425032D01*
X232307531Y-93425037D01*
X232311502Y-93431750D01*
X232317017Y-93437265D01*
X232325662Y-93445910D01*
X232338298Y-93460704D01*
X232345491Y-93470605D01*
X232345495Y-93470609D01*
X232350078Y-93476917D01*
X232356087Y-93481888D01*
X232356090Y-93481891D01*
X232383730Y-93504757D01*
X232392370Y-93512619D01*
X232684601Y-93804850D01*
X232711481Y-93845077D01*
X232739136Y-93911841D01*
X232754683Y-93932102D01*
X232819733Y-94016878D01*
X232835390Y-94037282D01*
X232960831Y-94133536D01*
X233106910Y-94194044D01*
X233224311Y-94209500D01*
X233503032Y-94209499D01*
X233620434Y-94194044D01*
X233683204Y-94168043D01*
X233730654Y-94158605D01*
X233778107Y-94168044D01*
X233818336Y-94194924D01*
X235247231Y-95623819D01*
X235277481Y-95673182D01*
X235282023Y-95730898D01*
X235259868Y-95784385D01*
X235215845Y-95821985D01*
X235159550Y-95835500D01*
X233668719Y-95835500D01*
X233616124Y-95823793D01*
X233573460Y-95790883D01*
X233556346Y-95770346D01*
X232976449Y-95074470D01*
X232953066Y-95031141D01*
X232948389Y-94982125D01*
X232952453Y-94943466D01*
X232952453Y-94943460D01*
X232953132Y-94937000D01*
X232933346Y-94748744D01*
X232874851Y-94568716D01*
X232780205Y-94404784D01*
X232774378Y-94398313D01*
X232657892Y-94268942D01*
X232657891Y-94268941D01*
X232653543Y-94264112D01*
X232648285Y-94260292D01*
X232648283Y-94260290D01*
X232505660Y-94156669D01*
X232505659Y-94156668D01*
X232500402Y-94152849D01*
X232464008Y-94136645D01*
X232333417Y-94078501D01*
X232333412Y-94078499D01*
X232327475Y-94075856D01*
X232321116Y-94074504D01*
X232321112Y-94074503D01*
X232148680Y-94037852D01*
X232148677Y-94037851D01*
X232142318Y-94036500D01*
X231953026Y-94036500D01*
X231946667Y-94037851D01*
X231946663Y-94037852D01*
X231774231Y-94074503D01*
X231774224Y-94074505D01*
X231767869Y-94075856D01*
X231761934Y-94078498D01*
X231761926Y-94078501D01*
X231600879Y-94150205D01*
X231600874Y-94150207D01*
X231594942Y-94152849D01*
X231589688Y-94156665D01*
X231589683Y-94156669D01*
X231447060Y-94260290D01*
X231447053Y-94260295D01*
X231441801Y-94264112D01*
X231437456Y-94268937D01*
X231437451Y-94268942D01*
X231319485Y-94399956D01*
X231319480Y-94399962D01*
X231315139Y-94404784D01*
X231311894Y-94410404D01*
X231311890Y-94410410D01*
X231223741Y-94563089D01*
X231223738Y-94563094D01*
X231220493Y-94568716D01*
X231218487Y-94574888D01*
X231218485Y-94574894D01*
X231164005Y-94742564D01*
X231164003Y-94742573D01*
X231161998Y-94748744D01*
X231161320Y-94755194D01*
X231161318Y-94755204D01*
X231149675Y-94865990D01*
X231142212Y-94937000D01*
X231142891Y-94943460D01*
X231161318Y-95118795D01*
X231161319Y-95118803D01*
X231161998Y-95125256D01*
X231164003Y-95131428D01*
X231164005Y-95131435D01*
X231213883Y-95284942D01*
X231220493Y-95305284D01*
X231223740Y-95310908D01*
X231223741Y-95310910D01*
X231300569Y-95443980D01*
X231317113Y-95501849D01*
X231304460Y-95560691D01*
X231265590Y-95606644D01*
X231209661Y-95628880D01*
X231149850Y-95622162D01*
X231030427Y-95577621D01*
X231030424Y-95577620D01*
X231023155Y-95574909D01*
X231015442Y-95574079D01*
X231015439Y-95574079D01*
X230966852Y-95568855D01*
X230966841Y-95568854D01*
X230963545Y-95568500D01*
X230960222Y-95568500D01*
X229071111Y-95568500D01*
X229071092Y-95568500D01*
X229067800Y-95568501D01*
X229064522Y-95568853D01*
X229064510Y-95568854D01*
X229015903Y-95574079D01*
X229015897Y-95574080D01*
X229008189Y-95574909D01*
X229000924Y-95577618D01*
X229000918Y-95577620D01*
X228987064Y-95582788D01*
X228917372Y-95587772D01*
X228856050Y-95554287D01*
X225475990Y-92174227D01*
X225449110Y-92133999D01*
X225439671Y-92086546D01*
X225439671Y-91227439D01*
X225439671Y-91224128D01*
X225433263Y-91164517D01*
X225382968Y-91029669D01*
X225296718Y-90914454D01*
X225272065Y-90895999D01*
X225188603Y-90833519D01*
X225188602Y-90833518D01*
X225181503Y-90828204D01*
X225046655Y-90777909D01*
X225038942Y-90777079D01*
X225038939Y-90777079D01*
X224990352Y-90771855D01*
X224990341Y-90771854D01*
X224987045Y-90771500D01*
X224983723Y-90771500D01*
X224124625Y-90771500D01*
X224077172Y-90762061D01*
X224036944Y-90735181D01*
X223911458Y-90609695D01*
X223904014Y-90601514D01*
X223899958Y-90595123D01*
X223850947Y-90549098D01*
X223848150Y-90546387D01*
X223831399Y-90529636D01*
X223828643Y-90526880D01*
X223825462Y-90524412D01*
X223816586Y-90516830D01*
X223790441Y-90492278D01*
X223790439Y-90492276D01*
X223784754Y-90486938D01*
X223777921Y-90483182D01*
X223777915Y-90483177D01*
X223767197Y-90477285D01*
X223750938Y-90466606D01*
X223741267Y-90459104D01*
X223741264Y-90459102D01*
X223735108Y-90454327D01*
X223727951Y-90451229D01*
X223727948Y-90451228D01*
X223695021Y-90436978D01*
X223684535Y-90431841D01*
X223653104Y-90414562D01*
X223653095Y-90414558D01*
X223646264Y-90410803D01*
X223638707Y-90408862D01*
X223638703Y-90408861D01*
X223626860Y-90405820D01*
X223608456Y-90399519D01*
X223597229Y-90394660D01*
X223597222Y-90394658D01*
X223590068Y-90391562D01*
X223582364Y-90390341D01*
X223582362Y-90390341D01*
X223546931Y-90384729D01*
X223535496Y-90382361D01*
X223500743Y-90373438D01*
X223500735Y-90373437D01*
X223493191Y-90371500D01*
X223485395Y-90371500D01*
X223473155Y-90371500D01*
X223453769Y-90369974D01*
X223433976Y-90366840D01*
X223426210Y-90367574D01*
X223426207Y-90367574D01*
X223390496Y-90370950D01*
X223378827Y-90371500D01*
X218444757Y-90371500D01*
X218433704Y-90370979D01*
X218426318Y-90369328D01*
X218418520Y-90369573D01*
X218359130Y-90371439D01*
X218355236Y-90371500D01*
X218327636Y-90371500D01*
X218323785Y-90371986D01*
X218323754Y-90371988D01*
X218323626Y-90372005D01*
X218312015Y-90372918D01*
X218276158Y-90374045D01*
X218276151Y-90374046D01*
X218268359Y-90374291D01*
X218260874Y-90376465D01*
X218260858Y-90376468D01*
X218249112Y-90379881D01*
X218230069Y-90383825D01*
X218217935Y-90385358D01*
X218217934Y-90385358D01*
X218210194Y-90386336D01*
X218202944Y-90389205D01*
X218202937Y-90389208D01*
X218169584Y-90402413D01*
X218158540Y-90406194D01*
X218124091Y-90416203D01*
X218124081Y-90416207D01*
X218116596Y-90418382D01*
X218109886Y-90422349D01*
X218109884Y-90422351D01*
X218107480Y-90423773D01*
X218099346Y-90428583D01*
X218081886Y-90437136D01*
X218063254Y-90444514D01*
X218056951Y-90449092D01*
X218056944Y-90449097D01*
X218027925Y-90470181D01*
X218018165Y-90476592D01*
X217987280Y-90494857D01*
X217987270Y-90494864D01*
X217980565Y-90498830D01*
X217975049Y-90504345D01*
X217975046Y-90504348D01*
X217966393Y-90513000D01*
X217951610Y-90525626D01*
X217941713Y-90532817D01*
X217941706Y-90532823D01*
X217935399Y-90537406D01*
X217930432Y-90543408D01*
X217930421Y-90543420D01*
X217907556Y-90571059D01*
X217899696Y-90579697D01*
X216764534Y-91714859D01*
X216716712Y-91744597D01*
X216660668Y-91750117D01*
X216607962Y-91730280D01*
X216569466Y-91689178D01*
X216530929Y-91622431D01*
X216524205Y-91610784D01*
X216492775Y-91575878D01*
X216401892Y-91474942D01*
X216401891Y-91474941D01*
X216397543Y-91470112D01*
X216392285Y-91466292D01*
X216392283Y-91466290D01*
X216249660Y-91362669D01*
X216249659Y-91362668D01*
X216244402Y-91358849D01*
X216209432Y-91343279D01*
X216077417Y-91284501D01*
X216077412Y-91284499D01*
X216071475Y-91281856D01*
X216065116Y-91280504D01*
X216065112Y-91280503D01*
X215892680Y-91243852D01*
X215892677Y-91243851D01*
X215886318Y-91242500D01*
X215697026Y-91242500D01*
X215690667Y-91243851D01*
X215690663Y-91243852D01*
X215518231Y-91280503D01*
X215518224Y-91280505D01*
X215511869Y-91281856D01*
X215505934Y-91284498D01*
X215505926Y-91284501D01*
X215344880Y-91356205D01*
X215338942Y-91358849D01*
X215336348Y-91360733D01*
X215275636Y-91377000D01*
X214533998Y-91377000D01*
X214521122Y-91380450D01*
X214517672Y-91393326D01*
X214517672Y-91841047D01*
X214508233Y-91888500D01*
X214481353Y-91928728D01*
X214219900Y-92190181D01*
X214179672Y-92217061D01*
X214132219Y-92226500D01*
X213754672Y-92226500D01*
X213692672Y-92209887D01*
X213647285Y-92164500D01*
X213630672Y-92102500D01*
X213630672Y-92051000D01*
X213647285Y-91989000D01*
X213692672Y-91943613D01*
X213754672Y-91927000D01*
X214001346Y-91927000D01*
X214014221Y-91923549D01*
X214017672Y-91910674D01*
X214017672Y-91393326D01*
X214014221Y-91380450D01*
X214001346Y-91377000D01*
X213361987Y-91377000D01*
X213298866Y-91359732D01*
X213247285Y-91329227D01*
X213247283Y-91329226D01*
X213240570Y-91325256D01*
X213233077Y-91323079D01*
X213088829Y-91281170D01*
X213088822Y-91281168D01*
X213082741Y-91279402D01*
X213076430Y-91278905D01*
X213076423Y-91278904D01*
X213048300Y-91276691D01*
X213048286Y-91276690D01*
X213045866Y-91276500D01*
X213043421Y-91276500D01*
X212528125Y-91276500D01*
X212480672Y-91267061D01*
X212440444Y-91240181D01*
X212066486Y-90866223D01*
X213035479Y-90866223D01*
X213036885Y-90873293D01*
X213050028Y-90877000D01*
X214001346Y-90877000D01*
X214014221Y-90873549D01*
X214017672Y-90860674D01*
X214517672Y-90860674D01*
X214521122Y-90873549D01*
X214533998Y-90877000D01*
X215485316Y-90877000D01*
X215498458Y-90873293D01*
X215499864Y-90866223D01*
X215458630Y-90724294D01*
X215452482Y-90710087D01*
X215376827Y-90582161D01*
X215367336Y-90569925D01*
X215262246Y-90464835D01*
X215250010Y-90455344D01*
X215122084Y-90379689D01*
X215107877Y-90373541D01*
X214963751Y-90331668D01*
X214951345Y-90329402D01*
X214923248Y-90327191D01*
X214918369Y-90327000D01*
X214533998Y-90327000D01*
X214521122Y-90330450D01*
X214517672Y-90343326D01*
X214517672Y-90860674D01*
X214017672Y-90860674D01*
X214017672Y-90343326D01*
X214014221Y-90330450D01*
X214001346Y-90327000D01*
X213616975Y-90327000D01*
X213612095Y-90327191D01*
X213583998Y-90329402D01*
X213571592Y-90331668D01*
X213427466Y-90373541D01*
X213413259Y-90379689D01*
X213285333Y-90455344D01*
X213273097Y-90464835D01*
X213168007Y-90569925D01*
X213158516Y-90582161D01*
X213082861Y-90710087D01*
X213076713Y-90724294D01*
X213035479Y-90866223D01*
X212066486Y-90866223D01*
X211685958Y-90485695D01*
X211678514Y-90477514D01*
X211674458Y-90471123D01*
X211625447Y-90425098D01*
X211622650Y-90422387D01*
X211605899Y-90405636D01*
X211603143Y-90402880D01*
X211599962Y-90400412D01*
X211591086Y-90392830D01*
X211564941Y-90368278D01*
X211564939Y-90368276D01*
X211559254Y-90362938D01*
X211552421Y-90359182D01*
X211552415Y-90359177D01*
X211541697Y-90353285D01*
X211525438Y-90342606D01*
X211515767Y-90335104D01*
X211515764Y-90335102D01*
X211509608Y-90330327D01*
X211502451Y-90327229D01*
X211502448Y-90327228D01*
X211469521Y-90312978D01*
X211459035Y-90307841D01*
X211427604Y-90290562D01*
X211427595Y-90290558D01*
X211420764Y-90286803D01*
X211413207Y-90284862D01*
X211413203Y-90284861D01*
X211401360Y-90281820D01*
X211382956Y-90275519D01*
X211371729Y-90270660D01*
X211371722Y-90270658D01*
X211364568Y-90267562D01*
X211356864Y-90266341D01*
X211356862Y-90266341D01*
X211321431Y-90260729D01*
X211309996Y-90258361D01*
X211275243Y-90249438D01*
X211275235Y-90249437D01*
X211267691Y-90247500D01*
X211259895Y-90247500D01*
X211247655Y-90247500D01*
X211228269Y-90245974D01*
X211208476Y-90242840D01*
X211200710Y-90243574D01*
X211200707Y-90243574D01*
X211164996Y-90246950D01*
X211153327Y-90247500D01*
X210769138Y-90247500D01*
X210720325Y-90237488D01*
X210679394Y-90209069D01*
X210652956Y-90166832D01*
X210642568Y-90138981D01*
X210639468Y-90130669D01*
X210553218Y-90015454D01*
X210438003Y-89929204D01*
X210303155Y-89878909D01*
X210295442Y-89878079D01*
X210295439Y-89878079D01*
X210246852Y-89872855D01*
X210246841Y-89872854D01*
X210243545Y-89872500D01*
X210240222Y-89872500D01*
X209151111Y-89872500D01*
X209151092Y-89872500D01*
X209147800Y-89872501D01*
X209144522Y-89872853D01*
X209144510Y-89872854D01*
X209095903Y-89878079D01*
X209095897Y-89878080D01*
X209088189Y-89878909D01*
X209080924Y-89881618D01*
X209080918Y-89881620D01*
X208961652Y-89926104D01*
X208961650Y-89926104D01*
X208953341Y-89929204D01*
X208946244Y-89934516D01*
X208946240Y-89934519D01*
X208845222Y-90010141D01*
X208845218Y-90010144D01*
X208838126Y-90015454D01*
X208832816Y-90022546D01*
X208832813Y-90022550D01*
X208757191Y-90123568D01*
X208757188Y-90123572D01*
X208751876Y-90130669D01*
X208748777Y-90138976D01*
X208748775Y-90138981D01*
X208738388Y-90166832D01*
X208711950Y-90209069D01*
X208671019Y-90237488D01*
X208622206Y-90247500D01*
X206979447Y-90247500D01*
X206968391Y-90246978D01*
X206961005Y-90245327D01*
X206953217Y-90245571D01*
X206953210Y-90245571D01*
X206893785Y-90247439D01*
X206889891Y-90247500D01*
X206862322Y-90247500D01*
X206858466Y-90247986D01*
X206858463Y-90247987D01*
X206858407Y-90247994D01*
X206858334Y-90248003D01*
X206846716Y-90248917D01*
X206810837Y-90250045D01*
X206810836Y-90250045D01*
X206803045Y-90250290D01*
X206795560Y-90252464D01*
X206795556Y-90252465D01*
X206783797Y-90255881D01*
X206764759Y-90259823D01*
X206752621Y-90261357D01*
X206752613Y-90261358D01*
X206744880Y-90262336D01*
X206737632Y-90265205D01*
X206737626Y-90265207D01*
X206704269Y-90278413D01*
X206693226Y-90282194D01*
X206658772Y-90292205D01*
X206658766Y-90292207D01*
X206651282Y-90294382D01*
X206644570Y-90298351D01*
X206644568Y-90298352D01*
X206634036Y-90304580D01*
X206616576Y-90313134D01*
X206605191Y-90317642D01*
X206605185Y-90317644D01*
X206597940Y-90320514D01*
X206591635Y-90325094D01*
X206591627Y-90325099D01*
X206562604Y-90346185D01*
X206552846Y-90352595D01*
X206521968Y-90370857D01*
X206521962Y-90370861D01*
X206515252Y-90374830D01*
X206509739Y-90380341D01*
X206509732Y-90380348D01*
X206501082Y-90388998D01*
X206486299Y-90401624D01*
X206476398Y-90408817D01*
X206476388Y-90408826D01*
X206470085Y-90413406D01*
X206465116Y-90419411D01*
X206465113Y-90419415D01*
X206442244Y-90447059D01*
X206434383Y-90455697D01*
X205952852Y-90937229D01*
X205903489Y-90967479D01*
X205845773Y-90972021D01*
X205792286Y-90949866D01*
X205754686Y-90905843D01*
X205741171Y-90849548D01*
X205741171Y-90497439D01*
X205741171Y-90494128D01*
X205734763Y-90434517D01*
X205684468Y-90299669D01*
X205598218Y-90184454D01*
X205483003Y-90098204D01*
X205412637Y-90071959D01*
X205355424Y-90050620D01*
X205355422Y-90050619D01*
X205348155Y-90047909D01*
X205340442Y-90047079D01*
X205340439Y-90047079D01*
X205291852Y-90041855D01*
X205291841Y-90041854D01*
X205288545Y-90041500D01*
X205285222Y-90041500D01*
X203946111Y-90041500D01*
X203946092Y-90041500D01*
X203942800Y-90041501D01*
X203939522Y-90041853D01*
X203939510Y-90041854D01*
X203890903Y-90047079D01*
X203890897Y-90047080D01*
X203883189Y-90047909D01*
X203875924Y-90050618D01*
X203875918Y-90050620D01*
X203756652Y-90095104D01*
X203756650Y-90095104D01*
X203748341Y-90098204D01*
X203741244Y-90103516D01*
X203741240Y-90103519D01*
X203640222Y-90179141D01*
X203640218Y-90179144D01*
X203633126Y-90184454D01*
X203627816Y-90191546D01*
X203627813Y-90191550D01*
X203552191Y-90292568D01*
X203552188Y-90292572D01*
X203546876Y-90299669D01*
X203543776Y-90307978D01*
X203543776Y-90307980D01*
X203499292Y-90427247D01*
X203499291Y-90427250D01*
X203496581Y-90434517D01*
X203495751Y-90442227D01*
X203495751Y-90442232D01*
X203490527Y-90490819D01*
X203490526Y-90490831D01*
X203490172Y-90494127D01*
X203490172Y-90497449D01*
X203490172Y-90848546D01*
X203480733Y-90895999D01*
X203453853Y-90936227D01*
X202820368Y-91569711D01*
X202812183Y-91577159D01*
X202805795Y-91581214D01*
X202800460Y-91586894D01*
X202800455Y-91586899D01*
X202759768Y-91630225D01*
X202757064Y-91633016D01*
X202740300Y-91649780D01*
X202740293Y-91649787D01*
X202737552Y-91652529D01*
X202735172Y-91655596D01*
X202735161Y-91655609D01*
X202735072Y-91655725D01*
X202727514Y-91664570D01*
X202702952Y-91690727D01*
X202702945Y-91690736D01*
X202697610Y-91696418D01*
X202693854Y-91703249D01*
X202693851Y-91703254D01*
X202687957Y-91713975D01*
X202677281Y-91730227D01*
X202669781Y-91739896D01*
X202669773Y-91739907D01*
X202664999Y-91746064D01*
X202661906Y-91753208D01*
X202661901Y-91753219D01*
X202647646Y-91786160D01*
X202642510Y-91796643D01*
X202625232Y-91828073D01*
X202621475Y-91834908D01*
X202619536Y-91842456D01*
X202619535Y-91842461D01*
X202616494Y-91854307D01*
X202610193Y-91872711D01*
X202605330Y-91883948D01*
X202605328Y-91883952D01*
X202602234Y-91891104D01*
X202601014Y-91898803D01*
X202601014Y-91898805D01*
X202595401Y-91934241D01*
X202593033Y-91945676D01*
X202584110Y-91980428D01*
X202584108Y-91980436D01*
X202582172Y-91987981D01*
X202582172Y-91995777D01*
X202582172Y-92008017D01*
X202580646Y-92027402D01*
X202577512Y-92047196D01*
X202578246Y-92054961D01*
X202578246Y-92054964D01*
X202581622Y-92090676D01*
X202582172Y-92102345D01*
X202582172Y-97630135D01*
X202581650Y-97641190D01*
X202579999Y-97648577D01*
X202580243Y-97656363D01*
X202580243Y-97656371D01*
X202582111Y-97715783D01*
X202582172Y-97719678D01*
X202582172Y-97747260D01*
X202582660Y-97751129D01*
X202582661Y-97751135D01*
X202582676Y-97751253D01*
X202583590Y-97762876D01*
X202584717Y-97798740D01*
X202584718Y-97798747D01*
X202584963Y-97806537D01*
X202587139Y-97814029D01*
X202587140Y-97814031D01*
X202590551Y-97825772D01*
X202594497Y-97844825D01*
X202597008Y-97864702D01*
X202599878Y-97871952D01*
X202599880Y-97871958D01*
X202613086Y-97905314D01*
X202616869Y-97916361D01*
X202629054Y-97958300D01*
X202633025Y-97965015D01*
X202633026Y-97965017D01*
X202639253Y-97975547D01*
X202647808Y-97993009D01*
X202652314Y-98004390D01*
X202652315Y-98004393D01*
X202655186Y-98011642D01*
X202677112Y-98041822D01*
X202680853Y-98046970D01*
X202687265Y-98056732D01*
X202705528Y-98087612D01*
X202705531Y-98087617D01*
X202709502Y-98094330D01*
X202715017Y-98099845D01*
X202723662Y-98108490D01*
X202736298Y-98123284D01*
X202743491Y-98133185D01*
X202743495Y-98133189D01*
X202748078Y-98139497D01*
X202754087Y-98144468D01*
X202754088Y-98144469D01*
X202781730Y-98167336D01*
X202790371Y-98175199D01*
X208838469Y-104223298D01*
X208845921Y-104231487D01*
X208849976Y-104237877D01*
X208887346Y-104272970D01*
X208898985Y-104283900D01*
X208901781Y-104286610D01*
X208921291Y-104306120D01*
X208924471Y-104308587D01*
X208933333Y-104316155D01*
X208946782Y-104328785D01*
X208959494Y-104340723D01*
X208959496Y-104340724D01*
X208965180Y-104346062D01*
X208972013Y-104349818D01*
X208972014Y-104349819D01*
X208982735Y-104355713D01*
X208998996Y-104366394D01*
X209014826Y-104378673D01*
X209021986Y-104381771D01*
X209021987Y-104381772D01*
X209035574Y-104387651D01*
X209054916Y-104396021D01*
X209065393Y-104401154D01*
X209103670Y-104422197D01*
X209119909Y-104426366D01*
X209123067Y-104427177D01*
X209141481Y-104433481D01*
X209159866Y-104441438D01*
X209203027Y-104448273D01*
X209214426Y-104450634D01*
X209256743Y-104461500D01*
X209276779Y-104461500D01*
X209296164Y-104463025D01*
X209315958Y-104466160D01*
X209354038Y-104462560D01*
X209359438Y-104462050D01*
X209371107Y-104461500D01*
X210635807Y-104461500D01*
X210646862Y-104462021D01*
X210654249Y-104463673D01*
X210721454Y-104461561D01*
X210725350Y-104461500D01*
X210749030Y-104461500D01*
X210752932Y-104461500D01*
X210756895Y-104460999D01*
X210768545Y-104460080D01*
X210812209Y-104458709D01*
X210831443Y-104453119D01*
X210850499Y-104449174D01*
X210870374Y-104446664D01*
X210910977Y-104430587D01*
X210922032Y-104426802D01*
X210963972Y-104414618D01*
X210981211Y-104404422D01*
X210998685Y-104395862D01*
X211004458Y-104393575D01*
X211017314Y-104388486D01*
X211022073Y-104385028D01*
X211071644Y-104370343D01*
X211123950Y-104377786D01*
X211168410Y-104406329D01*
X211301274Y-104539192D01*
X211433071Y-104670990D01*
X211465163Y-104726571D01*
X211465168Y-104790752D01*
X211433083Y-104846339D01*
X211387102Y-104872896D01*
X211387801Y-104874583D01*
X211273358Y-104921986D01*
X211273353Y-104921988D01*
X211265849Y-104925097D01*
X211259404Y-104930041D01*
X211259401Y-104930044D01*
X211167568Y-105000510D01*
X211167564Y-105000513D01*
X211161126Y-105005454D01*
X211156185Y-105011892D01*
X211156182Y-105011896D01*
X211085716Y-105103729D01*
X211085713Y-105103732D01*
X211080769Y-105110177D01*
X211077660Y-105117681D01*
X211077658Y-105117686D01*
X211056429Y-105168938D01*
X211030255Y-105232129D01*
X211029194Y-105240182D01*
X211029193Y-105240189D01*
X211013554Y-105358980D01*
X211013025Y-105363000D01*
X211013025Y-106863000D01*
X211013553Y-106867017D01*
X211013554Y-106867019D01*
X211029048Y-106984708D01*
X211030255Y-106993871D01*
X211033366Y-107001382D01*
X211033367Y-107001385D01*
X211058350Y-107061699D01*
X211080769Y-107115824D01*
X211085715Y-107122270D01*
X211085717Y-107122273D01*
X211156179Y-107214100D01*
X211156182Y-107214103D01*
X211161126Y-107220546D01*
X211265849Y-107300903D01*
X211387801Y-107351417D01*
X211518672Y-107368647D01*
X211952453Y-107368647D01*
X212007588Y-107381579D01*
X212051223Y-107417677D01*
X212074257Y-107469412D01*
X212071885Y-107525994D01*
X212044602Y-107575620D01*
X212015486Y-107607955D01*
X212015481Y-107607961D01*
X212011139Y-107612784D01*
X212007894Y-107618404D01*
X212007890Y-107618410D01*
X211919741Y-107771089D01*
X211919738Y-107771094D01*
X211916493Y-107776716D01*
X211914487Y-107782888D01*
X211914485Y-107782894D01*
X211860005Y-107950564D01*
X211860003Y-107950573D01*
X211857998Y-107956744D01*
X211857320Y-107963194D01*
X211857318Y-107963204D01*
X211844383Y-108086284D01*
X211838212Y-108145000D01*
X211838891Y-108151460D01*
X211857318Y-108326795D01*
X211857319Y-108326803D01*
X211857998Y-108333256D01*
X211860003Y-108339428D01*
X211860005Y-108339435D01*
X211914008Y-108505636D01*
X211916493Y-108513284D01*
X211919740Y-108518908D01*
X211919741Y-108518910D01*
X212006792Y-108669688D01*
X212011139Y-108677216D01*
X212015483Y-108682041D01*
X212015485Y-108682043D01*
X212074316Y-108747381D01*
X212101598Y-108797007D01*
X212103970Y-108853588D01*
X212080936Y-108905323D01*
X212037301Y-108941421D01*
X211982166Y-108954353D01*
X211231672Y-108954353D01*
X211227655Y-108954881D01*
X211227652Y-108954882D01*
X211108861Y-108970521D01*
X211108854Y-108970522D01*
X211100801Y-108971583D01*
X211093291Y-108974693D01*
X211093290Y-108974694D01*
X210986358Y-109018986D01*
X210986353Y-109018988D01*
X210978849Y-109022097D01*
X210972404Y-109027041D01*
X210972401Y-109027044D01*
X210880568Y-109097510D01*
X210880564Y-109097513D01*
X210874126Y-109102454D01*
X210869185Y-109108892D01*
X210869182Y-109108896D01*
X210798716Y-109200729D01*
X210798713Y-109200732D01*
X210793769Y-109207177D01*
X210790660Y-109214681D01*
X210790658Y-109214686D01*
X210748509Y-109316445D01*
X210743255Y-109329129D01*
X210742194Y-109337182D01*
X210742193Y-109337189D01*
X210726554Y-109455980D01*
X210726025Y-109460000D01*
X210726025Y-110460000D01*
X210726491Y-110463776D01*
X210726492Y-110463788D01*
X210738125Y-110558000D01*
X210741211Y-110582990D01*
X210741701Y-110584260D01*
X210744073Y-110627046D01*
X210736283Y-110684435D01*
X210726025Y-110760000D01*
X210726025Y-111910000D01*
X210726553Y-111914017D01*
X210726554Y-111914019D01*
X210736677Y-111990912D01*
X210743255Y-112040871D01*
X210746366Y-112048382D01*
X210746367Y-112048385D01*
X210756178Y-112072070D01*
X210793769Y-112162824D01*
X210798715Y-112169270D01*
X210798717Y-112169273D01*
X210869179Y-112261100D01*
X210869182Y-112261103D01*
X210874126Y-112267546D01*
X210978849Y-112347903D01*
X211100801Y-112398417D01*
X211231672Y-112415647D01*
X211235729Y-112415647D01*
X211239783Y-112415913D01*
X211239668Y-112417655D01*
X211294172Y-112432260D01*
X211339559Y-112477647D01*
X211356172Y-112539647D01*
X211356172Y-112930766D01*
X211355650Y-112941821D01*
X211353999Y-112949208D01*
X211354243Y-112956994D01*
X211354243Y-112957002D01*
X211356111Y-113016414D01*
X211356172Y-113020309D01*
X211356172Y-113047891D01*
X211356660Y-113051760D01*
X211356661Y-113051766D01*
X211356676Y-113051884D01*
X211357590Y-113063507D01*
X211358717Y-113099371D01*
X211358718Y-113099378D01*
X211358963Y-113107168D01*
X211361139Y-113114660D01*
X211361140Y-113114662D01*
X211364551Y-113126403D01*
X211368497Y-113145456D01*
X211371008Y-113165333D01*
X211373878Y-113172583D01*
X211373880Y-113172589D01*
X211387086Y-113205945D01*
X211390869Y-113216992D01*
X211403054Y-113258931D01*
X211407025Y-113265646D01*
X211407026Y-113265648D01*
X211413253Y-113276178D01*
X211421808Y-113293640D01*
X211426314Y-113305021D01*
X211426315Y-113305024D01*
X211429186Y-113312273D01*
X211434182Y-113319149D01*
X211454853Y-113347601D01*
X211461265Y-113357363D01*
X211479528Y-113388243D01*
X211479531Y-113388248D01*
X211483502Y-113394961D01*
X211489017Y-113400476D01*
X211497662Y-113409121D01*
X211510298Y-113423915D01*
X211517491Y-113433816D01*
X211517495Y-113433820D01*
X211522078Y-113440128D01*
X211528087Y-113445099D01*
X211528088Y-113445100D01*
X211555730Y-113467967D01*
X211564371Y-113475830D01*
X212333359Y-114244819D01*
X212363609Y-114294182D01*
X212368151Y-114351898D01*
X212345996Y-114405385D01*
X212301973Y-114442985D01*
X212245678Y-114456500D01*
X212090478Y-114456500D01*
X212088058Y-114456690D01*
X212088043Y-114456691D01*
X212059920Y-114458904D01*
X212059911Y-114458905D01*
X212053603Y-114459402D01*
X212047523Y-114461168D01*
X212047514Y-114461170D01*
X211903266Y-114503079D01*
X211903263Y-114503080D01*
X211895774Y-114505256D01*
X211889063Y-114509224D01*
X211889058Y-114509227D01*
X211761023Y-114584946D01*
X211761016Y-114584950D01*
X211754307Y-114588919D01*
X211748792Y-114594433D01*
X211748788Y-114594437D01*
X211643609Y-114699616D01*
X211643605Y-114699620D01*
X211638091Y-114705135D01*
X211634122Y-114711844D01*
X211634118Y-114711851D01*
X211558399Y-114839886D01*
X211558396Y-114839891D01*
X211554428Y-114846602D01*
X211552252Y-114854091D01*
X211552251Y-114854094D01*
X211510342Y-114998342D01*
X211510340Y-114998351D01*
X211508574Y-115004431D01*
X211508077Y-115010739D01*
X211508076Y-115010748D01*
X211505863Y-115038871D01*
X211505862Y-115038886D01*
X211505672Y-115041306D01*
X211505672Y-115472694D01*
X211505862Y-115475114D01*
X211505863Y-115475128D01*
X211508076Y-115503251D01*
X211508077Y-115503258D01*
X211508574Y-115509569D01*
X211510342Y-115515655D01*
X211511480Y-115521883D01*
X211510274Y-115522103D01*
X211511190Y-115580472D01*
X211478767Y-115637312D01*
X208819900Y-118296181D01*
X208779672Y-118323061D01*
X208732219Y-118332500D01*
X205310447Y-118332500D01*
X205299391Y-118331978D01*
X205292005Y-118330327D01*
X205284217Y-118330571D01*
X205284210Y-118330571D01*
X205224799Y-118332439D01*
X205220904Y-118332500D01*
X205193322Y-118332500D01*
X205189477Y-118332985D01*
X205189452Y-118332987D01*
X205189325Y-118333004D01*
X205177706Y-118333918D01*
X205141844Y-118335045D01*
X205141837Y-118335046D01*
X205134045Y-118335291D01*
X205126560Y-118337465D01*
X205126544Y-118337468D01*
X205114798Y-118340881D01*
X205095755Y-118344825D01*
X205083621Y-118346358D01*
X205083620Y-118346358D01*
X205075880Y-118347336D01*
X205068630Y-118350205D01*
X205068623Y-118350208D01*
X205035270Y-118363413D01*
X205024226Y-118367194D01*
X204989773Y-118377204D01*
X204989762Y-118377208D01*
X204982282Y-118379382D01*
X204975570Y-118383351D01*
X204975568Y-118383352D01*
X204965036Y-118389580D01*
X204947576Y-118398134D01*
X204936191Y-118402642D01*
X204936185Y-118402644D01*
X204928940Y-118405514D01*
X204922635Y-118410094D01*
X204922627Y-118410099D01*
X204893604Y-118431185D01*
X204883846Y-118437595D01*
X204852968Y-118455857D01*
X204852962Y-118455861D01*
X204846252Y-118459830D01*
X204840739Y-118465341D01*
X204840732Y-118465348D01*
X204832082Y-118473998D01*
X204817299Y-118486624D01*
X204807398Y-118493817D01*
X204807388Y-118493826D01*
X204801085Y-118498406D01*
X204796116Y-118504411D01*
X204796113Y-118504415D01*
X204773244Y-118532059D01*
X204765383Y-118540697D01*
X204708899Y-118597181D01*
X204668671Y-118624061D01*
X204621218Y-118633500D01*
X203671439Y-118633500D01*
X203671420Y-118633500D01*
X203668128Y-118633501D01*
X203664850Y-118633853D01*
X203664838Y-118633854D01*
X203616231Y-118639079D01*
X203616225Y-118639080D01*
X203608517Y-118639909D01*
X203601252Y-118642618D01*
X203601246Y-118642620D01*
X203481980Y-118687104D01*
X203481978Y-118687104D01*
X203473669Y-118690204D01*
X203466572Y-118695516D01*
X203466568Y-118695519D01*
X203365550Y-118771141D01*
X203365546Y-118771144D01*
X203358454Y-118776454D01*
X203353144Y-118783546D01*
X203353141Y-118783550D01*
X203277519Y-118884568D01*
X203277516Y-118884572D01*
X203272204Y-118891669D01*
X203269104Y-118899978D01*
X203269104Y-118899980D01*
X203224620Y-119019247D01*
X203224619Y-119019250D01*
X203221909Y-119026517D01*
X203221079Y-119034227D01*
X203221079Y-119034232D01*
X203215855Y-119082819D01*
X203215854Y-119082831D01*
X203215500Y-119086127D01*
X203215500Y-119089448D01*
X203215500Y-119089449D01*
X203215500Y-120178560D01*
X203215500Y-120178578D01*
X203215501Y-120181872D01*
X203215853Y-120185150D01*
X203215854Y-120185161D01*
X203221079Y-120233768D01*
X203221080Y-120233773D01*
X203221909Y-120241483D01*
X203224619Y-120248749D01*
X203224620Y-120248753D01*
X203258217Y-120338831D01*
X203272204Y-120376331D01*
X203358454Y-120491546D01*
X203473669Y-120577796D01*
X203608517Y-120628091D01*
X203668127Y-120634500D01*
X204763872Y-120634499D01*
X204823483Y-120628091D01*
X204958331Y-120577796D01*
X205073546Y-120491546D01*
X205159796Y-120376331D01*
X205210091Y-120241483D01*
X205216500Y-120181873D01*
X205216499Y-119910124D01*
X205225938Y-119862672D01*
X205252818Y-119822443D01*
X205455445Y-119619818D01*
X205495674Y-119592939D01*
X205543126Y-119583500D01*
X206107909Y-119583500D01*
X206162753Y-119596288D01*
X206206285Y-119632014D01*
X206229526Y-119683309D01*
X206227684Y-119739593D01*
X206184337Y-119901365D01*
X206184336Y-119901369D01*
X206182937Y-119906592D01*
X206182465Y-119911977D01*
X206182466Y-119911980D01*
X206162341Y-120142000D01*
X206162813Y-120147395D01*
X206182115Y-120368019D01*
X206182937Y-120377408D01*
X206184336Y-120382630D01*
X206184337Y-120382634D01*
X206242694Y-120600430D01*
X206242697Y-120600438D01*
X206244097Y-120605663D01*
X206246385Y-120610570D01*
X206246386Y-120610572D01*
X206341678Y-120814927D01*
X206341681Y-120814933D01*
X206343965Y-120819830D01*
X206347064Y-120824257D01*
X206347066Y-120824259D01*
X206476399Y-121008966D01*
X206476402Y-121008970D01*
X206479505Y-121013401D01*
X206646599Y-121180495D01*
X206651031Y-121183598D01*
X206651033Y-121183600D01*
X206832595Y-121310731D01*
X206871460Y-121355049D01*
X206885471Y-121412306D01*
X206871460Y-121469563D01*
X206832595Y-121513881D01*
X206651352Y-121640788D01*
X206643092Y-121647719D01*
X206483719Y-121807092D01*
X206476784Y-121815357D01*
X206347508Y-121999982D01*
X206342110Y-122009332D01*
X206246856Y-122213602D01*
X206243168Y-122223736D01*
X206191056Y-122418219D01*
X206190688Y-122429448D01*
X206201631Y-122432000D01*
X207644000Y-122432000D01*
X207706000Y-122448613D01*
X207751387Y-122494000D01*
X207768000Y-122556000D01*
X207768000Y-123998369D01*
X207770551Y-124009311D01*
X207781780Y-124008943D01*
X207976263Y-123956831D01*
X207986397Y-123953143D01*
X208190676Y-123857886D01*
X208200008Y-123852498D01*
X208384643Y-123723215D01*
X208392909Y-123716278D01*
X208552278Y-123556909D01*
X208559219Y-123548638D01*
X208686119Y-123367406D01*
X208730437Y-123328540D01*
X208787694Y-123314529D01*
X208844951Y-123328540D01*
X208889269Y-123367405D01*
X209016399Y-123548966D01*
X209016402Y-123548970D01*
X209019505Y-123553401D01*
X209186599Y-123720495D01*
X209191031Y-123723598D01*
X209191033Y-123723600D01*
X209335260Y-123824589D01*
X209380170Y-123856035D01*
X209594337Y-123955903D01*
X209822592Y-124017063D01*
X210058000Y-124037659D01*
X210293408Y-124017063D01*
X210521663Y-123955903D01*
X210735830Y-123856035D01*
X210929401Y-123720495D01*
X211096495Y-123553401D01*
X211226424Y-123367842D01*
X211270743Y-123328976D01*
X211328000Y-123314965D01*
X211385257Y-123328976D01*
X211429575Y-123367842D01*
X211556395Y-123548961D01*
X211556401Y-123548968D01*
X211559505Y-123553401D01*
X211726599Y-123720495D01*
X211731031Y-123723598D01*
X211731033Y-123723600D01*
X211875260Y-123824589D01*
X211920170Y-123856035D01*
X212134337Y-123955903D01*
X212362592Y-124017063D01*
X212598000Y-124037659D01*
X212833408Y-124017063D01*
X213061663Y-123955903D01*
X213275830Y-123856035D01*
X213469401Y-123720495D01*
X213636495Y-123553401D01*
X213766730Y-123367405D01*
X213811048Y-123328540D01*
X213868305Y-123314529D01*
X213925562Y-123328540D01*
X213969880Y-123367405D01*
X214096784Y-123548643D01*
X214103721Y-123556909D01*
X214263090Y-123716278D01*
X214271356Y-123723215D01*
X214455991Y-123852498D01*
X214465323Y-123857886D01*
X214669602Y-123953143D01*
X214679736Y-123956831D01*
X214874219Y-124008943D01*
X214885448Y-124009311D01*
X214888000Y-123998369D01*
X214888000Y-122556000D01*
X214904613Y-122494000D01*
X214950000Y-122448613D01*
X215012000Y-122432000D01*
X215264000Y-122432000D01*
X215326000Y-122448613D01*
X215371387Y-122494000D01*
X215388000Y-122556000D01*
X215388000Y-123998369D01*
X215390551Y-124009311D01*
X215401780Y-124008943D01*
X215596263Y-123956831D01*
X215606397Y-123953143D01*
X215810676Y-123857886D01*
X215820008Y-123852498D01*
X216004643Y-123723215D01*
X216012909Y-123716278D01*
X216172278Y-123556909D01*
X216179219Y-123548638D01*
X216306119Y-123367406D01*
X216350437Y-123328540D01*
X216407694Y-123314529D01*
X216464951Y-123328540D01*
X216509269Y-123367405D01*
X216636399Y-123548966D01*
X216636402Y-123548970D01*
X216639505Y-123553401D01*
X216806599Y-123720495D01*
X216811031Y-123723598D01*
X216811033Y-123723600D01*
X216955260Y-123824589D01*
X217000170Y-123856035D01*
X217214337Y-123955903D01*
X217442592Y-124017063D01*
X217678000Y-124037659D01*
X217913408Y-124017063D01*
X218141663Y-123955903D01*
X218355830Y-123856035D01*
X218549401Y-123720495D01*
X218716495Y-123553401D01*
X218846424Y-123367842D01*
X218890743Y-123328976D01*
X218948000Y-123314965D01*
X219005257Y-123328976D01*
X219049575Y-123367842D01*
X219176395Y-123548961D01*
X219176401Y-123548968D01*
X219179505Y-123553401D01*
X219346599Y-123720495D01*
X219351031Y-123723598D01*
X219351033Y-123723600D01*
X219495260Y-123824589D01*
X219540170Y-123856035D01*
X219754337Y-123955903D01*
X219982592Y-124017063D01*
X220218000Y-124037659D01*
X220453408Y-124017063D01*
X220681663Y-123955903D01*
X220895830Y-123856035D01*
X221089401Y-123720495D01*
X221256495Y-123553401D01*
X221386730Y-123367405D01*
X221431048Y-123328540D01*
X221488305Y-123314529D01*
X221545562Y-123328540D01*
X221589880Y-123367405D01*
X221716784Y-123548643D01*
X221723721Y-123556909D01*
X221883090Y-123716278D01*
X221891356Y-123723215D01*
X222075991Y-123852498D01*
X222085323Y-123857886D01*
X222289602Y-123953143D01*
X222299736Y-123956831D01*
X222494219Y-124008943D01*
X222505448Y-124009311D01*
X222508000Y-123998369D01*
X222508000Y-122556000D01*
X222524613Y-122494000D01*
X222570000Y-122448613D01*
X222632000Y-122432000D01*
X222884000Y-122432000D01*
X222946000Y-122448613D01*
X222991387Y-122494000D01*
X223008000Y-122556000D01*
X223008000Y-123998369D01*
X223010551Y-124009311D01*
X223021780Y-124008943D01*
X223216263Y-123956831D01*
X223226397Y-123953143D01*
X223430676Y-123857886D01*
X223440008Y-123852498D01*
X223624643Y-123723215D01*
X223632909Y-123716278D01*
X223792278Y-123556909D01*
X223799219Y-123548638D01*
X223926119Y-123367406D01*
X223970437Y-123328540D01*
X224027694Y-123314529D01*
X224084951Y-123328540D01*
X224129269Y-123367405D01*
X224256399Y-123548966D01*
X224256402Y-123548970D01*
X224259505Y-123553401D01*
X224426599Y-123720495D01*
X224431031Y-123723598D01*
X224431033Y-123723600D01*
X224575260Y-123824589D01*
X224620170Y-123856035D01*
X224834337Y-123955903D01*
X225062592Y-124017063D01*
X225298000Y-124037659D01*
X225533408Y-124017063D01*
X225761663Y-123955903D01*
X225975830Y-123856035D01*
X226169401Y-123720495D01*
X226336495Y-123553401D01*
X226466424Y-123367842D01*
X226510743Y-123328976D01*
X226568000Y-123314965D01*
X226625257Y-123328976D01*
X226669575Y-123367842D01*
X226796395Y-123548961D01*
X226796401Y-123548968D01*
X226799505Y-123553401D01*
X226966599Y-123720495D01*
X226971031Y-123723598D01*
X226971033Y-123723600D01*
X227115260Y-123824589D01*
X227160170Y-123856035D01*
X227374337Y-123955903D01*
X227602592Y-124017063D01*
X227838000Y-124037659D01*
X228073408Y-124017063D01*
X228301663Y-123955903D01*
X228515830Y-123856035D01*
X228709401Y-123720495D01*
X228876495Y-123553401D01*
X229006730Y-123367405D01*
X229051048Y-123328540D01*
X229108305Y-123314529D01*
X229165562Y-123328540D01*
X229209880Y-123367405D01*
X229336784Y-123548643D01*
X229343721Y-123556909D01*
X229503090Y-123716278D01*
X229511356Y-123723215D01*
X229695991Y-123852498D01*
X229705323Y-123857886D01*
X229909602Y-123953143D01*
X229919736Y-123956831D01*
X230114219Y-124008943D01*
X230125448Y-124009311D01*
X230128000Y-123998369D01*
X230128000Y-122556000D01*
X230144613Y-122494000D01*
X230190000Y-122448613D01*
X230252000Y-122432000D01*
X230504000Y-122432000D01*
X230566000Y-122448613D01*
X230611387Y-122494000D01*
X230628000Y-122556000D01*
X230628000Y-123998369D01*
X230630551Y-124009311D01*
X230641780Y-124008943D01*
X230836263Y-123956831D01*
X230846397Y-123953143D01*
X231050676Y-123857886D01*
X231060008Y-123852498D01*
X231244643Y-123723215D01*
X231252909Y-123716278D01*
X231412278Y-123556909D01*
X231419219Y-123548638D01*
X231546119Y-123367406D01*
X231590437Y-123328540D01*
X231647694Y-123314529D01*
X231704951Y-123328540D01*
X231749269Y-123367405D01*
X231876399Y-123548966D01*
X231876402Y-123548970D01*
X231879505Y-123553401D01*
X232046599Y-123720495D01*
X232051031Y-123723598D01*
X232051033Y-123723600D01*
X232195260Y-123824589D01*
X232240170Y-123856035D01*
X232454337Y-123955903D01*
X232682592Y-124017063D01*
X232918000Y-124037659D01*
X233153408Y-124017063D01*
X233381663Y-123955903D01*
X233595830Y-123856035D01*
X233789401Y-123720495D01*
X233956495Y-123553401D01*
X234086424Y-123367842D01*
X234130743Y-123328976D01*
X234188000Y-123314965D01*
X234245257Y-123328976D01*
X234289575Y-123367842D01*
X234416395Y-123548961D01*
X234416401Y-123548968D01*
X234419505Y-123553401D01*
X234586599Y-123720495D01*
X234591031Y-123723598D01*
X234591033Y-123723600D01*
X234735260Y-123824589D01*
X234780170Y-123856035D01*
X234994337Y-123955903D01*
X235222592Y-124017063D01*
X235458000Y-124037659D01*
X235693408Y-124017063D01*
X235921663Y-123955903D01*
X236135830Y-123856035D01*
X236329401Y-123720495D01*
X236496495Y-123553401D01*
X236626730Y-123367405D01*
X236671048Y-123328540D01*
X236728305Y-123314529D01*
X236785562Y-123328540D01*
X236829880Y-123367405D01*
X236956784Y-123548643D01*
X236963721Y-123556909D01*
X237123090Y-123716278D01*
X237131356Y-123723215D01*
X237315991Y-123852498D01*
X237325323Y-123857886D01*
X237529602Y-123953143D01*
X237539736Y-123956831D01*
X237734219Y-124008943D01*
X237745448Y-124009311D01*
X237748000Y-123998369D01*
X237748000Y-122556000D01*
X237764613Y-122494000D01*
X237810000Y-122448613D01*
X237872000Y-122432000D01*
X238124000Y-122432000D01*
X238186000Y-122448613D01*
X238231387Y-122494000D01*
X238248000Y-122556000D01*
X238248000Y-123998369D01*
X238250551Y-124009311D01*
X238261780Y-124008943D01*
X238456263Y-123956831D01*
X238466397Y-123953143D01*
X238670676Y-123857886D01*
X238680008Y-123852498D01*
X238864643Y-123723215D01*
X238872902Y-123716284D01*
X238991133Y-123598053D01*
X239043880Y-123566757D01*
X239105173Y-123564568D01*
X239160018Y-123592021D01*
X239194997Y-123642401D01*
X239244204Y-123774331D01*
X239249518Y-123781430D01*
X239249519Y-123781431D01*
X239305367Y-123856035D01*
X239330454Y-123889546D01*
X239445669Y-123975796D01*
X239580517Y-124026091D01*
X239640127Y-124032500D01*
X241435872Y-124032499D01*
X241495483Y-124026091D01*
X241630331Y-123975796D01*
X241745546Y-123889546D01*
X241831796Y-123774331D01*
X241882091Y-123639483D01*
X241888500Y-123579873D01*
X241888499Y-121784128D01*
X241882091Y-121724517D01*
X241831796Y-121589669D01*
X241745546Y-121474454D01*
X241677870Y-121423792D01*
X241637431Y-121393519D01*
X241637430Y-121393518D01*
X241630331Y-121388204D01*
X241541435Y-121355048D01*
X241498916Y-121339189D01*
X241448537Y-121304210D01*
X241421084Y-121249365D01*
X241423273Y-121188072D01*
X241454566Y-121135329D01*
X241576495Y-121013401D01*
X241712035Y-120819830D01*
X241811903Y-120605663D01*
X241873063Y-120377408D01*
X241893659Y-120142000D01*
X241873063Y-119906592D01*
X241846143Y-119806126D01*
X241846143Y-119741939D01*
X241878235Y-119686353D01*
X242594978Y-118969610D01*
X242603154Y-118962171D01*
X242609549Y-118958114D01*
X242655605Y-118909068D01*
X242658222Y-118906366D01*
X242677792Y-118886798D01*
X242680237Y-118883644D01*
X242687827Y-118874756D01*
X242717734Y-118842910D01*
X242727385Y-118825351D01*
X242738062Y-118809098D01*
X242750345Y-118793264D01*
X242767694Y-118753169D01*
X242772829Y-118742690D01*
X242778832Y-118731771D01*
X242793869Y-118704420D01*
X242798850Y-118685015D01*
X242805155Y-118666605D01*
X242810011Y-118655384D01*
X242810011Y-118655383D01*
X242813110Y-118648223D01*
X242819941Y-118605084D01*
X242822311Y-118593643D01*
X242831232Y-118558902D01*
X242831231Y-118558902D01*
X242833172Y-118551347D01*
X242833172Y-118531311D01*
X242834697Y-118511925D01*
X242837832Y-118492132D01*
X242833722Y-118448652D01*
X242833172Y-118436983D01*
X242833172Y-116515877D01*
X242849947Y-116453596D01*
X242895735Y-116408167D01*
X242958146Y-116391881D01*
X243020293Y-116409145D01*
X243131258Y-116474769D01*
X243145466Y-116480917D01*
X243289592Y-116522790D01*
X243301998Y-116525056D01*
X243330095Y-116527267D01*
X243334975Y-116527459D01*
X243719346Y-116527459D01*
X243732221Y-116524008D01*
X243735672Y-116511133D01*
X243735672Y-115853000D01*
X243752285Y-115791000D01*
X243797672Y-115745613D01*
X243859672Y-115729000D01*
X244111672Y-115729000D01*
X244173672Y-115745613D01*
X244219059Y-115791000D01*
X244235672Y-115853000D01*
X244235672Y-116511133D01*
X244239122Y-116524008D01*
X244251998Y-116527459D01*
X244636369Y-116527459D01*
X244641248Y-116527267D01*
X244669345Y-116525056D01*
X244681751Y-116522790D01*
X244825877Y-116480917D01*
X244840084Y-116474769D01*
X244968010Y-116399114D01*
X244980246Y-116389623D01*
X245085336Y-116284533D01*
X245094827Y-116272297D01*
X245170482Y-116144371D01*
X245176630Y-116130164D01*
X245194876Y-116067364D01*
X245220085Y-116020935D01*
X245262333Y-115989214D01*
X245313952Y-115977959D01*
X247287034Y-115977959D01*
X247298089Y-115978480D01*
X247305476Y-115980132D01*
X247372681Y-115978020D01*
X247376577Y-115977959D01*
X247400257Y-115977959D01*
X247404159Y-115977959D01*
X247408122Y-115977458D01*
X247419772Y-115976539D01*
X247463436Y-115975168D01*
X247482670Y-115969578D01*
X247501726Y-115965633D01*
X247521601Y-115963123D01*
X247553801Y-115950373D01*
X247562206Y-115947046D01*
X247573259Y-115943261D01*
X247615199Y-115931077D01*
X247632438Y-115920881D01*
X247649912Y-115912321D01*
X247661283Y-115907819D01*
X247661285Y-115907817D01*
X247668541Y-115904945D01*
X247703878Y-115879270D01*
X247713633Y-115872862D01*
X247751229Y-115850629D01*
X247765393Y-115836464D01*
X247780188Y-115823827D01*
X247796396Y-115812053D01*
X247824237Y-115778397D01*
X247832088Y-115769768D01*
X251037490Y-112564368D01*
X251086854Y-112534118D01*
X251144570Y-112529576D01*
X251198057Y-112551731D01*
X251235657Y-112595754D01*
X251249172Y-112652049D01*
X251249172Y-124606500D01*
X251232559Y-124668500D01*
X251187172Y-124713887D01*
X251125172Y-124730500D01*
X201374172Y-124730500D01*
X201312172Y-124713887D01*
X201266785Y-124668500D01*
X201250172Y-124606500D01*
X201250172Y-122934551D01*
X206190688Y-122934551D01*
X206191056Y-122945780D01*
X206243168Y-123140263D01*
X206246856Y-123150397D01*
X206342113Y-123354676D01*
X206347501Y-123364008D01*
X206476784Y-123548643D01*
X206483721Y-123556909D01*
X206643090Y-123716278D01*
X206651356Y-123723215D01*
X206835991Y-123852498D01*
X206845323Y-123857886D01*
X207049602Y-123953143D01*
X207059736Y-123956831D01*
X207254219Y-124008943D01*
X207265448Y-124009311D01*
X207268000Y-123998369D01*
X207268000Y-122948326D01*
X207264549Y-122935450D01*
X207251674Y-122932000D01*
X206201631Y-122932000D01*
X206190688Y-122934551D01*
X201250172Y-122934551D01*
X201250172Y-88855500D01*
X201266785Y-88793500D01*
X201312172Y-88748113D01*
X201374172Y-88731500D01*
X251125172Y-88731500D01*
X251187172Y-88748113D01*
G37*
%TD.AperFunction*%
%TA.AperFunction,Conductor*%
G36*
X239325257Y-120788976D02*
G01*
X239369575Y-120827842D01*
X239496395Y-121008961D01*
X239496401Y-121008968D01*
X239499505Y-121013401D01*
X239503335Y-121017231D01*
X239503336Y-121017232D01*
X239621430Y-121135326D01*
X239652726Y-121188072D01*
X239654915Y-121249365D01*
X239627462Y-121304210D01*
X239577083Y-121339189D01*
X239461702Y-121382223D01*
X239445669Y-121388204D01*
X239438572Y-121393516D01*
X239438568Y-121393519D01*
X239337550Y-121469141D01*
X239337546Y-121469144D01*
X239330454Y-121474454D01*
X239325144Y-121481546D01*
X239325141Y-121481550D01*
X239249519Y-121582568D01*
X239249516Y-121582572D01*
X239244204Y-121589669D01*
X239241104Y-121597978D01*
X239241105Y-121597978D01*
X239194997Y-121721599D01*
X239160018Y-121771978D01*
X239105173Y-121799431D01*
X239043880Y-121797242D01*
X238991134Y-121765946D01*
X238872909Y-121647721D01*
X238864643Y-121640784D01*
X238683405Y-121513880D01*
X238644540Y-121469562D01*
X238630529Y-121412305D01*
X238644540Y-121355048D01*
X238683406Y-121310730D01*
X238771045Y-121249365D01*
X238869401Y-121180495D01*
X239036495Y-121013401D01*
X239166424Y-120827842D01*
X239210743Y-120788976D01*
X239268000Y-120774965D01*
X239325257Y-120788976D01*
G37*
%TD.AperFunction*%
%TA.AperFunction,Conductor*%
G36*
X225285796Y-114925439D02*
G01*
X225326024Y-114952319D01*
X225613960Y-115240255D01*
X225642612Y-115285009D01*
X225649898Y-115337648D01*
X225649528Y-115342353D01*
X225649526Y-115342379D01*
X225649336Y-115344806D01*
X225649336Y-115776194D01*
X225649526Y-115778614D01*
X225649527Y-115778628D01*
X225651740Y-115806751D01*
X225651741Y-115806758D01*
X225652238Y-115813069D01*
X225654004Y-115819150D01*
X225654006Y-115819157D01*
X225694998Y-115960249D01*
X225698092Y-115970898D01*
X225702062Y-115977611D01*
X225702063Y-115977613D01*
X225743715Y-116048043D01*
X225781755Y-116112365D01*
X225787268Y-116117878D01*
X225788527Y-116119501D01*
X225811561Y-116168451D01*
X225811561Y-116222549D01*
X225788527Y-116271499D01*
X225787268Y-116273121D01*
X225781755Y-116278635D01*
X225777787Y-116285344D01*
X225777785Y-116285347D01*
X225702063Y-116413386D01*
X225702062Y-116413389D01*
X225698092Y-116420102D01*
X225695916Y-116427591D01*
X225695915Y-116427594D01*
X225654006Y-116571842D01*
X225654004Y-116571851D01*
X225652238Y-116577931D01*
X225651741Y-116584239D01*
X225651740Y-116584248D01*
X225649527Y-116612371D01*
X225649526Y-116612386D01*
X225649336Y-116614806D01*
X225649336Y-117046194D01*
X225649526Y-117048614D01*
X225649527Y-117048628D01*
X225651066Y-117068182D01*
X225652238Y-117083069D01*
X225653042Y-117085836D01*
X225651045Y-117138041D01*
X225626357Y-117185913D01*
X225583700Y-117218801D01*
X225531123Y-117230500D01*
X223768549Y-117230500D01*
X223715972Y-117218801D01*
X223673315Y-117185913D01*
X223648627Y-117138041D01*
X223646629Y-117085836D01*
X223647434Y-117083069D01*
X223650336Y-117046194D01*
X223650336Y-116614806D01*
X223647434Y-116577931D01*
X223601580Y-116420102D01*
X223517917Y-116278635D01*
X223512398Y-116273116D01*
X223511144Y-116271499D01*
X223488110Y-116222547D01*
X223488111Y-116168446D01*
X223511148Y-116119494D01*
X223512392Y-116117889D01*
X223517917Y-116112365D01*
X223601580Y-115970898D01*
X223647434Y-115813069D01*
X223650336Y-115776194D01*
X223650336Y-115344806D01*
X223647434Y-115307931D01*
X223601580Y-115150102D01*
X223593884Y-115137089D01*
X223573796Y-115103120D01*
X223556532Y-115040973D01*
X223572818Y-114978563D01*
X223618247Y-114932775D01*
X223680528Y-114916000D01*
X225238343Y-114916000D01*
X225285796Y-114925439D01*
G37*
%TD.AperFunction*%
%TA.AperFunction,Conductor*%
G36*
X219700673Y-115491939D02*
G01*
X219740900Y-115518818D01*
X219961140Y-115739059D01*
X220169879Y-115947798D01*
X220177331Y-115955987D01*
X220181386Y-115962377D01*
X220212384Y-115991486D01*
X220230395Y-116008400D01*
X220233192Y-116011111D01*
X220252701Y-116030620D01*
X220255881Y-116033087D01*
X220264743Y-116040655D01*
X220272610Y-116048043D01*
X220290904Y-116065223D01*
X220290906Y-116065224D01*
X220296590Y-116070562D01*
X220303423Y-116074318D01*
X220303424Y-116074319D01*
X220314145Y-116080213D01*
X220330406Y-116090894D01*
X220346236Y-116103173D01*
X220386327Y-116120521D01*
X220396805Y-116125655D01*
X220405007Y-116130164D01*
X220435080Y-116146697D01*
X220454488Y-116151680D01*
X220472891Y-116157981D01*
X220484116Y-116162839D01*
X220484118Y-116162839D01*
X220491276Y-116165937D01*
X220534430Y-116172771D01*
X220545816Y-116175129D01*
X220588153Y-116186000D01*
X220608189Y-116186000D01*
X220627587Y-116187527D01*
X220639658Y-116189439D01*
X220639659Y-116189439D01*
X220647368Y-116190660D01*
X220655491Y-116189892D01*
X220655787Y-116189946D01*
X220662936Y-116190171D01*
X220662902Y-116191245D01*
X220721715Y-116201983D01*
X220771862Y-116246895D01*
X220791153Y-116311390D01*
X220773900Y-116376461D01*
X220748092Y-116420102D01*
X220745916Y-116427591D01*
X220745915Y-116427594D01*
X220704006Y-116571842D01*
X220704004Y-116571851D01*
X220702238Y-116577931D01*
X220701741Y-116584239D01*
X220701740Y-116584248D01*
X220699527Y-116612371D01*
X220699526Y-116612386D01*
X220699336Y-116614806D01*
X220699336Y-117046194D01*
X220699526Y-117048614D01*
X220699527Y-117048628D01*
X220701066Y-117068182D01*
X220702238Y-117083069D01*
X220703042Y-117085836D01*
X220701045Y-117138041D01*
X220676357Y-117185913D01*
X220633700Y-117218801D01*
X220581123Y-117230500D01*
X218490454Y-117230500D01*
X218434159Y-117216985D01*
X218390136Y-117179385D01*
X218367981Y-117125898D01*
X218372523Y-117068182D01*
X218402773Y-117018819D01*
X218544755Y-116876837D01*
X218977524Y-116444066D01*
X219017746Y-116417190D01*
X219084513Y-116389536D01*
X219209954Y-116293282D01*
X219306208Y-116167841D01*
X219366716Y-116021762D01*
X219382172Y-115904361D01*
X219382171Y-115625640D01*
X219381641Y-115621617D01*
X219381376Y-115617568D01*
X219382580Y-115617489D01*
X219392341Y-115554091D01*
X219438098Y-115501918D01*
X219504721Y-115482500D01*
X219653220Y-115482500D01*
X219700673Y-115491939D01*
G37*
%TD.AperFunction*%
%TA.AperFunction,Conductor*%
G36*
X232353672Y-111581113D02*
G01*
X232399059Y-111626500D01*
X232415672Y-111688500D01*
X232415672Y-111787197D01*
X232415863Y-111792076D01*
X232418074Y-111820173D01*
X232420340Y-111832579D01*
X232462213Y-111976705D01*
X232468361Y-111990912D01*
X232544016Y-112118838D01*
X232553507Y-112131074D01*
X232658597Y-112236164D01*
X232670833Y-112245655D01*
X232798759Y-112321310D01*
X232812966Y-112327458D01*
X232957092Y-112369331D01*
X232969498Y-112371597D01*
X232997595Y-112373808D01*
X233002475Y-112374000D01*
X233624346Y-112374000D01*
X233637221Y-112370549D01*
X233640672Y-112357674D01*
X233640672Y-111688500D01*
X233657285Y-111626500D01*
X233702672Y-111581113D01*
X233764672Y-111564500D01*
X234016672Y-111564500D01*
X234078672Y-111581113D01*
X234124059Y-111626500D01*
X234140672Y-111688500D01*
X234140672Y-112357674D01*
X234144122Y-112370549D01*
X234156998Y-112374000D01*
X234778869Y-112374000D01*
X234783748Y-112373808D01*
X234811845Y-112371597D01*
X234824251Y-112369331D01*
X234968377Y-112327458D01*
X234982584Y-112321310D01*
X235110510Y-112245655D01*
X235122746Y-112236164D01*
X235227836Y-112131074D01*
X235237327Y-112118838D01*
X235312982Y-111990912D01*
X235319130Y-111976705D01*
X235361003Y-111832579D01*
X235363269Y-111820173D01*
X235365480Y-111792076D01*
X235365672Y-111787197D01*
X235365672Y-111688500D01*
X235382285Y-111626500D01*
X235427672Y-111581113D01*
X235489672Y-111564500D01*
X237241172Y-111564500D01*
X237303172Y-111581113D01*
X237348559Y-111626500D01*
X237365172Y-111688500D01*
X237365172Y-111789694D01*
X237365362Y-111792114D01*
X237365363Y-111792128D01*
X237367576Y-111820251D01*
X237367577Y-111820258D01*
X237368074Y-111826569D01*
X237369840Y-111832650D01*
X237369842Y-111832657D01*
X237404809Y-111953011D01*
X237413928Y-111984398D01*
X237417898Y-111991111D01*
X237417899Y-111991113D01*
X237493618Y-112119148D01*
X237493620Y-112119151D01*
X237497591Y-112125865D01*
X237613807Y-112242081D01*
X237620521Y-112246052D01*
X237620523Y-112246053D01*
X237656866Y-112267546D01*
X237755274Y-112325744D01*
X237913103Y-112371598D01*
X237949978Y-112374500D01*
X239247546Y-112374500D01*
X239303841Y-112388015D01*
X239347865Y-112425616D01*
X239370020Y-112479104D01*
X239365476Y-112536820D01*
X239335225Y-112586183D01*
X239313366Y-112608041D01*
X239305183Y-112615487D01*
X239298795Y-112619542D01*
X239293460Y-112625222D01*
X239293455Y-112625227D01*
X239252768Y-112668553D01*
X239250064Y-112671344D01*
X239233300Y-112688108D01*
X239233293Y-112688115D01*
X239230552Y-112690857D01*
X239228172Y-112693924D01*
X239228161Y-112693937D01*
X239228072Y-112694053D01*
X239220514Y-112702898D01*
X239195952Y-112729055D01*
X239195945Y-112729064D01*
X239190610Y-112734746D01*
X239186854Y-112741577D01*
X239186851Y-112741582D01*
X239180957Y-112752303D01*
X239170281Y-112768555D01*
X239162781Y-112778224D01*
X239162773Y-112778235D01*
X239157999Y-112784392D01*
X239154906Y-112791536D01*
X239154901Y-112791547D01*
X239140646Y-112824488D01*
X239135510Y-112834971D01*
X239114475Y-112873236D01*
X239112536Y-112880784D01*
X239112535Y-112880789D01*
X239109494Y-112892635D01*
X239103193Y-112911039D01*
X239098330Y-112922276D01*
X239098328Y-112922280D01*
X239095234Y-112929432D01*
X239094014Y-112937131D01*
X239094014Y-112937133D01*
X239088401Y-112972569D01*
X239086033Y-112984004D01*
X239077110Y-113018756D01*
X239077108Y-113018764D01*
X239075172Y-113026309D01*
X239075172Y-113034105D01*
X239075172Y-113046345D01*
X239073646Y-113065730D01*
X239070512Y-113085524D01*
X239071246Y-113093289D01*
X239071246Y-113093292D01*
X239074622Y-113129004D01*
X239075172Y-113140673D01*
X239075172Y-113447234D01*
X239065733Y-113494687D01*
X239038853Y-113534915D01*
X237070586Y-115503181D01*
X237030358Y-115530061D01*
X236982905Y-115539500D01*
X233924775Y-115539500D01*
X233913719Y-115538978D01*
X233906333Y-115537327D01*
X233898545Y-115537571D01*
X233898538Y-115537571D01*
X233839113Y-115539439D01*
X233835219Y-115539500D01*
X233807650Y-115539500D01*
X233803794Y-115539986D01*
X233803791Y-115539987D01*
X233803735Y-115539994D01*
X233803662Y-115540003D01*
X233792044Y-115540917D01*
X233756165Y-115542045D01*
X233756164Y-115542045D01*
X233748373Y-115542290D01*
X233740888Y-115544464D01*
X233740884Y-115544465D01*
X233729125Y-115547881D01*
X233710087Y-115551823D01*
X233697949Y-115553357D01*
X233697941Y-115553358D01*
X233690208Y-115554336D01*
X233682960Y-115557205D01*
X233682954Y-115557207D01*
X233649597Y-115570413D01*
X233638554Y-115574194D01*
X233604100Y-115584205D01*
X233604094Y-115584207D01*
X233596610Y-115586382D01*
X233589898Y-115590351D01*
X233589896Y-115590352D01*
X233579364Y-115596580D01*
X233561904Y-115605134D01*
X233550519Y-115609642D01*
X233550513Y-115609644D01*
X233543268Y-115612514D01*
X233536963Y-115617094D01*
X233536955Y-115617099D01*
X233507932Y-115638185D01*
X233498174Y-115644595D01*
X233467296Y-115662857D01*
X233467290Y-115662861D01*
X233460580Y-115666830D01*
X233455067Y-115672341D01*
X233455060Y-115672348D01*
X233446410Y-115680998D01*
X233431627Y-115693624D01*
X233421726Y-115700817D01*
X233421716Y-115700826D01*
X233415413Y-115705406D01*
X233410444Y-115711411D01*
X233410441Y-115711415D01*
X233387572Y-115739059D01*
X233379711Y-115747697D01*
X233247180Y-115880228D01*
X233197818Y-115910478D01*
X233140102Y-115915020D01*
X233086615Y-115892865D01*
X233049015Y-115848842D01*
X233035500Y-115792547D01*
X233035500Y-114631775D01*
X233036021Y-114620719D01*
X233037673Y-114613333D01*
X233035561Y-114546113D01*
X233035500Y-114542219D01*
X233035500Y-114518542D01*
X233035500Y-114514650D01*
X233034998Y-114510683D01*
X233034081Y-114499026D01*
X233033973Y-114495579D01*
X233032710Y-114455373D01*
X233027118Y-114436128D01*
X233023174Y-114417083D01*
X233020664Y-114397208D01*
X233004579Y-114356583D01*
X233000806Y-114345562D01*
X232988618Y-114303610D01*
X232984646Y-114296895D01*
X232984645Y-114296891D01*
X232978420Y-114286366D01*
X232969859Y-114268892D01*
X232962486Y-114250268D01*
X232936808Y-114214926D01*
X232930405Y-114205176D01*
X232912143Y-114174296D01*
X232912142Y-114174294D01*
X232908171Y-114167580D01*
X232894006Y-114153415D01*
X232881368Y-114138618D01*
X232874184Y-114128729D01*
X232874178Y-114128723D01*
X232869594Y-114122413D01*
X232835946Y-114094577D01*
X232827305Y-114086714D01*
X230731779Y-111991188D01*
X230724335Y-111983007D01*
X230720279Y-111976616D01*
X230671268Y-111930591D01*
X230668471Y-111927880D01*
X230651720Y-111911129D01*
X230648964Y-111908373D01*
X230645783Y-111905905D01*
X230636907Y-111898323D01*
X230610762Y-111873771D01*
X230610760Y-111873769D01*
X230605075Y-111868431D01*
X230598242Y-111864675D01*
X230598236Y-111864670D01*
X230587518Y-111858778D01*
X230571259Y-111848099D01*
X230561588Y-111840597D01*
X230561585Y-111840595D01*
X230555429Y-111835820D01*
X230548272Y-111832722D01*
X230548269Y-111832721D01*
X230515342Y-111818471D01*
X230504857Y-111813335D01*
X230475440Y-111797164D01*
X230428842Y-111752293D01*
X230411184Y-111690060D01*
X230427270Y-111627403D01*
X230472724Y-111581374D01*
X230535174Y-111564500D01*
X232291672Y-111564500D01*
X232353672Y-111581113D01*
G37*
%TD.AperFunction*%
%TA.AperFunction,Conductor*%
G36*
X216232508Y-112792809D02*
G01*
X216283729Y-112823647D01*
X218318367Y-114858286D01*
X218349580Y-114910749D01*
X218351976Y-114971748D01*
X218324977Y-115026498D01*
X218275124Y-115061731D01*
X218214501Y-115068906D01*
X218185053Y-115065029D01*
X218185049Y-115065028D01*
X218181033Y-115064500D01*
X218176979Y-115064500D01*
X217846366Y-115064500D01*
X217846350Y-115064500D01*
X217842312Y-115064501D01*
X217838298Y-115065029D01*
X217838289Y-115065030D01*
X217732968Y-115078895D01*
X217732966Y-115078895D01*
X217724910Y-115079956D01*
X217717410Y-115083062D01*
X217717401Y-115083065D01*
X217586338Y-115137354D01*
X217586334Y-115137355D01*
X217578831Y-115140464D01*
X217572386Y-115145408D01*
X217572383Y-115145411D01*
X217459836Y-115231771D01*
X217459832Y-115231774D01*
X217453390Y-115236718D01*
X217448446Y-115243160D01*
X217448443Y-115243164D01*
X217362083Y-115355711D01*
X217362080Y-115355714D01*
X217357136Y-115362159D01*
X217354027Y-115369662D01*
X217354026Y-115369666D01*
X217337567Y-115409402D01*
X217303380Y-115491939D01*
X217297989Y-115504953D01*
X217271109Y-115545181D01*
X217230881Y-115572061D01*
X217183428Y-115581500D01*
X215701980Y-115581500D01*
X215654527Y-115572061D01*
X215619929Y-115548943D01*
X215619717Y-115549217D01*
X215615849Y-115546217D01*
X215614299Y-115545181D01*
X215613555Y-115544437D01*
X215613554Y-115544436D01*
X215608037Y-115538919D01*
X215601323Y-115534948D01*
X215601320Y-115534946D01*
X215473285Y-115459227D01*
X215473283Y-115459226D01*
X215466570Y-115455256D01*
X215459077Y-115453079D01*
X215314829Y-115411170D01*
X215314822Y-115411168D01*
X215308741Y-115409402D01*
X215302430Y-115408905D01*
X215302423Y-115408904D01*
X215274300Y-115406691D01*
X215274286Y-115406690D01*
X215271866Y-115406500D01*
X215269421Y-115406500D01*
X214604631Y-115406500D01*
X214542631Y-115389887D01*
X214497244Y-115344500D01*
X214480631Y-115282500D01*
X214480631Y-115090674D01*
X214868672Y-115090674D01*
X214872122Y-115103549D01*
X214884998Y-115107000D01*
X215269369Y-115107000D01*
X215274248Y-115106808D01*
X215302345Y-115104597D01*
X215314751Y-115102331D01*
X215458877Y-115060458D01*
X215473084Y-115054310D01*
X215601010Y-114978655D01*
X215613246Y-114969164D01*
X215718336Y-114864074D01*
X215727827Y-114851838D01*
X215803482Y-114723912D01*
X215809630Y-114709705D01*
X215850864Y-114567776D01*
X215849458Y-114560706D01*
X215836316Y-114557000D01*
X214884998Y-114557000D01*
X214872122Y-114560450D01*
X214868672Y-114573326D01*
X214868672Y-115090674D01*
X214480631Y-115090674D01*
X214480631Y-114959772D01*
X214481151Y-114948719D01*
X214482803Y-114941333D01*
X214480692Y-114874145D01*
X214480631Y-114870251D01*
X214480631Y-114846545D01*
X214480631Y-114842650D01*
X214480129Y-114838681D01*
X214479211Y-114827024D01*
X214478773Y-114813090D01*
X214477840Y-114783373D01*
X214472251Y-114764140D01*
X214468305Y-114745083D01*
X214466772Y-114732944D01*
X214465795Y-114725208D01*
X214449713Y-114684591D01*
X214445934Y-114673551D01*
X214435926Y-114639102D01*
X214435924Y-114639099D01*
X214433749Y-114631610D01*
X214429778Y-114624896D01*
X214429776Y-114624891D01*
X214423552Y-114614368D01*
X214414989Y-114596890D01*
X214407617Y-114578268D01*
X214392353Y-114557259D01*
X214374741Y-114522692D01*
X214368672Y-114484374D01*
X214368672Y-114181000D01*
X214385285Y-114119000D01*
X214430672Y-114073613D01*
X214492672Y-114057000D01*
X215836316Y-114057000D01*
X215849458Y-114053293D01*
X215850864Y-114046223D01*
X215809630Y-113904294D01*
X215803482Y-113890087D01*
X215727827Y-113762161D01*
X215718336Y-113749925D01*
X215613246Y-113644835D01*
X215601010Y-113635344D01*
X215473084Y-113559689D01*
X215458877Y-113553541D01*
X215314751Y-113511668D01*
X215302779Y-113509482D01*
X215247655Y-113484373D01*
X215211001Y-113436148D01*
X215201566Y-113376314D01*
X215221599Y-113319149D01*
X215266321Y-113278295D01*
X215325060Y-113263500D01*
X215539921Y-113263500D01*
X215542366Y-113263500D01*
X215579241Y-113260598D01*
X215737070Y-113214744D01*
X215878537Y-113131081D01*
X215994753Y-113014865D01*
X216078416Y-112873398D01*
X216080594Y-112865900D01*
X216082245Y-112862086D01*
X216118515Y-112814557D01*
X216172810Y-112789525D01*
X216232508Y-112792809D01*
G37*
%TD.AperFunction*%
%TA.AperFunction,Conductor*%
G36*
X220686775Y-113279392D02*
G01*
X220720026Y-113334296D01*
X220739926Y-113402791D01*
X220748092Y-113430898D01*
X220752062Y-113437611D01*
X220752063Y-113437613D01*
X220827785Y-113565653D01*
X220827787Y-113565655D01*
X220831755Y-113572365D01*
X220837269Y-113577879D01*
X220838525Y-113579498D01*
X220861560Y-113628447D01*
X220861561Y-113682545D01*
X220838529Y-113731496D01*
X220837266Y-113733123D01*
X220831755Y-113738635D01*
X220827788Y-113745342D01*
X220827784Y-113745348D01*
X220752063Y-113873386D01*
X220752060Y-113873391D01*
X220748092Y-113880102D01*
X220745916Y-113887591D01*
X220745915Y-113887594D01*
X220704006Y-114031842D01*
X220704004Y-114031851D01*
X220702238Y-114037931D01*
X220701741Y-114044239D01*
X220701740Y-114044248D01*
X220699527Y-114072371D01*
X220699526Y-114072386D01*
X220699336Y-114074806D01*
X220699336Y-114077251D01*
X220699336Y-114408711D01*
X220685821Y-114465006D01*
X220648221Y-114509029D01*
X220594734Y-114531184D01*
X220537018Y-114526642D01*
X220487655Y-114496392D01*
X220460958Y-114469695D01*
X220453514Y-114461514D01*
X220449458Y-114455123D01*
X220400447Y-114409098D01*
X220397650Y-114406387D01*
X220380899Y-114389636D01*
X220378143Y-114386880D01*
X220374962Y-114384412D01*
X220366086Y-114376830D01*
X220339941Y-114352278D01*
X220339939Y-114352276D01*
X220334254Y-114346938D01*
X220327421Y-114343182D01*
X220327415Y-114343177D01*
X220316697Y-114337285D01*
X220300438Y-114326606D01*
X220290767Y-114319104D01*
X220290764Y-114319102D01*
X220284608Y-114314327D01*
X220277451Y-114311229D01*
X220277448Y-114311228D01*
X220244521Y-114296978D01*
X220234035Y-114291841D01*
X220202604Y-114274562D01*
X220202595Y-114274558D01*
X220195764Y-114270803D01*
X220188207Y-114268862D01*
X220188203Y-114268861D01*
X220176360Y-114265820D01*
X220157956Y-114259519D01*
X220146729Y-114254660D01*
X220146722Y-114254658D01*
X220139568Y-114251562D01*
X220131864Y-114250341D01*
X220131862Y-114250341D01*
X220096431Y-114244729D01*
X220084996Y-114242361D01*
X220050243Y-114233438D01*
X220050235Y-114233437D01*
X220042691Y-114231500D01*
X220034895Y-114231500D01*
X220022655Y-114231500D01*
X220003269Y-114229974D01*
X219983476Y-114226840D01*
X219975710Y-114227574D01*
X219975707Y-114227574D01*
X219939996Y-114230950D01*
X219928327Y-114231500D01*
X219512125Y-114231500D01*
X219464672Y-114222061D01*
X219424444Y-114195181D01*
X218704444Y-113475181D01*
X218674194Y-113425818D01*
X218669652Y-113368102D01*
X218691807Y-113314615D01*
X218735830Y-113277015D01*
X218792125Y-113263500D01*
X220489921Y-113263500D01*
X220492366Y-113263500D01*
X220529241Y-113260598D01*
X220566356Y-113249814D01*
X220630527Y-113248470D01*
X220686775Y-113279392D01*
G37*
%TD.AperFunction*%
%TA.AperFunction,Conductor*%
G36*
X223805167Y-112967129D02*
G01*
X223815068Y-112969671D01*
X223833479Y-112975974D01*
X223844704Y-112980832D01*
X223844706Y-112980832D01*
X223851864Y-112983930D01*
X223895018Y-112990764D01*
X223906404Y-112993122D01*
X223948741Y-113003993D01*
X223968777Y-113003993D01*
X223988175Y-113005520D01*
X224000246Y-113007432D01*
X224000247Y-113007432D01*
X224007956Y-113008653D01*
X224046036Y-113005053D01*
X224051436Y-113004543D01*
X224063105Y-113003993D01*
X225525836Y-113003993D01*
X225587836Y-113020606D01*
X225633223Y-113065993D01*
X225649836Y-113127993D01*
X225649836Y-113233697D01*
X225650027Y-113238576D01*
X225652238Y-113266673D01*
X225654504Y-113279079D01*
X225696377Y-113423205D01*
X225702523Y-113437409D01*
X225726457Y-113477878D01*
X225743721Y-113540026D01*
X225727435Y-113602437D01*
X225682006Y-113648224D01*
X225619725Y-113665000D01*
X225607778Y-113665000D01*
X225588392Y-113663474D01*
X225568599Y-113660340D01*
X225560833Y-113661074D01*
X225560830Y-113661074D01*
X225525119Y-113664450D01*
X225513450Y-113665000D01*
X223680528Y-113665000D01*
X223618247Y-113648225D01*
X223572818Y-113602437D01*
X223556532Y-113540027D01*
X223573796Y-113477880D01*
X223597606Y-113437617D01*
X223601580Y-113430898D01*
X223647434Y-113273069D01*
X223650336Y-113236194D01*
X223650336Y-113087235D01*
X223662980Y-113032684D01*
X223698333Y-112989258D01*
X223749185Y-112965812D01*
X223805167Y-112967129D01*
G37*
%TD.AperFunction*%
%TA.AperFunction,Conductor*%
G36*
X217980765Y-108001261D02*
G01*
X217982345Y-107998525D01*
X217989382Y-108002588D01*
X217995831Y-108007536D01*
X218082455Y-108043417D01*
X218119798Y-108058885D01*
X218174167Y-108102676D01*
X218196262Y-108168899D01*
X218181161Y-108228364D01*
X218182460Y-108228926D01*
X218173213Y-108250294D01*
X218131979Y-108392223D01*
X218133385Y-108399293D01*
X218146528Y-108403000D01*
X219173738Y-108403000D01*
X219213905Y-108409686D01*
X219242680Y-108425213D01*
X219242855Y-108424919D01*
X219249570Y-108428890D01*
X219255736Y-108433673D01*
X219295827Y-108451021D01*
X219306307Y-108456155D01*
X219344580Y-108477197D01*
X219363988Y-108482180D01*
X219382391Y-108488481D01*
X219393616Y-108493339D01*
X219393618Y-108493339D01*
X219400776Y-108496437D01*
X219443930Y-108503271D01*
X219455316Y-108505629D01*
X219497653Y-108516500D01*
X219517689Y-108516500D01*
X219537087Y-108518027D01*
X219556868Y-108521160D01*
X219600343Y-108517049D01*
X219612014Y-108516500D01*
X219727672Y-108516500D01*
X219789672Y-108533113D01*
X219835059Y-108578500D01*
X219851672Y-108640500D01*
X219851672Y-108779000D01*
X219835059Y-108841000D01*
X219789672Y-108886387D01*
X219727672Y-108903000D01*
X218146528Y-108903000D01*
X218133385Y-108906706D01*
X218131979Y-108913776D01*
X218173213Y-109055705D01*
X218179361Y-109069912D01*
X218255017Y-109197839D01*
X218265680Y-109211586D01*
X218288715Y-109260536D01*
X218288716Y-109314635D01*
X218265684Y-109363585D01*
X218264103Y-109365622D01*
X218258591Y-109371135D01*
X218254621Y-109377847D01*
X218254620Y-109377849D01*
X218178899Y-109505886D01*
X218178896Y-109505891D01*
X218174928Y-109512602D01*
X218172752Y-109520091D01*
X218172751Y-109520094D01*
X218130842Y-109664342D01*
X218130840Y-109664351D01*
X218129074Y-109670431D01*
X218128577Y-109676739D01*
X218128576Y-109676748D01*
X218126363Y-109704871D01*
X218126362Y-109704886D01*
X218126172Y-109707306D01*
X218126172Y-110138694D01*
X218126362Y-110141114D01*
X218126363Y-110141128D01*
X218128576Y-110169251D01*
X218128577Y-110169258D01*
X218129074Y-110175569D01*
X218130840Y-110181650D01*
X218130842Y-110181657D01*
X218167611Y-110308212D01*
X218174928Y-110333398D01*
X218178898Y-110340111D01*
X218178899Y-110340113D01*
X218254621Y-110468153D01*
X218254623Y-110468155D01*
X218258591Y-110474865D01*
X218264105Y-110480379D01*
X218265361Y-110481998D01*
X218288396Y-110530947D01*
X218288397Y-110585045D01*
X218265365Y-110633996D01*
X218264102Y-110635623D01*
X218258591Y-110641135D01*
X218254624Y-110647842D01*
X218254620Y-110647848D01*
X218178899Y-110775886D01*
X218178896Y-110775891D01*
X218174928Y-110782602D01*
X218172752Y-110790091D01*
X218172751Y-110790094D01*
X218130842Y-110934342D01*
X218130840Y-110934351D01*
X218129074Y-110940431D01*
X218128577Y-110946739D01*
X218128576Y-110946748D01*
X218126363Y-110974871D01*
X218126362Y-110974886D01*
X218126172Y-110977306D01*
X218126172Y-111408694D01*
X218126362Y-111411114D01*
X218126363Y-111411128D01*
X218128576Y-111439251D01*
X218128577Y-111439258D01*
X218129074Y-111445569D01*
X218130840Y-111451650D01*
X218130842Y-111451657D01*
X218168529Y-111581374D01*
X218174928Y-111603398D01*
X218178898Y-111610111D01*
X218178899Y-111610113D01*
X218254621Y-111738153D01*
X218254623Y-111738155D01*
X218258591Y-111744865D01*
X218264105Y-111750379D01*
X218265361Y-111751998D01*
X218288396Y-111800947D01*
X218288397Y-111855045D01*
X218265365Y-111903996D01*
X218264102Y-111905623D01*
X218258591Y-111911135D01*
X218254624Y-111917842D01*
X218254620Y-111917848D01*
X218178899Y-112045886D01*
X218178896Y-112045891D01*
X218174928Y-112052602D01*
X218172752Y-112060091D01*
X218172751Y-112060094D01*
X218130842Y-112204342D01*
X218130840Y-112204351D01*
X218129074Y-112210431D01*
X218128577Y-112216739D01*
X218128576Y-112216748D01*
X218126363Y-112244871D01*
X218126362Y-112244886D01*
X218126172Y-112247306D01*
X218126172Y-112249751D01*
X218126172Y-112597547D01*
X218112657Y-112653842D01*
X218075057Y-112697865D01*
X218021570Y-112720020D01*
X217963854Y-112715478D01*
X217914491Y-112685228D01*
X216219964Y-110990701D01*
X216187870Y-110935114D01*
X216187870Y-110870926D01*
X216219964Y-110815339D01*
X216884121Y-110151182D01*
X217557311Y-109477991D01*
X217565481Y-109470557D01*
X217571877Y-109466499D01*
X217617918Y-109417469D01*
X217620535Y-109414767D01*
X217640120Y-109395184D01*
X217642585Y-109392005D01*
X217650167Y-109383129D01*
X217680062Y-109351295D01*
X217689713Y-109333736D01*
X217700390Y-109317483D01*
X217712673Y-109301649D01*
X217730018Y-109261565D01*
X217735151Y-109251084D01*
X217756197Y-109212805D01*
X217761179Y-109193397D01*
X217767482Y-109174989D01*
X217775437Y-109156609D01*
X217782271Y-109113457D01*
X217784633Y-109102051D01*
X217795500Y-109059732D01*
X217795500Y-109039696D01*
X217797027Y-109020298D01*
X217798939Y-109008226D01*
X217798938Y-109008226D01*
X217800160Y-109000517D01*
X217796145Y-108958043D01*
X217796050Y-108957037D01*
X217795500Y-108945368D01*
X217795500Y-108105264D01*
X217814194Y-108039791D01*
X217864640Y-107994060D01*
X217931627Y-107981858D01*
X217980765Y-108001261D01*
G37*
%TD.AperFunction*%
%TA.AperFunction,Conductor*%
G36*
X237852490Y-101577851D02*
G01*
X237901852Y-101608100D01*
X239289933Y-102996182D01*
X240640049Y-104346298D01*
X240647501Y-104354487D01*
X240651556Y-104360877D01*
X240684017Y-104391360D01*
X240700565Y-104406900D01*
X240703362Y-104409611D01*
X240722871Y-104429120D01*
X240726051Y-104431587D01*
X240734913Y-104439155D01*
X240745581Y-104449174D01*
X240761074Y-104463723D01*
X240761076Y-104463724D01*
X240766760Y-104469062D01*
X240773593Y-104472818D01*
X240773594Y-104472819D01*
X240784315Y-104478713D01*
X240800576Y-104489394D01*
X240816406Y-104501673D01*
X240834344Y-104509435D01*
X240872783Y-104535557D01*
X240964307Y-104627081D01*
X240971021Y-104631052D01*
X240971023Y-104631053D01*
X241023942Y-104662349D01*
X241105774Y-104710744D01*
X241263603Y-104756598D01*
X241300478Y-104759500D01*
X242066672Y-104759500D01*
X242128672Y-104776113D01*
X242174059Y-104821500D01*
X242190672Y-104883500D01*
X242190672Y-105157266D01*
X242190150Y-105168321D01*
X242188499Y-105175708D01*
X242188743Y-105183494D01*
X242188743Y-105183502D01*
X242190611Y-105242914D01*
X242190672Y-105246809D01*
X242190672Y-105274391D01*
X242191160Y-105278260D01*
X242191161Y-105278266D01*
X242191176Y-105278384D01*
X242192090Y-105290007D01*
X242193217Y-105325871D01*
X242193218Y-105325878D01*
X242193463Y-105333668D01*
X242195639Y-105341160D01*
X242195640Y-105341162D01*
X242198748Y-105351860D01*
X242203672Y-105386455D01*
X242203672Y-106642674D01*
X242207122Y-106655549D01*
X242219998Y-106659000D01*
X242604369Y-106659000D01*
X242609248Y-106658808D01*
X242637345Y-106656597D01*
X242649751Y-106654331D01*
X242793877Y-106612458D01*
X242808084Y-106606310D01*
X242936010Y-106530655D01*
X242948246Y-106521164D01*
X242995293Y-106474117D01*
X243050881Y-106442022D01*
X243115068Y-106442022D01*
X243170656Y-106474116D01*
X243597673Y-106901133D01*
X243627923Y-106950496D01*
X243632465Y-107008212D01*
X243610310Y-107061699D01*
X243566287Y-107099299D01*
X243509992Y-107112814D01*
X240701480Y-107112814D01*
X240654027Y-107103375D01*
X240613799Y-107076495D01*
X239657080Y-106119776D01*
X240721479Y-106119776D01*
X240762713Y-106261705D01*
X240768861Y-106275912D01*
X240844516Y-106403838D01*
X240854007Y-106416074D01*
X240959097Y-106521164D01*
X240971333Y-106530655D01*
X241099259Y-106606310D01*
X241113466Y-106612458D01*
X241257592Y-106654331D01*
X241269998Y-106656597D01*
X241298095Y-106658808D01*
X241302975Y-106659000D01*
X241687346Y-106659000D01*
X241700221Y-106655549D01*
X241703672Y-106642674D01*
X241703672Y-106125326D01*
X241700221Y-106112450D01*
X241687346Y-106109000D01*
X240736028Y-106109000D01*
X240722885Y-106112706D01*
X240721479Y-106119776D01*
X239657080Y-106119776D01*
X239135527Y-105598223D01*
X240721479Y-105598223D01*
X240722885Y-105605293D01*
X240736028Y-105609000D01*
X241687346Y-105609000D01*
X241700221Y-105605549D01*
X241703672Y-105592674D01*
X241703672Y-105075326D01*
X241700221Y-105062450D01*
X241687346Y-105059000D01*
X241302975Y-105059000D01*
X241298095Y-105059191D01*
X241269998Y-105061402D01*
X241257592Y-105063668D01*
X241113466Y-105105541D01*
X241099259Y-105111689D01*
X240971333Y-105187344D01*
X240959097Y-105196835D01*
X240854007Y-105301925D01*
X240844516Y-105314161D01*
X240768861Y-105442087D01*
X240762713Y-105456294D01*
X240721479Y-105598223D01*
X239135527Y-105598223D01*
X237726491Y-104189187D01*
X237699611Y-104148959D01*
X237690172Y-104101506D01*
X237690172Y-101695782D01*
X237703687Y-101639487D01*
X237741287Y-101595464D01*
X237794774Y-101573309D01*
X237852490Y-101577851D01*
G37*
%TD.AperFunction*%
%TA.AperFunction,Conductor*%
G36*
X228370876Y-99313749D02*
G01*
X228421475Y-99344393D01*
X229346095Y-100269014D01*
X230247706Y-101170625D01*
X230274586Y-101210853D01*
X230284025Y-101258306D01*
X230284025Y-102078000D01*
X230284491Y-102081776D01*
X230284492Y-102081788D01*
X230297643Y-102188291D01*
X230299211Y-102200990D01*
X230299701Y-102202260D01*
X230302073Y-102245044D01*
X230295268Y-102295178D01*
X230273779Y-102349895D01*
X230229505Y-102388566D01*
X230172395Y-102402500D01*
X227221537Y-102402500D01*
X227210481Y-102401978D01*
X227203095Y-102400327D01*
X227195307Y-102400571D01*
X227195300Y-102400571D01*
X227135875Y-102402439D01*
X227131981Y-102402500D01*
X227104412Y-102402500D01*
X227100556Y-102402986D01*
X227100553Y-102402987D01*
X227100497Y-102402994D01*
X227100424Y-102403003D01*
X227088806Y-102403917D01*
X227052927Y-102405045D01*
X227052926Y-102405045D01*
X227045135Y-102405290D01*
X227037650Y-102407464D01*
X227037646Y-102407465D01*
X227025887Y-102410881D01*
X227006849Y-102414823D01*
X226994711Y-102416357D01*
X226994703Y-102416358D01*
X226986970Y-102417336D01*
X226979722Y-102420205D01*
X226979716Y-102420207D01*
X226946359Y-102433413D01*
X226935316Y-102437194D01*
X226900858Y-102447206D01*
X226900851Y-102447208D01*
X226893372Y-102449382D01*
X226886667Y-102453347D01*
X226886658Y-102453351D01*
X226876118Y-102459584D01*
X226858655Y-102468139D01*
X226847284Y-102472641D01*
X226847278Y-102472643D01*
X226840030Y-102475514D01*
X226833725Y-102480094D01*
X226833715Y-102480100D01*
X226804696Y-102501183D01*
X226794940Y-102507592D01*
X226764055Y-102525858D01*
X226764050Y-102525861D01*
X226757342Y-102529829D01*
X226751829Y-102535340D01*
X226751822Y-102535347D01*
X226743169Y-102544000D01*
X226728386Y-102556626D01*
X226718489Y-102563817D01*
X226718482Y-102563823D01*
X226712175Y-102568406D01*
X226707208Y-102574408D01*
X226707197Y-102574420D01*
X226684332Y-102602059D01*
X226676472Y-102610697D01*
X225264853Y-104022318D01*
X225215490Y-104052568D01*
X225157774Y-104057110D01*
X225104287Y-104034955D01*
X225066687Y-103990932D01*
X225053172Y-103934637D01*
X225053172Y-103763687D01*
X225061408Y-103719249D01*
X225085022Y-103680715D01*
X225097925Y-103666385D01*
X225160205Y-103597216D01*
X225254851Y-103433284D01*
X225313346Y-103253256D01*
X225333132Y-103065000D01*
X225313346Y-102876744D01*
X225254851Y-102696716D01*
X225160205Y-102532784D01*
X225042841Y-102402439D01*
X225037892Y-102396942D01*
X225037891Y-102396941D01*
X225033543Y-102392112D01*
X225028285Y-102388292D01*
X225028283Y-102388290D01*
X224885660Y-102284669D01*
X224885659Y-102284668D01*
X224880402Y-102280849D01*
X224874464Y-102278205D01*
X224713417Y-102206501D01*
X224713412Y-102206499D01*
X224707475Y-102203856D01*
X224701116Y-102202504D01*
X224701112Y-102202503D01*
X224528680Y-102165852D01*
X224528677Y-102165851D01*
X224522318Y-102164500D01*
X224333026Y-102164500D01*
X224326667Y-102165851D01*
X224326663Y-102165852D01*
X224154231Y-102202503D01*
X224154224Y-102202505D01*
X224147869Y-102203856D01*
X224141934Y-102206498D01*
X224141926Y-102206501D01*
X223980879Y-102278205D01*
X223980874Y-102278207D01*
X223974942Y-102280849D01*
X223969688Y-102284665D01*
X223969683Y-102284669D01*
X223827060Y-102388290D01*
X223827053Y-102388295D01*
X223821801Y-102392112D01*
X223817456Y-102396937D01*
X223817451Y-102396942D01*
X223699485Y-102527956D01*
X223699480Y-102527962D01*
X223695139Y-102532784D01*
X223691894Y-102538404D01*
X223691890Y-102538410D01*
X223603741Y-102691089D01*
X223603738Y-102691094D01*
X223600493Y-102696716D01*
X223598487Y-102702888D01*
X223598485Y-102702894D01*
X223544005Y-102870564D01*
X223544003Y-102870573D01*
X223541998Y-102876744D01*
X223541320Y-102883194D01*
X223541318Y-102883204D01*
X223525655Y-103032238D01*
X223522212Y-103065000D01*
X223522891Y-103071460D01*
X223541318Y-103246795D01*
X223541319Y-103246803D01*
X223541998Y-103253256D01*
X223544003Y-103259428D01*
X223544005Y-103259435D01*
X223598485Y-103427105D01*
X223600493Y-103433284D01*
X223603740Y-103438908D01*
X223603741Y-103438910D01*
X223674229Y-103561000D01*
X223695139Y-103597216D01*
X223699483Y-103602041D01*
X223699485Y-103602043D01*
X223770322Y-103680715D01*
X223793936Y-103719249D01*
X223802172Y-103763687D01*
X223802172Y-104024548D01*
X223792733Y-104072001D01*
X223765853Y-104112229D01*
X221576853Y-106301228D01*
X221527490Y-106331478D01*
X221469774Y-106336020D01*
X221416287Y-106313865D01*
X221378687Y-106269842D01*
X221365172Y-106213547D01*
X221365172Y-103761452D01*
X221374611Y-103713999D01*
X221401491Y-103673771D01*
X222599748Y-102475514D01*
X223801088Y-101274174D01*
X223852303Y-101243340D01*
X223911998Y-101240054D01*
X223966292Y-101265082D01*
X224002564Y-101312607D01*
X224004858Y-101317907D01*
X224080516Y-101445838D01*
X224090007Y-101458074D01*
X224195097Y-101563164D01*
X224207333Y-101572655D01*
X224335259Y-101648310D01*
X224349466Y-101654458D01*
X224493592Y-101696331D01*
X224505998Y-101698597D01*
X224534095Y-101700808D01*
X224538975Y-101701000D01*
X224923346Y-101701000D01*
X224936221Y-101697549D01*
X224939672Y-101684674D01*
X225439672Y-101684674D01*
X225443122Y-101697549D01*
X225455998Y-101701000D01*
X225840369Y-101701000D01*
X225845248Y-101700808D01*
X225873345Y-101698597D01*
X225885751Y-101696331D01*
X226029877Y-101654458D01*
X226044084Y-101648310D01*
X226172010Y-101572655D01*
X226184246Y-101563164D01*
X226289336Y-101458074D01*
X226298827Y-101445838D01*
X226374482Y-101317912D01*
X226380630Y-101303705D01*
X226421864Y-101161776D01*
X226420458Y-101154706D01*
X226407316Y-101151000D01*
X225455998Y-101151000D01*
X225443122Y-101154450D01*
X225439672Y-101167326D01*
X225439672Y-101684674D01*
X224939672Y-101684674D01*
X224939672Y-100186953D01*
X224949111Y-100139500D01*
X224975991Y-100099272D01*
X225237444Y-99837819D01*
X225277672Y-99810939D01*
X225325125Y-99801500D01*
X225702672Y-99801500D01*
X225764672Y-99818113D01*
X225810059Y-99863500D01*
X225826672Y-99925500D01*
X225826672Y-99977000D01*
X225810059Y-100039000D01*
X225764672Y-100084387D01*
X225702672Y-100101000D01*
X225455998Y-100101000D01*
X225443122Y-100104450D01*
X225439672Y-100117326D01*
X225439672Y-100634674D01*
X225443122Y-100647549D01*
X225455998Y-100651000D01*
X226095357Y-100651000D01*
X226158478Y-100668268D01*
X226216774Y-100702744D01*
X226374603Y-100748598D01*
X226411478Y-100751500D01*
X227715421Y-100751500D01*
X227717866Y-100751500D01*
X227754741Y-100748598D01*
X227912570Y-100702744D01*
X228054037Y-100619081D01*
X228170253Y-100502865D01*
X228253916Y-100361398D01*
X228299770Y-100203569D01*
X228302672Y-100166694D01*
X228302672Y-99735306D01*
X228299770Y-99698431D01*
X228253916Y-99540602D01*
X228227062Y-99495195D01*
X228209965Y-99438565D01*
X228221050Y-99380456D01*
X228257795Y-99334096D01*
X228311837Y-99310035D01*
X228370876Y-99313749D01*
G37*
%TD.AperFunction*%
%TD*%
M02*
