%TF.GenerationSoftware,KiCad,Pcbnew,(7.0.0-0)*%
%TF.CreationDate,2024-03-24T23:26:04+02:00*%
%TF.ProjectId,MicroMouse Sensor ,4d696372-6f4d-46f7-9573-652053656e73,rev?*%
%TF.SameCoordinates,Original*%
%TF.FileFunction,Paste,Top*%
%TF.FilePolarity,Positive*%
%FSLAX46Y46*%
G04 Gerber Fmt 4.6, Leading zero omitted, Abs format (unit mm)*
G04 Created by KiCad (PCBNEW (7.0.0-0)) date 2024-03-24 23:26:04*
%MOMM*%
%LPD*%
G01*
G04 APERTURE LIST*
G04 Aperture macros list*
%AMRoundRect*
0 Rectangle with rounded corners*
0 $1 Rounding radius*
0 $2 $3 $4 $5 $6 $7 $8 $9 X,Y pos of 4 corners*
0 Add a 4 corners polygon primitive as box body*
4,1,4,$2,$3,$4,$5,$6,$7,$8,$9,$2,$3,0*
0 Add four circle primitives for the rounded corners*
1,1,$1+$1,$2,$3*
1,1,$1+$1,$4,$5*
1,1,$1+$1,$6,$7*
1,1,$1+$1,$8,$9*
0 Add four rect primitives between the rounded corners*
20,1,$1+$1,$2,$3,$4,$5,0*
20,1,$1+$1,$4,$5,$6,$7,0*
20,1,$1+$1,$6,$7,$8,$9,0*
20,1,$1+$1,$8,$9,$2,$3,0*%
G04 Aperture macros list end*
%ADD10RoundRect,0.079500X0.100500X-0.079500X0.100500X0.079500X-0.100500X0.079500X-0.100500X-0.079500X0*%
%ADD11RoundRect,0.079500X0.079500X0.100500X-0.079500X0.100500X-0.079500X-0.100500X0.079500X-0.100500X0*%
%ADD12RoundRect,0.150000X0.587500X0.150000X-0.587500X0.150000X-0.587500X-0.150000X0.587500X-0.150000X0*%
%ADD13RoundRect,0.150000X0.825000X0.150000X-0.825000X0.150000X-0.825000X-0.150000X0.825000X-0.150000X0*%
%ADD14RoundRect,0.150000X-0.587500X-0.150000X0.587500X-0.150000X0.587500X0.150000X-0.587500X0.150000X0*%
%ADD15RoundRect,0.079500X-0.100500X0.079500X-0.100500X-0.079500X0.100500X-0.079500X0.100500X0.079500X0*%
%ADD16RoundRect,0.150000X-0.825000X-0.150000X0.825000X-0.150000X0.825000X0.150000X-0.825000X0.150000X0*%
%ADD17RoundRect,0.079500X-0.079500X-0.100500X0.079500X-0.100500X0.079500X0.100500X-0.079500X0.100500X0*%
G04 APERTURE END LIST*
D10*
%TO.C,R9*%
X240175672Y-114169000D03*
X240175672Y-113479000D03*
%TD*%
D11*
%TO.C,R3*%
X236873672Y-96461000D03*
X236183672Y-96461000D03*
%TD*%
D12*
%TO.C,Q6*%
X214267672Y-93027000D03*
X214267672Y-91127000D03*
X212392672Y-92077000D03*
%TD*%
D13*
%TO.C,U3*%
X227124836Y-116830500D03*
X227124836Y-115560500D03*
X227124836Y-114290500D03*
X227124836Y-113020500D03*
X222174836Y-113020500D03*
X222174836Y-114290500D03*
X222174836Y-115560500D03*
X222174836Y-116830500D03*
%TD*%
D11*
%TO.C,R5*%
X218676672Y-115765000D03*
X217986672Y-115765000D03*
%TD*%
D12*
%TO.C,Q2*%
X236619672Y-92905000D03*
X238494672Y-91955000D03*
X238494672Y-93855000D03*
%TD*%
D14*
%TO.C,Q5*%
X245860672Y-114777459D03*
X243985672Y-115727459D03*
X243985672Y-113827459D03*
%TD*%
D13*
%TO.C,U1*%
X219601672Y-112463000D03*
X219601672Y-111193000D03*
X219601672Y-109923000D03*
X219601672Y-108653000D03*
X214651672Y-108653000D03*
X214651672Y-109923000D03*
X214651672Y-111193000D03*
X214651672Y-112463000D03*
%TD*%
D11*
%TO.C,R6*%
X209852672Y-93413000D03*
X209162672Y-93413000D03*
%TD*%
%TO.C,R2*%
X238234672Y-100271000D03*
X237544672Y-100271000D03*
%TD*%
D12*
%TO.C,Q3*%
X212743672Y-115257000D03*
X214618672Y-114307000D03*
X214618672Y-116207000D03*
%TD*%
D11*
%TO.C,R1*%
X240912672Y-96715000D03*
X241602672Y-96715000D03*
%TD*%
D15*
%TO.C,R10*%
X246525672Y-103984000D03*
X246525672Y-103294000D03*
%TD*%
D14*
%TO.C,Q1*%
X241953672Y-103959000D03*
X241953672Y-105859000D03*
X243828672Y-104909000D03*
%TD*%
D11*
%TO.C,R11*%
X219093672Y-107383000D03*
X218403672Y-107383000D03*
%TD*%
D10*
%TO.C,R4*%
X233363672Y-93504000D03*
X233363672Y-92814000D03*
%TD*%
D11*
%TO.C,R7*%
X220714672Y-107383000D03*
X221404672Y-107383000D03*
%TD*%
D16*
%TO.C,U2*%
X233890672Y-107764000D03*
X233890672Y-109034000D03*
X233890672Y-110304000D03*
X233890672Y-111574000D03*
X238840672Y-111574000D03*
X238840672Y-110304000D03*
X238840672Y-109034000D03*
X238840672Y-107764000D03*
%TD*%
D17*
%TO.C,R8*%
X216117672Y-94429000D03*
X216807672Y-94429000D03*
%TD*%
%TO.C,R12*%
X213922672Y-103573000D03*
X214612672Y-103573000D03*
%TD*%
D14*
%TO.C,Q4*%
X225189672Y-99001000D03*
X225189672Y-100901000D03*
X227064672Y-99951000D03*
%TD*%
M02*
