%TF.GenerationSoftware,KiCad,Pcbnew,(7.0.0-0)*%
%TF.CreationDate,2024-03-24T23:26:04+02:00*%
%TF.ProjectId,MicroMouse Sensor ,4d696372-6f4d-46f7-9573-652053656e73,rev?*%
%TF.SameCoordinates,Original*%
%TF.FileFunction,Soldermask,Top*%
%TF.FilePolarity,Negative*%
%FSLAX46Y46*%
G04 Gerber Fmt 4.6, Leading zero omitted, Abs format (unit mm)*
G04 Created by KiCad (PCBNEW (7.0.0-0)) date 2024-03-24 23:26:04*
%MOMM*%
%LPD*%
G01*
G04 APERTURE LIST*
G04 Aperture macros list*
%AMRoundRect*
0 Rectangle with rounded corners*
0 $1 Rounding radius*
0 $2 $3 $4 $5 $6 $7 $8 $9 X,Y pos of 4 corners*
0 Add a 4 corners polygon primitive as box body*
4,1,4,$2,$3,$4,$5,$6,$7,$8,$9,$2,$3,0*
0 Add four circle primitives for the rounded corners*
1,1,$1+$1,$2,$3*
1,1,$1+$1,$4,$5*
1,1,$1+$1,$6,$7*
1,1,$1+$1,$8,$9*
0 Add four rect primitives between the rounded corners*
20,1,$1+$1,$2,$3,$4,$5,0*
20,1,$1+$1,$4,$5,$6,$7,0*
20,1,$1+$1,$6,$7,$8,$9,0*
20,1,$1+$1,$8,$9,$2,$3,0*%
%AMFreePoly0*
4,1,6,1.000000,0.000000,0.500000,-0.750000,-0.500000,-0.750000,-0.500000,0.750000,0.500000,0.750000,1.000000,0.000000,1.000000,0.000000,$1*%
%AMFreePoly1*
4,1,6,0.500000,-0.750000,-0.650000,-0.750000,-0.150000,0.000000,-0.650000,0.750000,0.500000,0.750000,0.500000,-0.750000,0.500000,-0.750000,$1*%
G04 Aperture macros list end*
%ADD10C,1.454000*%
%ADD11RoundRect,0.102000X0.625000X-0.625000X0.625000X0.625000X-0.625000X0.625000X-0.625000X-0.625000X0*%
%ADD12RoundRect,0.102000X0.625000X0.625000X-0.625000X0.625000X-0.625000X-0.625000X0.625000X-0.625000X0*%
%ADD13RoundRect,0.102000X-0.625000X0.625000X-0.625000X-0.625000X0.625000X-0.625000X0.625000X0.625000X0*%
%ADD14RoundRect,0.100000X0.100000X-0.130000X0.100000X0.130000X-0.100000X0.130000X-0.100000X-0.130000X0*%
%ADD15R,1.000000X1.000000*%
%ADD16RoundRect,0.100000X0.130000X0.100000X-0.130000X0.100000X-0.130000X-0.100000X0.130000X-0.100000X0*%
%ADD17FreePoly0,180.000000*%
%ADD18FreePoly1,180.000000*%
%ADD19RoundRect,0.150000X0.587500X0.150000X-0.587500X0.150000X-0.587500X-0.150000X0.587500X-0.150000X0*%
%ADD20FreePoly0,270.000000*%
%ADD21FreePoly1,270.000000*%
%ADD22RoundRect,0.150000X0.825000X0.150000X-0.825000X0.150000X-0.825000X-0.150000X0.825000X-0.150000X0*%
%ADD23R,1.800000X1.800000*%
%ADD24C,1.800000*%
%ADD25RoundRect,0.150000X-0.587500X-0.150000X0.587500X-0.150000X0.587500X0.150000X-0.587500X0.150000X0*%
%ADD26RoundRect,0.100000X-0.100000X0.130000X-0.100000X-0.130000X0.100000X-0.130000X0.100000X0.130000X0*%
%ADD27FreePoly0,90.000000*%
%ADD28FreePoly1,90.000000*%
%ADD29RoundRect,0.150000X-0.825000X-0.150000X0.825000X-0.150000X0.825000X0.150000X-0.825000X0.150000X0*%
%ADD30RoundRect,0.100000X-0.130000X-0.100000X0.130000X-0.100000X0.130000X0.100000X-0.130000X0.100000X0*%
%ADD31R,1.700000X1.700000*%
%ADD32O,1.700000X1.700000*%
G04 APERTURE END LIST*
D10*
%TO.C,D6_Right1*%
X247650000Y-97068000D03*
D11*
X247650000Y-99568000D03*
%TD*%
D12*
%TO.C,D6_Front1*%
X224314172Y-91897000D03*
D10*
X221814172Y-91897000D03*
%TD*%
D13*
%TO.C,D6_Left1*%
X204615672Y-91167000D03*
D10*
X204615672Y-93667000D03*
%TD*%
D14*
%TO.C,R9*%
X240175672Y-114144000D03*
X240175672Y-113504000D03*
%TD*%
D15*
%TO.C,TP6*%
X209695671Y-90872999D03*
%TD*%
D16*
%TO.C,R3*%
X236848672Y-96461000D03*
X236208672Y-96461000D03*
%TD*%
D17*
%TO.C,JP6*%
X211399672Y-102811000D03*
D18*
X209949672Y-102811000D03*
%TD*%
D19*
%TO.C,Q6*%
X214267672Y-93027000D03*
X214267672Y-91127000D03*
X212392672Y-92077000D03*
%TD*%
D20*
%TO.C,JP18LO1*%
X226205672Y-105605000D03*
D21*
X226205672Y-107055000D03*
%TD*%
D22*
%TO.C,U3*%
X227124836Y-116830500D03*
X227124836Y-115560500D03*
X227124836Y-114290500D03*
X227124836Y-113020500D03*
X222174836Y-113020500D03*
X222174836Y-114290500D03*
X222174836Y-115560500D03*
X222174836Y-116830500D03*
%TD*%
D23*
%TO.C,D3_Left1*%
X209218671Y-96734999D03*
D24*
X209218672Y-99275000D03*
%TD*%
D16*
%TO.C,R5*%
X218651672Y-115765000D03*
X218011672Y-115765000D03*
%TD*%
D20*
%TO.C,JP17FO1*%
X211981672Y-109960000D03*
D21*
X211981672Y-111410000D03*
%TD*%
D19*
%TO.C,Q2*%
X236619672Y-92905000D03*
X238494672Y-91955000D03*
X238494672Y-93855000D03*
%TD*%
D15*
%TO.C,TP4*%
X222903671Y-99254999D03*
%TD*%
D17*
%TO.C,JP11*%
X213468672Y-106113000D03*
D18*
X212018672Y-106113000D03*
%TD*%
D25*
%TO.C,Q5*%
X245860672Y-114777459D03*
X243985672Y-115727459D03*
X243985672Y-113827459D03*
%TD*%
D22*
%TO.C,U1*%
X219601672Y-112463000D03*
X219601672Y-111193000D03*
X219601672Y-109923000D03*
X219601672Y-108653000D03*
X214651672Y-108653000D03*
X214651672Y-109923000D03*
X214651672Y-111193000D03*
X214651672Y-112463000D03*
%TD*%
D17*
%TO.C,JP3*%
X249573672Y-110939000D03*
D18*
X248123672Y-110939000D03*
%TD*%
D15*
%TO.C,TP2*%
X204215999Y-119633999D03*
%TD*%
D20*
%TO.C,JP16RO1*%
X226459672Y-109415000D03*
D21*
X226459672Y-110865000D03*
%TD*%
D16*
%TO.C,R6*%
X209827672Y-93413000D03*
X209187672Y-93413000D03*
%TD*%
D15*
%TO.C,TP3*%
X234841671Y-99000999D03*
%TD*%
D16*
%TO.C,R2*%
X238209672Y-100271000D03*
X237569672Y-100271000D03*
%TD*%
D19*
%TO.C,Q3*%
X212743672Y-115257000D03*
X214618672Y-114307000D03*
X214618672Y-116207000D03*
%TD*%
D23*
%TO.C,D1_Front1*%
X230015671Y-96968999D03*
D24*
X227475672Y-96969000D03*
%TD*%
D20*
%TO.C,JP15*%
X214521672Y-98313000D03*
D21*
X214521672Y-99763000D03*
%TD*%
D16*
%TO.C,R1*%
X240937672Y-96715000D03*
X241577672Y-96715000D03*
%TD*%
D26*
%TO.C,R10*%
X246525672Y-103959000D03*
X246525672Y-103319000D03*
%TD*%
D25*
%TO.C,Q1*%
X241953672Y-103959000D03*
X241953672Y-105859000D03*
X243828672Y-104909000D03*
%TD*%
D16*
%TO.C,R11*%
X219068672Y-107383000D03*
X218428672Y-107383000D03*
%TD*%
D23*
%TO.C,D2_Right1*%
X243446671Y-93646999D03*
D24*
X243446672Y-91107000D03*
%TD*%
D14*
%TO.C,R4*%
X233363672Y-93479000D03*
X233363672Y-92839000D03*
%TD*%
D16*
%TO.C,R7*%
X220739672Y-107383000D03*
X221379672Y-107383000D03*
%TD*%
D20*
%TO.C,JP16*%
X231539672Y-101578000D03*
D21*
X231539672Y-103028000D03*
%TD*%
D27*
%TO.C,JP9*%
X249065672Y-107129000D03*
D28*
X249065672Y-105679000D03*
%TD*%
D29*
%TO.C,U2*%
X233890672Y-107764000D03*
X233890672Y-109034000D03*
X233890672Y-110304000D03*
X233890672Y-111574000D03*
X238840672Y-111574000D03*
X238840672Y-110304000D03*
X238840672Y-109034000D03*
X238840672Y-107764000D03*
%TD*%
D15*
%TO.C,TP5*%
X246271671Y-107128999D03*
%TD*%
D30*
%TO.C,R8*%
X216142672Y-94429000D03*
X216782672Y-94429000D03*
%TD*%
D15*
%TO.C,TP1*%
X241699671Y-99254999D03*
%TD*%
D30*
%TO.C,R12*%
X213947672Y-103573000D03*
X214587672Y-103573000D03*
%TD*%
D25*
%TO.C,Q4*%
X225189672Y-99001000D03*
X225189672Y-100901000D03*
X227064672Y-99951000D03*
%TD*%
D31*
%TO.C,J1*%
X240537999Y-122681999D03*
D32*
X240537999Y-120141999D03*
X237997999Y-122681999D03*
X237997999Y-120141999D03*
X235457999Y-122681999D03*
X235457999Y-120141999D03*
X232917999Y-122681999D03*
X232917999Y-120141999D03*
X230377999Y-122681999D03*
X230377999Y-120141999D03*
X227837999Y-122681999D03*
X227837999Y-120141999D03*
X225297999Y-122681999D03*
X225297999Y-120141999D03*
X222757999Y-122681999D03*
X222757999Y-120141999D03*
X220217999Y-122681999D03*
X220217999Y-120141999D03*
X217677999Y-122681999D03*
X217677999Y-120141999D03*
X215137999Y-122681999D03*
X215137999Y-120141999D03*
X212597999Y-122681999D03*
X212597999Y-120141999D03*
X210057999Y-122681999D03*
X210057999Y-120141999D03*
X207517999Y-122681999D03*
X207517999Y-120141999D03*
%TD*%
M02*
