%TF.GenerationSoftware,KiCad,Pcbnew,(7.0.0-0)*%
%TF.CreationDate,2024-03-24T23:26:04+02:00*%
%TF.ProjectId,MicroMouse Sensor ,4d696372-6f4d-46f7-9573-652053656e73,rev?*%
%TF.SameCoordinates,Original*%
%TF.FileFunction,Legend,Top*%
%TF.FilePolarity,Positive*%
%FSLAX46Y46*%
G04 Gerber Fmt 4.6, Leading zero omitted, Abs format (unit mm)*
G04 Created by KiCad (PCBNEW (7.0.0-0)) date 2024-03-24 23:26:04*
%MOMM*%
%LPD*%
G01*
G04 APERTURE LIST*
G04 Aperture macros list*
%AMRoundRect*
0 Rectangle with rounded corners*
0 $1 Rounding radius*
0 $2 $3 $4 $5 $6 $7 $8 $9 X,Y pos of 4 corners*
0 Add a 4 corners polygon primitive as box body*
4,1,4,$2,$3,$4,$5,$6,$7,$8,$9,$2,$3,0*
0 Add four circle primitives for the rounded corners*
1,1,$1+$1,$2,$3*
1,1,$1+$1,$4,$5*
1,1,$1+$1,$6,$7*
1,1,$1+$1,$8,$9*
0 Add four rect primitives between the rounded corners*
20,1,$1+$1,$2,$3,$4,$5,0*
20,1,$1+$1,$4,$5,$6,$7,0*
20,1,$1+$1,$6,$7,$8,$9,0*
20,1,$1+$1,$8,$9,$2,$3,0*%
%AMFreePoly0*
4,1,6,1.000000,0.000000,0.500000,-0.750000,-0.500000,-0.750000,-0.500000,0.750000,0.500000,0.750000,1.000000,0.000000,1.000000,0.000000,$1*%
%AMFreePoly1*
4,1,6,0.500000,-0.750000,-0.650000,-0.750000,-0.150000,0.000000,-0.650000,0.750000,0.500000,0.750000,0.500000,-0.750000,0.500000,-0.750000,$1*%
G04 Aperture macros list end*
%ADD10C,0.150000*%
%ADD11C,0.200000*%
%ADD12C,0.127000*%
%ADD13C,0.120000*%
%ADD14C,1.454000*%
%ADD15RoundRect,0.102000X0.625000X-0.625000X0.625000X0.625000X-0.625000X0.625000X-0.625000X-0.625000X0*%
%ADD16RoundRect,0.102000X0.625000X0.625000X-0.625000X0.625000X-0.625000X-0.625000X0.625000X-0.625000X0*%
%ADD17RoundRect,0.102000X-0.625000X0.625000X-0.625000X-0.625000X0.625000X-0.625000X0.625000X0.625000X0*%
%ADD18RoundRect,0.100000X0.100000X-0.130000X0.100000X0.130000X-0.100000X0.130000X-0.100000X-0.130000X0*%
%ADD19R,1.000000X1.000000*%
%ADD20RoundRect,0.100000X0.130000X0.100000X-0.130000X0.100000X-0.130000X-0.100000X0.130000X-0.100000X0*%
%ADD21FreePoly0,180.000000*%
%ADD22FreePoly1,180.000000*%
%ADD23RoundRect,0.150000X0.587500X0.150000X-0.587500X0.150000X-0.587500X-0.150000X0.587500X-0.150000X0*%
%ADD24FreePoly0,270.000000*%
%ADD25FreePoly1,270.000000*%
%ADD26RoundRect,0.150000X0.825000X0.150000X-0.825000X0.150000X-0.825000X-0.150000X0.825000X-0.150000X0*%
%ADD27R,1.800000X1.800000*%
%ADD28C,1.800000*%
%ADD29RoundRect,0.150000X-0.587500X-0.150000X0.587500X-0.150000X0.587500X0.150000X-0.587500X0.150000X0*%
%ADD30RoundRect,0.100000X-0.100000X0.130000X-0.100000X-0.130000X0.100000X-0.130000X0.100000X0.130000X0*%
%ADD31FreePoly0,90.000000*%
%ADD32FreePoly1,90.000000*%
%ADD33RoundRect,0.150000X-0.825000X-0.150000X0.825000X-0.150000X0.825000X0.150000X-0.825000X0.150000X0*%
%ADD34RoundRect,0.100000X-0.130000X-0.100000X0.130000X-0.100000X0.130000X0.100000X-0.130000X0.100000X0*%
%ADD35R,1.700000X1.700000*%
%ADD36O,1.700000X1.700000*%
G04 APERTURE END LIST*
D10*
%TO.C,D6_Right1*%
X250584232Y-100976547D02*
X249784232Y-100976547D01*
X249784232Y-100976547D02*
X249784232Y-100786071D01*
X249784232Y-100786071D02*
X249822328Y-100671785D01*
X249822328Y-100671785D02*
X249898518Y-100595595D01*
X249898518Y-100595595D02*
X249974708Y-100557500D01*
X249974708Y-100557500D02*
X250127089Y-100519404D01*
X250127089Y-100519404D02*
X250241375Y-100519404D01*
X250241375Y-100519404D02*
X250393756Y-100557500D01*
X250393756Y-100557500D02*
X250469947Y-100595595D01*
X250469947Y-100595595D02*
X250546137Y-100671785D01*
X250546137Y-100671785D02*
X250584232Y-100786071D01*
X250584232Y-100786071D02*
X250584232Y-100976547D01*
X249784232Y-99833690D02*
X249784232Y-99986071D01*
X249784232Y-99986071D02*
X249822328Y-100062262D01*
X249822328Y-100062262D02*
X249860423Y-100100357D01*
X249860423Y-100100357D02*
X249974708Y-100176547D01*
X249974708Y-100176547D02*
X250127089Y-100214643D01*
X250127089Y-100214643D02*
X250431851Y-100214643D01*
X250431851Y-100214643D02*
X250508042Y-100176547D01*
X250508042Y-100176547D02*
X250546137Y-100138452D01*
X250546137Y-100138452D02*
X250584232Y-100062262D01*
X250584232Y-100062262D02*
X250584232Y-99909881D01*
X250584232Y-99909881D02*
X250546137Y-99833690D01*
X250546137Y-99833690D02*
X250508042Y-99795595D01*
X250508042Y-99795595D02*
X250431851Y-99757500D01*
X250431851Y-99757500D02*
X250241375Y-99757500D01*
X250241375Y-99757500D02*
X250165185Y-99795595D01*
X250165185Y-99795595D02*
X250127089Y-99833690D01*
X250127089Y-99833690D02*
X250088994Y-99909881D01*
X250088994Y-99909881D02*
X250088994Y-100062262D01*
X250088994Y-100062262D02*
X250127089Y-100138452D01*
X250127089Y-100138452D02*
X250165185Y-100176547D01*
X250165185Y-100176547D02*
X250241375Y-100214643D01*
X250660423Y-99605119D02*
X250660423Y-98995595D01*
X250584232Y-98347975D02*
X250203280Y-98614642D01*
X250584232Y-98805118D02*
X249784232Y-98805118D01*
X249784232Y-98805118D02*
X249784232Y-98500356D01*
X249784232Y-98500356D02*
X249822328Y-98424166D01*
X249822328Y-98424166D02*
X249860423Y-98386071D01*
X249860423Y-98386071D02*
X249936613Y-98347975D01*
X249936613Y-98347975D02*
X250050899Y-98347975D01*
X250050899Y-98347975D02*
X250127089Y-98386071D01*
X250127089Y-98386071D02*
X250165185Y-98424166D01*
X250165185Y-98424166D02*
X250203280Y-98500356D01*
X250203280Y-98500356D02*
X250203280Y-98805118D01*
X250584232Y-98005118D02*
X250050899Y-98005118D01*
X249784232Y-98005118D02*
X249822328Y-98043214D01*
X249822328Y-98043214D02*
X249860423Y-98005118D01*
X249860423Y-98005118D02*
X249822328Y-97967023D01*
X249822328Y-97967023D02*
X249784232Y-98005118D01*
X249784232Y-98005118D02*
X249860423Y-98005118D01*
X250050899Y-97281309D02*
X250698518Y-97281309D01*
X250698518Y-97281309D02*
X250774708Y-97319404D01*
X250774708Y-97319404D02*
X250812804Y-97357500D01*
X250812804Y-97357500D02*
X250850899Y-97433690D01*
X250850899Y-97433690D02*
X250850899Y-97547976D01*
X250850899Y-97547976D02*
X250812804Y-97624166D01*
X250546137Y-97281309D02*
X250584232Y-97357500D01*
X250584232Y-97357500D02*
X250584232Y-97509881D01*
X250584232Y-97509881D02*
X250546137Y-97586071D01*
X250546137Y-97586071D02*
X250508042Y-97624166D01*
X250508042Y-97624166D02*
X250431851Y-97662262D01*
X250431851Y-97662262D02*
X250203280Y-97662262D01*
X250203280Y-97662262D02*
X250127089Y-97624166D01*
X250127089Y-97624166D02*
X250088994Y-97586071D01*
X250088994Y-97586071D02*
X250050899Y-97509881D01*
X250050899Y-97509881D02*
X250050899Y-97357500D01*
X250050899Y-97357500D02*
X250088994Y-97281309D01*
X250584232Y-96900356D02*
X249784232Y-96900356D01*
X250584232Y-96557499D02*
X250165185Y-96557499D01*
X250165185Y-96557499D02*
X250088994Y-96595594D01*
X250088994Y-96595594D02*
X250050899Y-96671785D01*
X250050899Y-96671785D02*
X250050899Y-96786071D01*
X250050899Y-96786071D02*
X250088994Y-96862261D01*
X250088994Y-96862261D02*
X250127089Y-96900356D01*
X250050899Y-96290832D02*
X250050899Y-95986070D01*
X249784232Y-96176546D02*
X250469947Y-96176546D01*
X250469947Y-96176546D02*
X250546137Y-96138451D01*
X250546137Y-96138451D02*
X250584232Y-96062261D01*
X250584232Y-96062261D02*
X250584232Y-95986070D01*
X250584232Y-95300356D02*
X250584232Y-95757499D01*
X250584232Y-95528927D02*
X249784232Y-95528927D01*
X249784232Y-95528927D02*
X249898518Y-95605118D01*
X249898518Y-95605118D02*
X249974708Y-95681308D01*
X249974708Y-95681308D02*
X250012804Y-95757499D01*
%TO.C,D6_Front1*%
X220338624Y-95992904D02*
X220338624Y-95192904D01*
X220338624Y-95192904D02*
X220529100Y-95192904D01*
X220529100Y-95192904D02*
X220643386Y-95231000D01*
X220643386Y-95231000D02*
X220719576Y-95307190D01*
X220719576Y-95307190D02*
X220757671Y-95383380D01*
X220757671Y-95383380D02*
X220795767Y-95535761D01*
X220795767Y-95535761D02*
X220795767Y-95650047D01*
X220795767Y-95650047D02*
X220757671Y-95802428D01*
X220757671Y-95802428D02*
X220719576Y-95878619D01*
X220719576Y-95878619D02*
X220643386Y-95954809D01*
X220643386Y-95954809D02*
X220529100Y-95992904D01*
X220529100Y-95992904D02*
X220338624Y-95992904D01*
X221481481Y-95192904D02*
X221329100Y-95192904D01*
X221329100Y-95192904D02*
X221252909Y-95231000D01*
X221252909Y-95231000D02*
X221214814Y-95269095D01*
X221214814Y-95269095D02*
X221138624Y-95383380D01*
X221138624Y-95383380D02*
X221100528Y-95535761D01*
X221100528Y-95535761D02*
X221100528Y-95840523D01*
X221100528Y-95840523D02*
X221138624Y-95916714D01*
X221138624Y-95916714D02*
X221176719Y-95954809D01*
X221176719Y-95954809D02*
X221252909Y-95992904D01*
X221252909Y-95992904D02*
X221405290Y-95992904D01*
X221405290Y-95992904D02*
X221481481Y-95954809D01*
X221481481Y-95954809D02*
X221519576Y-95916714D01*
X221519576Y-95916714D02*
X221557671Y-95840523D01*
X221557671Y-95840523D02*
X221557671Y-95650047D01*
X221557671Y-95650047D02*
X221519576Y-95573857D01*
X221519576Y-95573857D02*
X221481481Y-95535761D01*
X221481481Y-95535761D02*
X221405290Y-95497666D01*
X221405290Y-95497666D02*
X221252909Y-95497666D01*
X221252909Y-95497666D02*
X221176719Y-95535761D01*
X221176719Y-95535761D02*
X221138624Y-95573857D01*
X221138624Y-95573857D02*
X221100528Y-95650047D01*
X221710053Y-96069095D02*
X222319576Y-96069095D01*
X222776719Y-95573857D02*
X222510053Y-95573857D01*
X222510053Y-95992904D02*
X222510053Y-95192904D01*
X222510053Y-95192904D02*
X222891005Y-95192904D01*
X223195767Y-95992904D02*
X223195767Y-95459571D01*
X223195767Y-95611952D02*
X223233862Y-95535761D01*
X223233862Y-95535761D02*
X223271957Y-95497666D01*
X223271957Y-95497666D02*
X223348148Y-95459571D01*
X223348148Y-95459571D02*
X223424338Y-95459571D01*
X223805290Y-95992904D02*
X223729100Y-95954809D01*
X223729100Y-95954809D02*
X223691005Y-95916714D01*
X223691005Y-95916714D02*
X223652909Y-95840523D01*
X223652909Y-95840523D02*
X223652909Y-95611952D01*
X223652909Y-95611952D02*
X223691005Y-95535761D01*
X223691005Y-95535761D02*
X223729100Y-95497666D01*
X223729100Y-95497666D02*
X223805290Y-95459571D01*
X223805290Y-95459571D02*
X223919576Y-95459571D01*
X223919576Y-95459571D02*
X223995767Y-95497666D01*
X223995767Y-95497666D02*
X224033862Y-95535761D01*
X224033862Y-95535761D02*
X224071957Y-95611952D01*
X224071957Y-95611952D02*
X224071957Y-95840523D01*
X224071957Y-95840523D02*
X224033862Y-95916714D01*
X224033862Y-95916714D02*
X223995767Y-95954809D01*
X223995767Y-95954809D02*
X223919576Y-95992904D01*
X223919576Y-95992904D02*
X223805290Y-95992904D01*
X224414815Y-95459571D02*
X224414815Y-95992904D01*
X224414815Y-95535761D02*
X224452910Y-95497666D01*
X224452910Y-95497666D02*
X224529100Y-95459571D01*
X224529100Y-95459571D02*
X224643386Y-95459571D01*
X224643386Y-95459571D02*
X224719577Y-95497666D01*
X224719577Y-95497666D02*
X224757672Y-95573857D01*
X224757672Y-95573857D02*
X224757672Y-95992904D01*
X225024339Y-95459571D02*
X225329101Y-95459571D01*
X225138625Y-95192904D02*
X225138625Y-95878619D01*
X225138625Y-95878619D02*
X225176720Y-95954809D01*
X225176720Y-95954809D02*
X225252910Y-95992904D01*
X225252910Y-95992904D02*
X225329101Y-95992904D01*
X226014815Y-95992904D02*
X225557672Y-95992904D01*
X225786244Y-95992904D02*
X225786244Y-95192904D01*
X225786244Y-95192904D02*
X225710053Y-95307190D01*
X225710053Y-95307190D02*
X225633863Y-95383380D01*
X225633863Y-95383380D02*
X225557672Y-95421476D01*
%TO.C,D6_Left1*%
X202369576Y-94816999D02*
X201569576Y-94816999D01*
X201569576Y-94816999D02*
X201569576Y-94626523D01*
X201569576Y-94626523D02*
X201607672Y-94512237D01*
X201607672Y-94512237D02*
X201683862Y-94436047D01*
X201683862Y-94436047D02*
X201760052Y-94397952D01*
X201760052Y-94397952D02*
X201912433Y-94359856D01*
X201912433Y-94359856D02*
X202026719Y-94359856D01*
X202026719Y-94359856D02*
X202179100Y-94397952D01*
X202179100Y-94397952D02*
X202255291Y-94436047D01*
X202255291Y-94436047D02*
X202331481Y-94512237D01*
X202331481Y-94512237D02*
X202369576Y-94626523D01*
X202369576Y-94626523D02*
X202369576Y-94816999D01*
X201569576Y-93674142D02*
X201569576Y-93826523D01*
X201569576Y-93826523D02*
X201607672Y-93902714D01*
X201607672Y-93902714D02*
X201645767Y-93940809D01*
X201645767Y-93940809D02*
X201760052Y-94016999D01*
X201760052Y-94016999D02*
X201912433Y-94055095D01*
X201912433Y-94055095D02*
X202217195Y-94055095D01*
X202217195Y-94055095D02*
X202293386Y-94016999D01*
X202293386Y-94016999D02*
X202331481Y-93978904D01*
X202331481Y-93978904D02*
X202369576Y-93902714D01*
X202369576Y-93902714D02*
X202369576Y-93750333D01*
X202369576Y-93750333D02*
X202331481Y-93674142D01*
X202331481Y-93674142D02*
X202293386Y-93636047D01*
X202293386Y-93636047D02*
X202217195Y-93597952D01*
X202217195Y-93597952D02*
X202026719Y-93597952D01*
X202026719Y-93597952D02*
X201950529Y-93636047D01*
X201950529Y-93636047D02*
X201912433Y-93674142D01*
X201912433Y-93674142D02*
X201874338Y-93750333D01*
X201874338Y-93750333D02*
X201874338Y-93902714D01*
X201874338Y-93902714D02*
X201912433Y-93978904D01*
X201912433Y-93978904D02*
X201950529Y-94016999D01*
X201950529Y-94016999D02*
X202026719Y-94055095D01*
X202445767Y-93445571D02*
X202445767Y-92836047D01*
X202369576Y-92264618D02*
X202369576Y-92645570D01*
X202369576Y-92645570D02*
X201569576Y-92645570D01*
X202331481Y-91693189D02*
X202369576Y-91769380D01*
X202369576Y-91769380D02*
X202369576Y-91921761D01*
X202369576Y-91921761D02*
X202331481Y-91997951D01*
X202331481Y-91997951D02*
X202255291Y-92036047D01*
X202255291Y-92036047D02*
X201950529Y-92036047D01*
X201950529Y-92036047D02*
X201874338Y-91997951D01*
X201874338Y-91997951D02*
X201836243Y-91921761D01*
X201836243Y-91921761D02*
X201836243Y-91769380D01*
X201836243Y-91769380D02*
X201874338Y-91693189D01*
X201874338Y-91693189D02*
X201950529Y-91655094D01*
X201950529Y-91655094D02*
X202026719Y-91655094D01*
X202026719Y-91655094D02*
X202102910Y-92036047D01*
X201836243Y-91426523D02*
X201836243Y-91121761D01*
X202369576Y-91312237D02*
X201683862Y-91312237D01*
X201683862Y-91312237D02*
X201607672Y-91274142D01*
X201607672Y-91274142D02*
X201569576Y-91197952D01*
X201569576Y-91197952D02*
X201569576Y-91121761D01*
X201836243Y-90969380D02*
X201836243Y-90664618D01*
X201569576Y-90855094D02*
X202255291Y-90855094D01*
X202255291Y-90855094D02*
X202331481Y-90816999D01*
X202331481Y-90816999D02*
X202369576Y-90740809D01*
X202369576Y-90740809D02*
X202369576Y-90664618D01*
X202369576Y-89978904D02*
X202369576Y-90436047D01*
X202369576Y-90207475D02*
X201569576Y-90207475D01*
X201569576Y-90207475D02*
X201683862Y-90283666D01*
X201683862Y-90283666D02*
X201760052Y-90359856D01*
X201760052Y-90359856D02*
X201798148Y-90436047D01*
%TO.C,R9*%
X241813052Y-111359666D02*
X241336862Y-111692999D01*
X241813052Y-111931094D02*
X240813052Y-111931094D01*
X240813052Y-111931094D02*
X240813052Y-111550142D01*
X240813052Y-111550142D02*
X240860672Y-111454904D01*
X240860672Y-111454904D02*
X240908291Y-111407285D01*
X240908291Y-111407285D02*
X241003529Y-111359666D01*
X241003529Y-111359666D02*
X241146386Y-111359666D01*
X241146386Y-111359666D02*
X241241624Y-111407285D01*
X241241624Y-111407285D02*
X241289243Y-111454904D01*
X241289243Y-111454904D02*
X241336862Y-111550142D01*
X241336862Y-111550142D02*
X241336862Y-111931094D01*
X241813052Y-110883475D02*
X241813052Y-110692999D01*
X241813052Y-110692999D02*
X241765433Y-110597761D01*
X241765433Y-110597761D02*
X241717814Y-110550142D01*
X241717814Y-110550142D02*
X241574957Y-110454904D01*
X241574957Y-110454904D02*
X241384481Y-110407285D01*
X241384481Y-110407285D02*
X241003529Y-110407285D01*
X241003529Y-110407285D02*
X240908291Y-110454904D01*
X240908291Y-110454904D02*
X240860672Y-110502523D01*
X240860672Y-110502523D02*
X240813052Y-110597761D01*
X240813052Y-110597761D02*
X240813052Y-110788237D01*
X240813052Y-110788237D02*
X240860672Y-110883475D01*
X240860672Y-110883475D02*
X240908291Y-110931094D01*
X240908291Y-110931094D02*
X241003529Y-110978713D01*
X241003529Y-110978713D02*
X241241624Y-110978713D01*
X241241624Y-110978713D02*
X241336862Y-110931094D01*
X241336862Y-110931094D02*
X241384481Y-110883475D01*
X241384481Y-110883475D02*
X241432100Y-110788237D01*
X241432100Y-110788237D02*
X241432100Y-110597761D01*
X241432100Y-110597761D02*
X241384481Y-110502523D01*
X241384481Y-110502523D02*
X241336862Y-110454904D01*
X241336862Y-110454904D02*
X241241624Y-110407285D01*
%TO.C,TP6*%
X210828095Y-89029380D02*
X211399523Y-89029380D01*
X211113809Y-90029380D02*
X211113809Y-89029380D01*
X211732857Y-90029380D02*
X211732857Y-89029380D01*
X211732857Y-89029380D02*
X212113809Y-89029380D01*
X212113809Y-89029380D02*
X212209047Y-89077000D01*
X212209047Y-89077000D02*
X212256666Y-89124619D01*
X212256666Y-89124619D02*
X212304285Y-89219857D01*
X212304285Y-89219857D02*
X212304285Y-89362714D01*
X212304285Y-89362714D02*
X212256666Y-89457952D01*
X212256666Y-89457952D02*
X212209047Y-89505571D01*
X212209047Y-89505571D02*
X212113809Y-89553190D01*
X212113809Y-89553190D02*
X211732857Y-89553190D01*
X213161428Y-89029380D02*
X212970952Y-89029380D01*
X212970952Y-89029380D02*
X212875714Y-89077000D01*
X212875714Y-89077000D02*
X212828095Y-89124619D01*
X212828095Y-89124619D02*
X212732857Y-89267476D01*
X212732857Y-89267476D02*
X212685238Y-89457952D01*
X212685238Y-89457952D02*
X212685238Y-89838904D01*
X212685238Y-89838904D02*
X212732857Y-89934142D01*
X212732857Y-89934142D02*
X212780476Y-89981761D01*
X212780476Y-89981761D02*
X212875714Y-90029380D01*
X212875714Y-90029380D02*
X213066190Y-90029380D01*
X213066190Y-90029380D02*
X213161428Y-89981761D01*
X213161428Y-89981761D02*
X213209047Y-89934142D01*
X213209047Y-89934142D02*
X213256666Y-89838904D01*
X213256666Y-89838904D02*
X213256666Y-89600809D01*
X213256666Y-89600809D02*
X213209047Y-89505571D01*
X213209047Y-89505571D02*
X213161428Y-89457952D01*
X213161428Y-89457952D02*
X213066190Y-89410333D01*
X213066190Y-89410333D02*
X212875714Y-89410333D01*
X212875714Y-89410333D02*
X212780476Y-89457952D01*
X212780476Y-89457952D02*
X212732857Y-89505571D01*
X212732857Y-89505571D02*
X212685238Y-89600809D01*
%TO.C,R3*%
X236677005Y-98098380D02*
X236343672Y-97622190D01*
X236105577Y-98098380D02*
X236105577Y-97098380D01*
X236105577Y-97098380D02*
X236486529Y-97098380D01*
X236486529Y-97098380D02*
X236581767Y-97146000D01*
X236581767Y-97146000D02*
X236629386Y-97193619D01*
X236629386Y-97193619D02*
X236677005Y-97288857D01*
X236677005Y-97288857D02*
X236677005Y-97431714D01*
X236677005Y-97431714D02*
X236629386Y-97526952D01*
X236629386Y-97526952D02*
X236581767Y-97574571D01*
X236581767Y-97574571D02*
X236486529Y-97622190D01*
X236486529Y-97622190D02*
X236105577Y-97622190D01*
X237010339Y-97098380D02*
X237629386Y-97098380D01*
X237629386Y-97098380D02*
X237296053Y-97479333D01*
X237296053Y-97479333D02*
X237438910Y-97479333D01*
X237438910Y-97479333D02*
X237534148Y-97526952D01*
X237534148Y-97526952D02*
X237581767Y-97574571D01*
X237581767Y-97574571D02*
X237629386Y-97669809D01*
X237629386Y-97669809D02*
X237629386Y-97907904D01*
X237629386Y-97907904D02*
X237581767Y-98003142D01*
X237581767Y-98003142D02*
X237534148Y-98050761D01*
X237534148Y-98050761D02*
X237438910Y-98098380D01*
X237438910Y-98098380D02*
X237153196Y-98098380D01*
X237153196Y-98098380D02*
X237057958Y-98050761D01*
X237057958Y-98050761D02*
X237010339Y-98003142D01*
%TO.C,JP6*%
X206576338Y-102432380D02*
X206576338Y-103146666D01*
X206576338Y-103146666D02*
X206528719Y-103289523D01*
X206528719Y-103289523D02*
X206433481Y-103384761D01*
X206433481Y-103384761D02*
X206290624Y-103432380D01*
X206290624Y-103432380D02*
X206195386Y-103432380D01*
X207052529Y-103432380D02*
X207052529Y-102432380D01*
X207052529Y-102432380D02*
X207433481Y-102432380D01*
X207433481Y-102432380D02*
X207528719Y-102480000D01*
X207528719Y-102480000D02*
X207576338Y-102527619D01*
X207576338Y-102527619D02*
X207623957Y-102622857D01*
X207623957Y-102622857D02*
X207623957Y-102765714D01*
X207623957Y-102765714D02*
X207576338Y-102860952D01*
X207576338Y-102860952D02*
X207528719Y-102908571D01*
X207528719Y-102908571D02*
X207433481Y-102956190D01*
X207433481Y-102956190D02*
X207052529Y-102956190D01*
X208481100Y-102432380D02*
X208290624Y-102432380D01*
X208290624Y-102432380D02*
X208195386Y-102480000D01*
X208195386Y-102480000D02*
X208147767Y-102527619D01*
X208147767Y-102527619D02*
X208052529Y-102670476D01*
X208052529Y-102670476D02*
X208004910Y-102860952D01*
X208004910Y-102860952D02*
X208004910Y-103241904D01*
X208004910Y-103241904D02*
X208052529Y-103337142D01*
X208052529Y-103337142D02*
X208100148Y-103384761D01*
X208100148Y-103384761D02*
X208195386Y-103432380D01*
X208195386Y-103432380D02*
X208385862Y-103432380D01*
X208385862Y-103432380D02*
X208481100Y-103384761D01*
X208481100Y-103384761D02*
X208528719Y-103337142D01*
X208528719Y-103337142D02*
X208576338Y-103241904D01*
X208576338Y-103241904D02*
X208576338Y-103003809D01*
X208576338Y-103003809D02*
X208528719Y-102908571D01*
X208528719Y-102908571D02*
X208481100Y-102860952D01*
X208481100Y-102860952D02*
X208385862Y-102813333D01*
X208385862Y-102813333D02*
X208195386Y-102813333D01*
X208195386Y-102813333D02*
X208100148Y-102860952D01*
X208100148Y-102860952D02*
X208052529Y-102908571D01*
X208052529Y-102908571D02*
X208004910Y-103003809D01*
%TO.C,Q6*%
X214172433Y-94939619D02*
X214077195Y-94892000D01*
X214077195Y-94892000D02*
X213981957Y-94796761D01*
X213981957Y-94796761D02*
X213839100Y-94653904D01*
X213839100Y-94653904D02*
X213743862Y-94606285D01*
X213743862Y-94606285D02*
X213648624Y-94606285D01*
X213696243Y-94844380D02*
X213601005Y-94796761D01*
X213601005Y-94796761D02*
X213505767Y-94701523D01*
X213505767Y-94701523D02*
X213458148Y-94511047D01*
X213458148Y-94511047D02*
X213458148Y-94177714D01*
X213458148Y-94177714D02*
X213505767Y-93987238D01*
X213505767Y-93987238D02*
X213601005Y-93892000D01*
X213601005Y-93892000D02*
X213696243Y-93844380D01*
X213696243Y-93844380D02*
X213886719Y-93844380D01*
X213886719Y-93844380D02*
X213981957Y-93892000D01*
X213981957Y-93892000D02*
X214077195Y-93987238D01*
X214077195Y-93987238D02*
X214124814Y-94177714D01*
X214124814Y-94177714D02*
X214124814Y-94511047D01*
X214124814Y-94511047D02*
X214077195Y-94701523D01*
X214077195Y-94701523D02*
X213981957Y-94796761D01*
X213981957Y-94796761D02*
X213886719Y-94844380D01*
X213886719Y-94844380D02*
X213696243Y-94844380D01*
X214981957Y-93844380D02*
X214791481Y-93844380D01*
X214791481Y-93844380D02*
X214696243Y-93892000D01*
X214696243Y-93892000D02*
X214648624Y-93939619D01*
X214648624Y-93939619D02*
X214553386Y-94082476D01*
X214553386Y-94082476D02*
X214505767Y-94272952D01*
X214505767Y-94272952D02*
X214505767Y-94653904D01*
X214505767Y-94653904D02*
X214553386Y-94749142D01*
X214553386Y-94749142D02*
X214601005Y-94796761D01*
X214601005Y-94796761D02*
X214696243Y-94844380D01*
X214696243Y-94844380D02*
X214886719Y-94844380D01*
X214886719Y-94844380D02*
X214981957Y-94796761D01*
X214981957Y-94796761D02*
X215029576Y-94749142D01*
X215029576Y-94749142D02*
X215077195Y-94653904D01*
X215077195Y-94653904D02*
X215077195Y-94415809D01*
X215077195Y-94415809D02*
X215029576Y-94320571D01*
X215029576Y-94320571D02*
X214981957Y-94272952D01*
X214981957Y-94272952D02*
X214886719Y-94225333D01*
X214886719Y-94225333D02*
X214696243Y-94225333D01*
X214696243Y-94225333D02*
X214601005Y-94272952D01*
X214601005Y-94272952D02*
X214553386Y-94320571D01*
X214553386Y-94320571D02*
X214505767Y-94415809D01*
%TO.C,JP18LO1*%
X222525052Y-109261285D02*
X223239338Y-109261285D01*
X223239338Y-109261285D02*
X223382195Y-109308904D01*
X223382195Y-109308904D02*
X223477433Y-109404142D01*
X223477433Y-109404142D02*
X223525052Y-109546999D01*
X223525052Y-109546999D02*
X223525052Y-109642237D01*
X223525052Y-108785094D02*
X222525052Y-108785094D01*
X222525052Y-108785094D02*
X222525052Y-108404142D01*
X222525052Y-108404142D02*
X222572672Y-108308904D01*
X222572672Y-108308904D02*
X222620291Y-108261285D01*
X222620291Y-108261285D02*
X222715529Y-108213666D01*
X222715529Y-108213666D02*
X222858386Y-108213666D01*
X222858386Y-108213666D02*
X222953624Y-108261285D01*
X222953624Y-108261285D02*
X223001243Y-108308904D01*
X223001243Y-108308904D02*
X223048862Y-108404142D01*
X223048862Y-108404142D02*
X223048862Y-108785094D01*
X223525052Y-107261285D02*
X223525052Y-107832713D01*
X223525052Y-107546999D02*
X222525052Y-107546999D01*
X222525052Y-107546999D02*
X222667910Y-107642237D01*
X222667910Y-107642237D02*
X222763148Y-107737475D01*
X222763148Y-107737475D02*
X222810767Y-107832713D01*
X222953624Y-106689856D02*
X222906005Y-106785094D01*
X222906005Y-106785094D02*
X222858386Y-106832713D01*
X222858386Y-106832713D02*
X222763148Y-106880332D01*
X222763148Y-106880332D02*
X222715529Y-106880332D01*
X222715529Y-106880332D02*
X222620291Y-106832713D01*
X222620291Y-106832713D02*
X222572672Y-106785094D01*
X222572672Y-106785094D02*
X222525052Y-106689856D01*
X222525052Y-106689856D02*
X222525052Y-106499380D01*
X222525052Y-106499380D02*
X222572672Y-106404142D01*
X222572672Y-106404142D02*
X222620291Y-106356523D01*
X222620291Y-106356523D02*
X222715529Y-106308904D01*
X222715529Y-106308904D02*
X222763148Y-106308904D01*
X222763148Y-106308904D02*
X222858386Y-106356523D01*
X222858386Y-106356523D02*
X222906005Y-106404142D01*
X222906005Y-106404142D02*
X222953624Y-106499380D01*
X222953624Y-106499380D02*
X222953624Y-106689856D01*
X222953624Y-106689856D02*
X223001243Y-106785094D01*
X223001243Y-106785094D02*
X223048862Y-106832713D01*
X223048862Y-106832713D02*
X223144100Y-106880332D01*
X223144100Y-106880332D02*
X223334576Y-106880332D01*
X223334576Y-106880332D02*
X223429814Y-106832713D01*
X223429814Y-106832713D02*
X223477433Y-106785094D01*
X223477433Y-106785094D02*
X223525052Y-106689856D01*
X223525052Y-106689856D02*
X223525052Y-106499380D01*
X223525052Y-106499380D02*
X223477433Y-106404142D01*
X223477433Y-106404142D02*
X223429814Y-106356523D01*
X223429814Y-106356523D02*
X223334576Y-106308904D01*
X223334576Y-106308904D02*
X223144100Y-106308904D01*
X223144100Y-106308904D02*
X223048862Y-106356523D01*
X223048862Y-106356523D02*
X223001243Y-106404142D01*
X223001243Y-106404142D02*
X222953624Y-106499380D01*
X223525052Y-105404142D02*
X223525052Y-105880332D01*
X223525052Y-105880332D02*
X222525052Y-105880332D01*
X222525052Y-104880332D02*
X222525052Y-104689856D01*
X222525052Y-104689856D02*
X222572672Y-104594618D01*
X222572672Y-104594618D02*
X222667910Y-104499380D01*
X222667910Y-104499380D02*
X222858386Y-104451761D01*
X222858386Y-104451761D02*
X223191719Y-104451761D01*
X223191719Y-104451761D02*
X223382195Y-104499380D01*
X223382195Y-104499380D02*
X223477433Y-104594618D01*
X223477433Y-104594618D02*
X223525052Y-104689856D01*
X223525052Y-104689856D02*
X223525052Y-104880332D01*
X223525052Y-104880332D02*
X223477433Y-104975570D01*
X223477433Y-104975570D02*
X223382195Y-105070808D01*
X223382195Y-105070808D02*
X223191719Y-105118427D01*
X223191719Y-105118427D02*
X222858386Y-105118427D01*
X222858386Y-105118427D02*
X222667910Y-105070808D01*
X222667910Y-105070808D02*
X222572672Y-104975570D01*
X222572672Y-104975570D02*
X222525052Y-104880332D01*
X223525052Y-103499380D02*
X223525052Y-104070808D01*
X223525052Y-103785094D02*
X222525052Y-103785094D01*
X222525052Y-103785094D02*
X222667910Y-103880332D01*
X222667910Y-103880332D02*
X222763148Y-103975570D01*
X222763148Y-103975570D02*
X222810767Y-104070808D01*
%TO.C,U3*%
X228745767Y-116402380D02*
X228745767Y-117211904D01*
X228745767Y-117211904D02*
X228793386Y-117307142D01*
X228793386Y-117307142D02*
X228841005Y-117354761D01*
X228841005Y-117354761D02*
X228936243Y-117402380D01*
X228936243Y-117402380D02*
X229126719Y-117402380D01*
X229126719Y-117402380D02*
X229221957Y-117354761D01*
X229221957Y-117354761D02*
X229269576Y-117307142D01*
X229269576Y-117307142D02*
X229317195Y-117211904D01*
X229317195Y-117211904D02*
X229317195Y-116402380D01*
X229698148Y-116402380D02*
X230317195Y-116402380D01*
X230317195Y-116402380D02*
X229983862Y-116783333D01*
X229983862Y-116783333D02*
X230126719Y-116783333D01*
X230126719Y-116783333D02*
X230221957Y-116830952D01*
X230221957Y-116830952D02*
X230269576Y-116878571D01*
X230269576Y-116878571D02*
X230317195Y-116973809D01*
X230317195Y-116973809D02*
X230317195Y-117211904D01*
X230317195Y-117211904D02*
X230269576Y-117307142D01*
X230269576Y-117307142D02*
X230221957Y-117354761D01*
X230221957Y-117354761D02*
X230126719Y-117402380D01*
X230126719Y-117402380D02*
X229841005Y-117402380D01*
X229841005Y-117402380D02*
X229745767Y-117354761D01*
X229745767Y-117354761D02*
X229698148Y-117307142D01*
%TO.C,D3_Left1*%
X211546052Y-101005000D02*
X210546052Y-101005000D01*
X210546052Y-101005000D02*
X210546052Y-100766905D01*
X210546052Y-100766905D02*
X210593672Y-100624048D01*
X210593672Y-100624048D02*
X210688910Y-100528810D01*
X210688910Y-100528810D02*
X210784148Y-100481191D01*
X210784148Y-100481191D02*
X210974624Y-100433572D01*
X210974624Y-100433572D02*
X211117481Y-100433572D01*
X211117481Y-100433572D02*
X211307957Y-100481191D01*
X211307957Y-100481191D02*
X211403195Y-100528810D01*
X211403195Y-100528810D02*
X211498433Y-100624048D01*
X211498433Y-100624048D02*
X211546052Y-100766905D01*
X211546052Y-100766905D02*
X211546052Y-101005000D01*
X210546052Y-100100238D02*
X210546052Y-99481191D01*
X210546052Y-99481191D02*
X210927005Y-99814524D01*
X210927005Y-99814524D02*
X210927005Y-99671667D01*
X210927005Y-99671667D02*
X210974624Y-99576429D01*
X210974624Y-99576429D02*
X211022243Y-99528810D01*
X211022243Y-99528810D02*
X211117481Y-99481191D01*
X211117481Y-99481191D02*
X211355576Y-99481191D01*
X211355576Y-99481191D02*
X211450814Y-99528810D01*
X211450814Y-99528810D02*
X211498433Y-99576429D01*
X211498433Y-99576429D02*
X211546052Y-99671667D01*
X211546052Y-99671667D02*
X211546052Y-99957381D01*
X211546052Y-99957381D02*
X211498433Y-100052619D01*
X211498433Y-100052619D02*
X211450814Y-100100238D01*
X211641291Y-99290715D02*
X211641291Y-98528810D01*
X211546052Y-97814524D02*
X211546052Y-98290714D01*
X211546052Y-98290714D02*
X210546052Y-98290714D01*
X211498433Y-97100238D02*
X211546052Y-97195476D01*
X211546052Y-97195476D02*
X211546052Y-97385952D01*
X211546052Y-97385952D02*
X211498433Y-97481190D01*
X211498433Y-97481190D02*
X211403195Y-97528809D01*
X211403195Y-97528809D02*
X211022243Y-97528809D01*
X211022243Y-97528809D02*
X210927005Y-97481190D01*
X210927005Y-97481190D02*
X210879386Y-97385952D01*
X210879386Y-97385952D02*
X210879386Y-97195476D01*
X210879386Y-97195476D02*
X210927005Y-97100238D01*
X210927005Y-97100238D02*
X211022243Y-97052619D01*
X211022243Y-97052619D02*
X211117481Y-97052619D01*
X211117481Y-97052619D02*
X211212719Y-97528809D01*
X210879386Y-96766904D02*
X210879386Y-96385952D01*
X211546052Y-96624047D02*
X210688910Y-96624047D01*
X210688910Y-96624047D02*
X210593672Y-96576428D01*
X210593672Y-96576428D02*
X210546052Y-96481190D01*
X210546052Y-96481190D02*
X210546052Y-96385952D01*
X210879386Y-96195475D02*
X210879386Y-95814523D01*
X210546052Y-96052618D02*
X211403195Y-96052618D01*
X211403195Y-96052618D02*
X211498433Y-96004999D01*
X211498433Y-96004999D02*
X211546052Y-95909761D01*
X211546052Y-95909761D02*
X211546052Y-95814523D01*
X211546052Y-94957380D02*
X211546052Y-95528808D01*
X211546052Y-95243094D02*
X210546052Y-95243094D01*
X210546052Y-95243094D02*
X210688910Y-95338332D01*
X210688910Y-95338332D02*
X210784148Y-95433570D01*
X210784148Y-95433570D02*
X210831767Y-95528808D01*
%TO.C,R5*%
X218165005Y-117182380D02*
X217831672Y-116706190D01*
X217593577Y-117182380D02*
X217593577Y-116182380D01*
X217593577Y-116182380D02*
X217974529Y-116182380D01*
X217974529Y-116182380D02*
X218069767Y-116230000D01*
X218069767Y-116230000D02*
X218117386Y-116277619D01*
X218117386Y-116277619D02*
X218165005Y-116372857D01*
X218165005Y-116372857D02*
X218165005Y-116515714D01*
X218165005Y-116515714D02*
X218117386Y-116610952D01*
X218117386Y-116610952D02*
X218069767Y-116658571D01*
X218069767Y-116658571D02*
X217974529Y-116706190D01*
X217974529Y-116706190D02*
X217593577Y-116706190D01*
X219069767Y-116182380D02*
X218593577Y-116182380D01*
X218593577Y-116182380D02*
X218545958Y-116658571D01*
X218545958Y-116658571D02*
X218593577Y-116610952D01*
X218593577Y-116610952D02*
X218688815Y-116563333D01*
X218688815Y-116563333D02*
X218926910Y-116563333D01*
X218926910Y-116563333D02*
X219022148Y-116610952D01*
X219022148Y-116610952D02*
X219069767Y-116658571D01*
X219069767Y-116658571D02*
X219117386Y-116753809D01*
X219117386Y-116753809D02*
X219117386Y-116991904D01*
X219117386Y-116991904D02*
X219069767Y-117087142D01*
X219069767Y-117087142D02*
X219022148Y-117134761D01*
X219022148Y-117134761D02*
X218926910Y-117182380D01*
X218926910Y-117182380D02*
X218688815Y-117182380D01*
X218688815Y-117182380D02*
X218593577Y-117134761D01*
X218593577Y-117134761D02*
X218545958Y-117087142D01*
%TO.C,JP17FO1*%
X208301052Y-113423095D02*
X209015338Y-113423095D01*
X209015338Y-113423095D02*
X209158195Y-113470714D01*
X209158195Y-113470714D02*
X209253433Y-113565952D01*
X209253433Y-113565952D02*
X209301052Y-113708809D01*
X209301052Y-113708809D02*
X209301052Y-113804047D01*
X209301052Y-112946904D02*
X208301052Y-112946904D01*
X208301052Y-112946904D02*
X208301052Y-112565952D01*
X208301052Y-112565952D02*
X208348672Y-112470714D01*
X208348672Y-112470714D02*
X208396291Y-112423095D01*
X208396291Y-112423095D02*
X208491529Y-112375476D01*
X208491529Y-112375476D02*
X208634386Y-112375476D01*
X208634386Y-112375476D02*
X208729624Y-112423095D01*
X208729624Y-112423095D02*
X208777243Y-112470714D01*
X208777243Y-112470714D02*
X208824862Y-112565952D01*
X208824862Y-112565952D02*
X208824862Y-112946904D01*
X209301052Y-111423095D02*
X209301052Y-111994523D01*
X209301052Y-111708809D02*
X208301052Y-111708809D01*
X208301052Y-111708809D02*
X208443910Y-111804047D01*
X208443910Y-111804047D02*
X208539148Y-111899285D01*
X208539148Y-111899285D02*
X208586767Y-111994523D01*
X208301052Y-111089761D02*
X208301052Y-110423095D01*
X208301052Y-110423095D02*
X209301052Y-110851666D01*
X208777243Y-109708809D02*
X208777243Y-110042142D01*
X209301052Y-110042142D02*
X208301052Y-110042142D01*
X208301052Y-110042142D02*
X208301052Y-109565952D01*
X208301052Y-108994523D02*
X208301052Y-108804047D01*
X208301052Y-108804047D02*
X208348672Y-108708809D01*
X208348672Y-108708809D02*
X208443910Y-108613571D01*
X208443910Y-108613571D02*
X208634386Y-108565952D01*
X208634386Y-108565952D02*
X208967719Y-108565952D01*
X208967719Y-108565952D02*
X209158195Y-108613571D01*
X209158195Y-108613571D02*
X209253433Y-108708809D01*
X209253433Y-108708809D02*
X209301052Y-108804047D01*
X209301052Y-108804047D02*
X209301052Y-108994523D01*
X209301052Y-108994523D02*
X209253433Y-109089761D01*
X209253433Y-109089761D02*
X209158195Y-109184999D01*
X209158195Y-109184999D02*
X208967719Y-109232618D01*
X208967719Y-109232618D02*
X208634386Y-109232618D01*
X208634386Y-109232618D02*
X208443910Y-109184999D01*
X208443910Y-109184999D02*
X208348672Y-109089761D01*
X208348672Y-109089761D02*
X208301052Y-108994523D01*
X209301052Y-107613571D02*
X209301052Y-108184999D01*
X209301052Y-107899285D02*
X208301052Y-107899285D01*
X208301052Y-107899285D02*
X208443910Y-107994523D01*
X208443910Y-107994523D02*
X208539148Y-108089761D01*
X208539148Y-108089761D02*
X208586767Y-108184999D01*
%TO.C,Q2*%
X236524433Y-95966619D02*
X236429195Y-95919000D01*
X236429195Y-95919000D02*
X236333957Y-95823761D01*
X236333957Y-95823761D02*
X236191100Y-95680904D01*
X236191100Y-95680904D02*
X236095862Y-95633285D01*
X236095862Y-95633285D02*
X236000624Y-95633285D01*
X236048243Y-95871380D02*
X235953005Y-95823761D01*
X235953005Y-95823761D02*
X235857767Y-95728523D01*
X235857767Y-95728523D02*
X235810148Y-95538047D01*
X235810148Y-95538047D02*
X235810148Y-95204714D01*
X235810148Y-95204714D02*
X235857767Y-95014238D01*
X235857767Y-95014238D02*
X235953005Y-94919000D01*
X235953005Y-94919000D02*
X236048243Y-94871380D01*
X236048243Y-94871380D02*
X236238719Y-94871380D01*
X236238719Y-94871380D02*
X236333957Y-94919000D01*
X236333957Y-94919000D02*
X236429195Y-95014238D01*
X236429195Y-95014238D02*
X236476814Y-95204714D01*
X236476814Y-95204714D02*
X236476814Y-95538047D01*
X236476814Y-95538047D02*
X236429195Y-95728523D01*
X236429195Y-95728523D02*
X236333957Y-95823761D01*
X236333957Y-95823761D02*
X236238719Y-95871380D01*
X236238719Y-95871380D02*
X236048243Y-95871380D01*
X236857767Y-94966619D02*
X236905386Y-94919000D01*
X236905386Y-94919000D02*
X237000624Y-94871380D01*
X237000624Y-94871380D02*
X237238719Y-94871380D01*
X237238719Y-94871380D02*
X237333957Y-94919000D01*
X237333957Y-94919000D02*
X237381576Y-94966619D01*
X237381576Y-94966619D02*
X237429195Y-95061857D01*
X237429195Y-95061857D02*
X237429195Y-95157095D01*
X237429195Y-95157095D02*
X237381576Y-95299952D01*
X237381576Y-95299952D02*
X236810148Y-95871380D01*
X236810148Y-95871380D02*
X237429195Y-95871380D01*
%TO.C,TP4*%
X219210095Y-98681380D02*
X219781523Y-98681380D01*
X219495809Y-99681380D02*
X219495809Y-98681380D01*
X220114857Y-99681380D02*
X220114857Y-98681380D01*
X220114857Y-98681380D02*
X220495809Y-98681380D01*
X220495809Y-98681380D02*
X220591047Y-98729000D01*
X220591047Y-98729000D02*
X220638666Y-98776619D01*
X220638666Y-98776619D02*
X220686285Y-98871857D01*
X220686285Y-98871857D02*
X220686285Y-99014714D01*
X220686285Y-99014714D02*
X220638666Y-99109952D01*
X220638666Y-99109952D02*
X220591047Y-99157571D01*
X220591047Y-99157571D02*
X220495809Y-99205190D01*
X220495809Y-99205190D02*
X220114857Y-99205190D01*
X221543428Y-99014714D02*
X221543428Y-99681380D01*
X221305333Y-98633761D02*
X221067238Y-99348047D01*
X221067238Y-99348047D02*
X221686285Y-99348047D01*
%TO.C,JP11*%
X206862148Y-105480380D02*
X206862148Y-106194666D01*
X206862148Y-106194666D02*
X206814529Y-106337523D01*
X206814529Y-106337523D02*
X206719291Y-106432761D01*
X206719291Y-106432761D02*
X206576434Y-106480380D01*
X206576434Y-106480380D02*
X206481196Y-106480380D01*
X207338339Y-106480380D02*
X207338339Y-105480380D01*
X207338339Y-105480380D02*
X207719291Y-105480380D01*
X207719291Y-105480380D02*
X207814529Y-105528000D01*
X207814529Y-105528000D02*
X207862148Y-105575619D01*
X207862148Y-105575619D02*
X207909767Y-105670857D01*
X207909767Y-105670857D02*
X207909767Y-105813714D01*
X207909767Y-105813714D02*
X207862148Y-105908952D01*
X207862148Y-105908952D02*
X207814529Y-105956571D01*
X207814529Y-105956571D02*
X207719291Y-106004190D01*
X207719291Y-106004190D02*
X207338339Y-106004190D01*
X208862148Y-106480380D02*
X208290720Y-106480380D01*
X208576434Y-106480380D02*
X208576434Y-105480380D01*
X208576434Y-105480380D02*
X208481196Y-105623238D01*
X208481196Y-105623238D02*
X208385958Y-105718476D01*
X208385958Y-105718476D02*
X208290720Y-105766095D01*
X209814529Y-106480380D02*
X209243101Y-106480380D01*
X209528815Y-106480380D02*
X209528815Y-105480380D01*
X209528815Y-105480380D02*
X209433577Y-105623238D01*
X209433577Y-105623238D02*
X209338339Y-105718476D01*
X209338339Y-105718476D02*
X209243101Y-105766095D01*
%TO.C,Q5*%
X244506761Y-118064619D02*
X244411523Y-118017000D01*
X244411523Y-118017000D02*
X244316285Y-117921761D01*
X244316285Y-117921761D02*
X244173428Y-117778904D01*
X244173428Y-117778904D02*
X244078190Y-117731285D01*
X244078190Y-117731285D02*
X243982952Y-117731285D01*
X244030571Y-117969380D02*
X243935333Y-117921761D01*
X243935333Y-117921761D02*
X243840095Y-117826523D01*
X243840095Y-117826523D02*
X243792476Y-117636047D01*
X243792476Y-117636047D02*
X243792476Y-117302714D01*
X243792476Y-117302714D02*
X243840095Y-117112238D01*
X243840095Y-117112238D02*
X243935333Y-117017000D01*
X243935333Y-117017000D02*
X244030571Y-116969380D01*
X244030571Y-116969380D02*
X244221047Y-116969380D01*
X244221047Y-116969380D02*
X244316285Y-117017000D01*
X244316285Y-117017000D02*
X244411523Y-117112238D01*
X244411523Y-117112238D02*
X244459142Y-117302714D01*
X244459142Y-117302714D02*
X244459142Y-117636047D01*
X244459142Y-117636047D02*
X244411523Y-117826523D01*
X244411523Y-117826523D02*
X244316285Y-117921761D01*
X244316285Y-117921761D02*
X244221047Y-117969380D01*
X244221047Y-117969380D02*
X244030571Y-117969380D01*
X245363904Y-116969380D02*
X244887714Y-116969380D01*
X244887714Y-116969380D02*
X244840095Y-117445571D01*
X244840095Y-117445571D02*
X244887714Y-117397952D01*
X244887714Y-117397952D02*
X244982952Y-117350333D01*
X244982952Y-117350333D02*
X245221047Y-117350333D01*
X245221047Y-117350333D02*
X245316285Y-117397952D01*
X245316285Y-117397952D02*
X245363904Y-117445571D01*
X245363904Y-117445571D02*
X245411523Y-117540809D01*
X245411523Y-117540809D02*
X245411523Y-117778904D01*
X245411523Y-117778904D02*
X245363904Y-117874142D01*
X245363904Y-117874142D02*
X245316285Y-117921761D01*
X245316285Y-117921761D02*
X245221047Y-117969380D01*
X245221047Y-117969380D02*
X244982952Y-117969380D01*
X244982952Y-117969380D02*
X244887714Y-117921761D01*
X244887714Y-117921761D02*
X244840095Y-117874142D01*
%TO.C,U1*%
X216364767Y-113325380D02*
X216364767Y-114134904D01*
X216364767Y-114134904D02*
X216412386Y-114230142D01*
X216412386Y-114230142D02*
X216460005Y-114277761D01*
X216460005Y-114277761D02*
X216555243Y-114325380D01*
X216555243Y-114325380D02*
X216745719Y-114325380D01*
X216745719Y-114325380D02*
X216840957Y-114277761D01*
X216840957Y-114277761D02*
X216888576Y-114230142D01*
X216888576Y-114230142D02*
X216936195Y-114134904D01*
X216936195Y-114134904D02*
X216936195Y-113325380D01*
X217936195Y-114325380D02*
X217364767Y-114325380D01*
X217650481Y-114325380D02*
X217650481Y-113325380D01*
X217650481Y-113325380D02*
X217555243Y-113468238D01*
X217555243Y-113468238D02*
X217460005Y-113563476D01*
X217460005Y-113563476D02*
X217364767Y-113611095D01*
%TO.C,JP3*%
X248015338Y-112106380D02*
X248015338Y-112820666D01*
X248015338Y-112820666D02*
X247967719Y-112963523D01*
X247967719Y-112963523D02*
X247872481Y-113058761D01*
X247872481Y-113058761D02*
X247729624Y-113106380D01*
X247729624Y-113106380D02*
X247634386Y-113106380D01*
X248491529Y-113106380D02*
X248491529Y-112106380D01*
X248491529Y-112106380D02*
X248872481Y-112106380D01*
X248872481Y-112106380D02*
X248967719Y-112154000D01*
X248967719Y-112154000D02*
X249015338Y-112201619D01*
X249015338Y-112201619D02*
X249062957Y-112296857D01*
X249062957Y-112296857D02*
X249062957Y-112439714D01*
X249062957Y-112439714D02*
X249015338Y-112534952D01*
X249015338Y-112534952D02*
X248967719Y-112582571D01*
X248967719Y-112582571D02*
X248872481Y-112630190D01*
X248872481Y-112630190D02*
X248491529Y-112630190D01*
X249396291Y-112106380D02*
X250015338Y-112106380D01*
X250015338Y-112106380D02*
X249682005Y-112487333D01*
X249682005Y-112487333D02*
X249824862Y-112487333D01*
X249824862Y-112487333D02*
X249920100Y-112534952D01*
X249920100Y-112534952D02*
X249967719Y-112582571D01*
X249967719Y-112582571D02*
X250015338Y-112677809D01*
X250015338Y-112677809D02*
X250015338Y-112915904D01*
X250015338Y-112915904D02*
X249967719Y-113011142D01*
X249967719Y-113011142D02*
X249920100Y-113058761D01*
X249920100Y-113058761D02*
X249824862Y-113106380D01*
X249824862Y-113106380D02*
X249539148Y-113106380D01*
X249539148Y-113106380D02*
X249443910Y-113058761D01*
X249443910Y-113058761D02*
X249396291Y-113011142D01*
%TO.C,TP2*%
X202954095Y-121287380D02*
X203525523Y-121287380D01*
X203239809Y-122287380D02*
X203239809Y-121287380D01*
X203858857Y-122287380D02*
X203858857Y-121287380D01*
X203858857Y-121287380D02*
X204239809Y-121287380D01*
X204239809Y-121287380D02*
X204335047Y-121335000D01*
X204335047Y-121335000D02*
X204382666Y-121382619D01*
X204382666Y-121382619D02*
X204430285Y-121477857D01*
X204430285Y-121477857D02*
X204430285Y-121620714D01*
X204430285Y-121620714D02*
X204382666Y-121715952D01*
X204382666Y-121715952D02*
X204335047Y-121763571D01*
X204335047Y-121763571D02*
X204239809Y-121811190D01*
X204239809Y-121811190D02*
X203858857Y-121811190D01*
X204811238Y-121382619D02*
X204858857Y-121335000D01*
X204858857Y-121335000D02*
X204954095Y-121287380D01*
X204954095Y-121287380D02*
X205192190Y-121287380D01*
X205192190Y-121287380D02*
X205287428Y-121335000D01*
X205287428Y-121335000D02*
X205335047Y-121382619D01*
X205335047Y-121382619D02*
X205382666Y-121477857D01*
X205382666Y-121477857D02*
X205382666Y-121573095D01*
X205382666Y-121573095D02*
X205335047Y-121715952D01*
X205335047Y-121715952D02*
X204763619Y-122287380D01*
X204763619Y-122287380D02*
X205382666Y-122287380D01*
%TO.C,JP16RO1*%
X229129052Y-112224523D02*
X229843338Y-112224523D01*
X229843338Y-112224523D02*
X229986195Y-112272142D01*
X229986195Y-112272142D02*
X230081433Y-112367380D01*
X230081433Y-112367380D02*
X230129052Y-112510237D01*
X230129052Y-112510237D02*
X230129052Y-112605475D01*
X230129052Y-111748332D02*
X229129052Y-111748332D01*
X229129052Y-111748332D02*
X229129052Y-111367380D01*
X229129052Y-111367380D02*
X229176672Y-111272142D01*
X229176672Y-111272142D02*
X229224291Y-111224523D01*
X229224291Y-111224523D02*
X229319529Y-111176904D01*
X229319529Y-111176904D02*
X229462386Y-111176904D01*
X229462386Y-111176904D02*
X229557624Y-111224523D01*
X229557624Y-111224523D02*
X229605243Y-111272142D01*
X229605243Y-111272142D02*
X229652862Y-111367380D01*
X229652862Y-111367380D02*
X229652862Y-111748332D01*
X230129052Y-110224523D02*
X230129052Y-110795951D01*
X230129052Y-110510237D02*
X229129052Y-110510237D01*
X229129052Y-110510237D02*
X229271910Y-110605475D01*
X229271910Y-110605475D02*
X229367148Y-110700713D01*
X229367148Y-110700713D02*
X229414767Y-110795951D01*
X229129052Y-109367380D02*
X229129052Y-109557856D01*
X229129052Y-109557856D02*
X229176672Y-109653094D01*
X229176672Y-109653094D02*
X229224291Y-109700713D01*
X229224291Y-109700713D02*
X229367148Y-109795951D01*
X229367148Y-109795951D02*
X229557624Y-109843570D01*
X229557624Y-109843570D02*
X229938576Y-109843570D01*
X229938576Y-109843570D02*
X230033814Y-109795951D01*
X230033814Y-109795951D02*
X230081433Y-109748332D01*
X230081433Y-109748332D02*
X230129052Y-109653094D01*
X230129052Y-109653094D02*
X230129052Y-109462618D01*
X230129052Y-109462618D02*
X230081433Y-109367380D01*
X230081433Y-109367380D02*
X230033814Y-109319761D01*
X230033814Y-109319761D02*
X229938576Y-109272142D01*
X229938576Y-109272142D02*
X229700481Y-109272142D01*
X229700481Y-109272142D02*
X229605243Y-109319761D01*
X229605243Y-109319761D02*
X229557624Y-109367380D01*
X229557624Y-109367380D02*
X229510005Y-109462618D01*
X229510005Y-109462618D02*
X229510005Y-109653094D01*
X229510005Y-109653094D02*
X229557624Y-109748332D01*
X229557624Y-109748332D02*
X229605243Y-109795951D01*
X229605243Y-109795951D02*
X229700481Y-109843570D01*
X230129052Y-108272142D02*
X229652862Y-108605475D01*
X230129052Y-108843570D02*
X229129052Y-108843570D01*
X229129052Y-108843570D02*
X229129052Y-108462618D01*
X229129052Y-108462618D02*
X229176672Y-108367380D01*
X229176672Y-108367380D02*
X229224291Y-108319761D01*
X229224291Y-108319761D02*
X229319529Y-108272142D01*
X229319529Y-108272142D02*
X229462386Y-108272142D01*
X229462386Y-108272142D02*
X229557624Y-108319761D01*
X229557624Y-108319761D02*
X229605243Y-108367380D01*
X229605243Y-108367380D02*
X229652862Y-108462618D01*
X229652862Y-108462618D02*
X229652862Y-108843570D01*
X229129052Y-107653094D02*
X229129052Y-107462618D01*
X229129052Y-107462618D02*
X229176672Y-107367380D01*
X229176672Y-107367380D02*
X229271910Y-107272142D01*
X229271910Y-107272142D02*
X229462386Y-107224523D01*
X229462386Y-107224523D02*
X229795719Y-107224523D01*
X229795719Y-107224523D02*
X229986195Y-107272142D01*
X229986195Y-107272142D02*
X230081433Y-107367380D01*
X230081433Y-107367380D02*
X230129052Y-107462618D01*
X230129052Y-107462618D02*
X230129052Y-107653094D01*
X230129052Y-107653094D02*
X230081433Y-107748332D01*
X230081433Y-107748332D02*
X229986195Y-107843570D01*
X229986195Y-107843570D02*
X229795719Y-107891189D01*
X229795719Y-107891189D02*
X229462386Y-107891189D01*
X229462386Y-107891189D02*
X229271910Y-107843570D01*
X229271910Y-107843570D02*
X229176672Y-107748332D01*
X229176672Y-107748332D02*
X229129052Y-107653094D01*
X230129052Y-106272142D02*
X230129052Y-106843570D01*
X230129052Y-106557856D02*
X229129052Y-106557856D01*
X229129052Y-106557856D02*
X229271910Y-106653094D01*
X229271910Y-106653094D02*
X229367148Y-106748332D01*
X229367148Y-106748332D02*
X229414767Y-106843570D01*
%TO.C,R6*%
X209341005Y-94830380D02*
X209007672Y-94354190D01*
X208769577Y-94830380D02*
X208769577Y-93830380D01*
X208769577Y-93830380D02*
X209150529Y-93830380D01*
X209150529Y-93830380D02*
X209245767Y-93878000D01*
X209245767Y-93878000D02*
X209293386Y-93925619D01*
X209293386Y-93925619D02*
X209341005Y-94020857D01*
X209341005Y-94020857D02*
X209341005Y-94163714D01*
X209341005Y-94163714D02*
X209293386Y-94258952D01*
X209293386Y-94258952D02*
X209245767Y-94306571D01*
X209245767Y-94306571D02*
X209150529Y-94354190D01*
X209150529Y-94354190D02*
X208769577Y-94354190D01*
X210198148Y-93830380D02*
X210007672Y-93830380D01*
X210007672Y-93830380D02*
X209912434Y-93878000D01*
X209912434Y-93878000D02*
X209864815Y-93925619D01*
X209864815Y-93925619D02*
X209769577Y-94068476D01*
X209769577Y-94068476D02*
X209721958Y-94258952D01*
X209721958Y-94258952D02*
X209721958Y-94639904D01*
X209721958Y-94639904D02*
X209769577Y-94735142D01*
X209769577Y-94735142D02*
X209817196Y-94782761D01*
X209817196Y-94782761D02*
X209912434Y-94830380D01*
X209912434Y-94830380D02*
X210102910Y-94830380D01*
X210102910Y-94830380D02*
X210198148Y-94782761D01*
X210198148Y-94782761D02*
X210245767Y-94735142D01*
X210245767Y-94735142D02*
X210293386Y-94639904D01*
X210293386Y-94639904D02*
X210293386Y-94401809D01*
X210293386Y-94401809D02*
X210245767Y-94306571D01*
X210245767Y-94306571D02*
X210198148Y-94258952D01*
X210198148Y-94258952D02*
X210102910Y-94211333D01*
X210102910Y-94211333D02*
X209912434Y-94211333D01*
X209912434Y-94211333D02*
X209817196Y-94258952D01*
X209817196Y-94258952D02*
X209769577Y-94306571D01*
X209769577Y-94306571D02*
X209721958Y-94401809D01*
%TO.C,TP3*%
X231039767Y-98368380D02*
X231611195Y-98368380D01*
X231325481Y-99368380D02*
X231325481Y-98368380D01*
X231944529Y-99368380D02*
X231944529Y-98368380D01*
X231944529Y-98368380D02*
X232325481Y-98368380D01*
X232325481Y-98368380D02*
X232420719Y-98416000D01*
X232420719Y-98416000D02*
X232468338Y-98463619D01*
X232468338Y-98463619D02*
X232515957Y-98558857D01*
X232515957Y-98558857D02*
X232515957Y-98701714D01*
X232515957Y-98701714D02*
X232468338Y-98796952D01*
X232468338Y-98796952D02*
X232420719Y-98844571D01*
X232420719Y-98844571D02*
X232325481Y-98892190D01*
X232325481Y-98892190D02*
X231944529Y-98892190D01*
X232849291Y-98368380D02*
X233468338Y-98368380D01*
X233468338Y-98368380D02*
X233135005Y-98749333D01*
X233135005Y-98749333D02*
X233277862Y-98749333D01*
X233277862Y-98749333D02*
X233373100Y-98796952D01*
X233373100Y-98796952D02*
X233420719Y-98844571D01*
X233420719Y-98844571D02*
X233468338Y-98939809D01*
X233468338Y-98939809D02*
X233468338Y-99177904D01*
X233468338Y-99177904D02*
X233420719Y-99273142D01*
X233420719Y-99273142D02*
X233373100Y-99320761D01*
X233373100Y-99320761D02*
X233277862Y-99368380D01*
X233277862Y-99368380D02*
X232992148Y-99368380D01*
X232992148Y-99368380D02*
X232896910Y-99320761D01*
X232896910Y-99320761D02*
X232849291Y-99273142D01*
%TO.C,R2*%
X235691005Y-102924380D02*
X235357672Y-102448190D01*
X235119577Y-102924380D02*
X235119577Y-101924380D01*
X235119577Y-101924380D02*
X235500529Y-101924380D01*
X235500529Y-101924380D02*
X235595767Y-101972000D01*
X235595767Y-101972000D02*
X235643386Y-102019619D01*
X235643386Y-102019619D02*
X235691005Y-102114857D01*
X235691005Y-102114857D02*
X235691005Y-102257714D01*
X235691005Y-102257714D02*
X235643386Y-102352952D01*
X235643386Y-102352952D02*
X235595767Y-102400571D01*
X235595767Y-102400571D02*
X235500529Y-102448190D01*
X235500529Y-102448190D02*
X235119577Y-102448190D01*
X236071958Y-102019619D02*
X236119577Y-101972000D01*
X236119577Y-101972000D02*
X236214815Y-101924380D01*
X236214815Y-101924380D02*
X236452910Y-101924380D01*
X236452910Y-101924380D02*
X236548148Y-101972000D01*
X236548148Y-101972000D02*
X236595767Y-102019619D01*
X236595767Y-102019619D02*
X236643386Y-102114857D01*
X236643386Y-102114857D02*
X236643386Y-102210095D01*
X236643386Y-102210095D02*
X236595767Y-102352952D01*
X236595767Y-102352952D02*
X236024339Y-102924380D01*
X236024339Y-102924380D02*
X236643386Y-102924380D01*
%TO.C,Q3*%
X213585933Y-118119619D02*
X213490695Y-118072000D01*
X213490695Y-118072000D02*
X213395457Y-117976761D01*
X213395457Y-117976761D02*
X213252600Y-117833904D01*
X213252600Y-117833904D02*
X213157362Y-117786285D01*
X213157362Y-117786285D02*
X213062124Y-117786285D01*
X213109743Y-118024380D02*
X213014505Y-117976761D01*
X213014505Y-117976761D02*
X212919267Y-117881523D01*
X212919267Y-117881523D02*
X212871648Y-117691047D01*
X212871648Y-117691047D02*
X212871648Y-117357714D01*
X212871648Y-117357714D02*
X212919267Y-117167238D01*
X212919267Y-117167238D02*
X213014505Y-117072000D01*
X213014505Y-117072000D02*
X213109743Y-117024380D01*
X213109743Y-117024380D02*
X213300219Y-117024380D01*
X213300219Y-117024380D02*
X213395457Y-117072000D01*
X213395457Y-117072000D02*
X213490695Y-117167238D01*
X213490695Y-117167238D02*
X213538314Y-117357714D01*
X213538314Y-117357714D02*
X213538314Y-117691047D01*
X213538314Y-117691047D02*
X213490695Y-117881523D01*
X213490695Y-117881523D02*
X213395457Y-117976761D01*
X213395457Y-117976761D02*
X213300219Y-118024380D01*
X213300219Y-118024380D02*
X213109743Y-118024380D01*
X213871648Y-117024380D02*
X214490695Y-117024380D01*
X214490695Y-117024380D02*
X214157362Y-117405333D01*
X214157362Y-117405333D02*
X214300219Y-117405333D01*
X214300219Y-117405333D02*
X214395457Y-117452952D01*
X214395457Y-117452952D02*
X214443076Y-117500571D01*
X214443076Y-117500571D02*
X214490695Y-117595809D01*
X214490695Y-117595809D02*
X214490695Y-117833904D01*
X214490695Y-117833904D02*
X214443076Y-117929142D01*
X214443076Y-117929142D02*
X214395457Y-117976761D01*
X214395457Y-117976761D02*
X214300219Y-118024380D01*
X214300219Y-118024380D02*
X214014505Y-118024380D01*
X214014505Y-118024380D02*
X213919267Y-117976761D01*
X213919267Y-117976761D02*
X213871648Y-117929142D01*
%TO.C,JP15*%
X215689052Y-100347523D02*
X216403338Y-100347523D01*
X216403338Y-100347523D02*
X216546195Y-100395142D01*
X216546195Y-100395142D02*
X216641433Y-100490380D01*
X216641433Y-100490380D02*
X216689052Y-100633237D01*
X216689052Y-100633237D02*
X216689052Y-100728475D01*
X216689052Y-99871332D02*
X215689052Y-99871332D01*
X215689052Y-99871332D02*
X215689052Y-99490380D01*
X215689052Y-99490380D02*
X215736672Y-99395142D01*
X215736672Y-99395142D02*
X215784291Y-99347523D01*
X215784291Y-99347523D02*
X215879529Y-99299904D01*
X215879529Y-99299904D02*
X216022386Y-99299904D01*
X216022386Y-99299904D02*
X216117624Y-99347523D01*
X216117624Y-99347523D02*
X216165243Y-99395142D01*
X216165243Y-99395142D02*
X216212862Y-99490380D01*
X216212862Y-99490380D02*
X216212862Y-99871332D01*
X216689052Y-98347523D02*
X216689052Y-98918951D01*
X216689052Y-98633237D02*
X215689052Y-98633237D01*
X215689052Y-98633237D02*
X215831910Y-98728475D01*
X215831910Y-98728475D02*
X215927148Y-98823713D01*
X215927148Y-98823713D02*
X215974767Y-98918951D01*
X215689052Y-97442761D02*
X215689052Y-97918951D01*
X215689052Y-97918951D02*
X216165243Y-97966570D01*
X216165243Y-97966570D02*
X216117624Y-97918951D01*
X216117624Y-97918951D02*
X216070005Y-97823713D01*
X216070005Y-97823713D02*
X216070005Y-97585618D01*
X216070005Y-97585618D02*
X216117624Y-97490380D01*
X216117624Y-97490380D02*
X216165243Y-97442761D01*
X216165243Y-97442761D02*
X216260481Y-97395142D01*
X216260481Y-97395142D02*
X216498576Y-97395142D01*
X216498576Y-97395142D02*
X216593814Y-97442761D01*
X216593814Y-97442761D02*
X216641433Y-97490380D01*
X216641433Y-97490380D02*
X216689052Y-97585618D01*
X216689052Y-97585618D02*
X216689052Y-97823713D01*
X216689052Y-97823713D02*
X216641433Y-97918951D01*
X216641433Y-97918951D02*
X216593814Y-97966570D01*
%TO.C,R1*%
X239501005Y-97844380D02*
X239167672Y-97368190D01*
X238929577Y-97844380D02*
X238929577Y-96844380D01*
X238929577Y-96844380D02*
X239310529Y-96844380D01*
X239310529Y-96844380D02*
X239405767Y-96892000D01*
X239405767Y-96892000D02*
X239453386Y-96939619D01*
X239453386Y-96939619D02*
X239501005Y-97034857D01*
X239501005Y-97034857D02*
X239501005Y-97177714D01*
X239501005Y-97177714D02*
X239453386Y-97272952D01*
X239453386Y-97272952D02*
X239405767Y-97320571D01*
X239405767Y-97320571D02*
X239310529Y-97368190D01*
X239310529Y-97368190D02*
X238929577Y-97368190D01*
X240453386Y-97844380D02*
X239881958Y-97844380D01*
X240167672Y-97844380D02*
X240167672Y-96844380D01*
X240167672Y-96844380D02*
X240072434Y-96987238D01*
X240072434Y-96987238D02*
X239977196Y-97082476D01*
X239977196Y-97082476D02*
X239881958Y-97130095D01*
%TO.C,R10*%
X248525380Y-103512857D02*
X248049190Y-103846190D01*
X248525380Y-104084285D02*
X247525380Y-104084285D01*
X247525380Y-104084285D02*
X247525380Y-103703333D01*
X247525380Y-103703333D02*
X247573000Y-103608095D01*
X247573000Y-103608095D02*
X247620619Y-103560476D01*
X247620619Y-103560476D02*
X247715857Y-103512857D01*
X247715857Y-103512857D02*
X247858714Y-103512857D01*
X247858714Y-103512857D02*
X247953952Y-103560476D01*
X247953952Y-103560476D02*
X248001571Y-103608095D01*
X248001571Y-103608095D02*
X248049190Y-103703333D01*
X248049190Y-103703333D02*
X248049190Y-104084285D01*
X248525380Y-102560476D02*
X248525380Y-103131904D01*
X248525380Y-102846190D02*
X247525380Y-102846190D01*
X247525380Y-102846190D02*
X247668238Y-102941428D01*
X247668238Y-102941428D02*
X247763476Y-103036666D01*
X247763476Y-103036666D02*
X247811095Y-103131904D01*
X247525380Y-101941428D02*
X247525380Y-101846190D01*
X247525380Y-101846190D02*
X247573000Y-101750952D01*
X247573000Y-101750952D02*
X247620619Y-101703333D01*
X247620619Y-101703333D02*
X247715857Y-101655714D01*
X247715857Y-101655714D02*
X247906333Y-101608095D01*
X247906333Y-101608095D02*
X248144428Y-101608095D01*
X248144428Y-101608095D02*
X248334904Y-101655714D01*
X248334904Y-101655714D02*
X248430142Y-101703333D01*
X248430142Y-101703333D02*
X248477761Y-101750952D01*
X248477761Y-101750952D02*
X248525380Y-101846190D01*
X248525380Y-101846190D02*
X248525380Y-101941428D01*
X248525380Y-101941428D02*
X248477761Y-102036666D01*
X248477761Y-102036666D02*
X248430142Y-102084285D01*
X248430142Y-102084285D02*
X248334904Y-102131904D01*
X248334904Y-102131904D02*
X248144428Y-102179523D01*
X248144428Y-102179523D02*
X247906333Y-102179523D01*
X247906333Y-102179523D02*
X247715857Y-102131904D01*
X247715857Y-102131904D02*
X247620619Y-102084285D01*
X247620619Y-102084285D02*
X247573000Y-102036666D01*
X247573000Y-102036666D02*
X247525380Y-101941428D01*
%TO.C,Q1*%
X242795933Y-102971619D02*
X242700695Y-102924000D01*
X242700695Y-102924000D02*
X242605457Y-102828761D01*
X242605457Y-102828761D02*
X242462600Y-102685904D01*
X242462600Y-102685904D02*
X242367362Y-102638285D01*
X242367362Y-102638285D02*
X242272124Y-102638285D01*
X242319743Y-102876380D02*
X242224505Y-102828761D01*
X242224505Y-102828761D02*
X242129267Y-102733523D01*
X242129267Y-102733523D02*
X242081648Y-102543047D01*
X242081648Y-102543047D02*
X242081648Y-102209714D01*
X242081648Y-102209714D02*
X242129267Y-102019238D01*
X242129267Y-102019238D02*
X242224505Y-101924000D01*
X242224505Y-101924000D02*
X242319743Y-101876380D01*
X242319743Y-101876380D02*
X242510219Y-101876380D01*
X242510219Y-101876380D02*
X242605457Y-101924000D01*
X242605457Y-101924000D02*
X242700695Y-102019238D01*
X242700695Y-102019238D02*
X242748314Y-102209714D01*
X242748314Y-102209714D02*
X242748314Y-102543047D01*
X242748314Y-102543047D02*
X242700695Y-102733523D01*
X242700695Y-102733523D02*
X242605457Y-102828761D01*
X242605457Y-102828761D02*
X242510219Y-102876380D01*
X242510219Y-102876380D02*
X242319743Y-102876380D01*
X243700695Y-102876380D02*
X243129267Y-102876380D01*
X243414981Y-102876380D02*
X243414981Y-101876380D01*
X243414981Y-101876380D02*
X243319743Y-102019238D01*
X243319743Y-102019238D02*
X243224505Y-102114476D01*
X243224505Y-102114476D02*
X243129267Y-102162095D01*
%TO.C,R11*%
X219715052Y-106247857D02*
X219238862Y-106581190D01*
X219715052Y-106819285D02*
X218715052Y-106819285D01*
X218715052Y-106819285D02*
X218715052Y-106438333D01*
X218715052Y-106438333D02*
X218762672Y-106343095D01*
X218762672Y-106343095D02*
X218810291Y-106295476D01*
X218810291Y-106295476D02*
X218905529Y-106247857D01*
X218905529Y-106247857D02*
X219048386Y-106247857D01*
X219048386Y-106247857D02*
X219143624Y-106295476D01*
X219143624Y-106295476D02*
X219191243Y-106343095D01*
X219191243Y-106343095D02*
X219238862Y-106438333D01*
X219238862Y-106438333D02*
X219238862Y-106819285D01*
X219715052Y-105295476D02*
X219715052Y-105866904D01*
X219715052Y-105581190D02*
X218715052Y-105581190D01*
X218715052Y-105581190D02*
X218857910Y-105676428D01*
X218857910Y-105676428D02*
X218953148Y-105771666D01*
X218953148Y-105771666D02*
X219000767Y-105866904D01*
X219715052Y-104343095D02*
X219715052Y-104914523D01*
X219715052Y-104628809D02*
X218715052Y-104628809D01*
X218715052Y-104628809D02*
X218857910Y-104724047D01*
X218857910Y-104724047D02*
X218953148Y-104819285D01*
X218953148Y-104819285D02*
X219000767Y-104914523D01*
%TO.C,D2_Right1*%
X241667380Y-96233809D02*
X240667380Y-96233809D01*
X240667380Y-96233809D02*
X240667380Y-95995714D01*
X240667380Y-95995714D02*
X240715000Y-95852857D01*
X240715000Y-95852857D02*
X240810238Y-95757619D01*
X240810238Y-95757619D02*
X240905476Y-95710000D01*
X240905476Y-95710000D02*
X241095952Y-95662381D01*
X241095952Y-95662381D02*
X241238809Y-95662381D01*
X241238809Y-95662381D02*
X241429285Y-95710000D01*
X241429285Y-95710000D02*
X241524523Y-95757619D01*
X241524523Y-95757619D02*
X241619761Y-95852857D01*
X241619761Y-95852857D02*
X241667380Y-95995714D01*
X241667380Y-95995714D02*
X241667380Y-96233809D01*
X240762619Y-95281428D02*
X240715000Y-95233809D01*
X240715000Y-95233809D02*
X240667380Y-95138571D01*
X240667380Y-95138571D02*
X240667380Y-94900476D01*
X240667380Y-94900476D02*
X240715000Y-94805238D01*
X240715000Y-94805238D02*
X240762619Y-94757619D01*
X240762619Y-94757619D02*
X240857857Y-94710000D01*
X240857857Y-94710000D02*
X240953095Y-94710000D01*
X240953095Y-94710000D02*
X241095952Y-94757619D01*
X241095952Y-94757619D02*
X241667380Y-95329047D01*
X241667380Y-95329047D02*
X241667380Y-94710000D01*
X241762619Y-94519524D02*
X241762619Y-93757619D01*
X241667380Y-92948095D02*
X241191190Y-93281428D01*
X241667380Y-93519523D02*
X240667380Y-93519523D01*
X240667380Y-93519523D02*
X240667380Y-93138571D01*
X240667380Y-93138571D02*
X240715000Y-93043333D01*
X240715000Y-93043333D02*
X240762619Y-92995714D01*
X240762619Y-92995714D02*
X240857857Y-92948095D01*
X240857857Y-92948095D02*
X241000714Y-92948095D01*
X241000714Y-92948095D02*
X241095952Y-92995714D01*
X241095952Y-92995714D02*
X241143571Y-93043333D01*
X241143571Y-93043333D02*
X241191190Y-93138571D01*
X241191190Y-93138571D02*
X241191190Y-93519523D01*
X241667380Y-92519523D02*
X241000714Y-92519523D01*
X240667380Y-92519523D02*
X240715000Y-92567142D01*
X240715000Y-92567142D02*
X240762619Y-92519523D01*
X240762619Y-92519523D02*
X240715000Y-92471904D01*
X240715000Y-92471904D02*
X240667380Y-92519523D01*
X240667380Y-92519523D02*
X240762619Y-92519523D01*
X241000714Y-91614762D02*
X241810238Y-91614762D01*
X241810238Y-91614762D02*
X241905476Y-91662381D01*
X241905476Y-91662381D02*
X241953095Y-91710000D01*
X241953095Y-91710000D02*
X242000714Y-91805238D01*
X242000714Y-91805238D02*
X242000714Y-91948095D01*
X242000714Y-91948095D02*
X241953095Y-92043333D01*
X241619761Y-91614762D02*
X241667380Y-91710000D01*
X241667380Y-91710000D02*
X241667380Y-91900476D01*
X241667380Y-91900476D02*
X241619761Y-91995714D01*
X241619761Y-91995714D02*
X241572142Y-92043333D01*
X241572142Y-92043333D02*
X241476904Y-92090952D01*
X241476904Y-92090952D02*
X241191190Y-92090952D01*
X241191190Y-92090952D02*
X241095952Y-92043333D01*
X241095952Y-92043333D02*
X241048333Y-91995714D01*
X241048333Y-91995714D02*
X241000714Y-91900476D01*
X241000714Y-91900476D02*
X241000714Y-91710000D01*
X241000714Y-91710000D02*
X241048333Y-91614762D01*
X241667380Y-91138571D02*
X240667380Y-91138571D01*
X241667380Y-90710000D02*
X241143571Y-90710000D01*
X241143571Y-90710000D02*
X241048333Y-90757619D01*
X241048333Y-90757619D02*
X241000714Y-90852857D01*
X241000714Y-90852857D02*
X241000714Y-90995714D01*
X241000714Y-90995714D02*
X241048333Y-91090952D01*
X241048333Y-91090952D02*
X241095952Y-91138571D01*
X241000714Y-90376666D02*
X241000714Y-89995714D01*
X240667380Y-90233809D02*
X241524523Y-90233809D01*
X241524523Y-90233809D02*
X241619761Y-90186190D01*
X241619761Y-90186190D02*
X241667380Y-90090952D01*
X241667380Y-90090952D02*
X241667380Y-89995714D01*
X241667380Y-89138571D02*
X241667380Y-89709999D01*
X241667380Y-89424285D02*
X240667380Y-89424285D01*
X240667380Y-89424285D02*
X240810238Y-89519523D01*
X240810238Y-89519523D02*
X240905476Y-89614761D01*
X240905476Y-89614761D02*
X240953095Y-89709999D01*
%TO.C,R4*%
X232461052Y-93325666D02*
X231984862Y-93658999D01*
X232461052Y-93897094D02*
X231461052Y-93897094D01*
X231461052Y-93897094D02*
X231461052Y-93516142D01*
X231461052Y-93516142D02*
X231508672Y-93420904D01*
X231508672Y-93420904D02*
X231556291Y-93373285D01*
X231556291Y-93373285D02*
X231651529Y-93325666D01*
X231651529Y-93325666D02*
X231794386Y-93325666D01*
X231794386Y-93325666D02*
X231889624Y-93373285D01*
X231889624Y-93373285D02*
X231937243Y-93420904D01*
X231937243Y-93420904D02*
X231984862Y-93516142D01*
X231984862Y-93516142D02*
X231984862Y-93897094D01*
X231794386Y-92468523D02*
X232461052Y-92468523D01*
X231413433Y-92706618D02*
X232127719Y-92944713D01*
X232127719Y-92944713D02*
X232127719Y-92325666D01*
%TO.C,R7*%
X222001052Y-106025666D02*
X221524862Y-106358999D01*
X222001052Y-106597094D02*
X221001052Y-106597094D01*
X221001052Y-106597094D02*
X221001052Y-106216142D01*
X221001052Y-106216142D02*
X221048672Y-106120904D01*
X221048672Y-106120904D02*
X221096291Y-106073285D01*
X221096291Y-106073285D02*
X221191529Y-106025666D01*
X221191529Y-106025666D02*
X221334386Y-106025666D01*
X221334386Y-106025666D02*
X221429624Y-106073285D01*
X221429624Y-106073285D02*
X221477243Y-106120904D01*
X221477243Y-106120904D02*
X221524862Y-106216142D01*
X221524862Y-106216142D02*
X221524862Y-106597094D01*
X221001052Y-105692332D02*
X221001052Y-105025666D01*
X221001052Y-105025666D02*
X222001052Y-105454237D01*
%TO.C,JP16*%
X232707052Y-103612523D02*
X233421338Y-103612523D01*
X233421338Y-103612523D02*
X233564195Y-103660142D01*
X233564195Y-103660142D02*
X233659433Y-103755380D01*
X233659433Y-103755380D02*
X233707052Y-103898237D01*
X233707052Y-103898237D02*
X233707052Y-103993475D01*
X233707052Y-103136332D02*
X232707052Y-103136332D01*
X232707052Y-103136332D02*
X232707052Y-102755380D01*
X232707052Y-102755380D02*
X232754672Y-102660142D01*
X232754672Y-102660142D02*
X232802291Y-102612523D01*
X232802291Y-102612523D02*
X232897529Y-102564904D01*
X232897529Y-102564904D02*
X233040386Y-102564904D01*
X233040386Y-102564904D02*
X233135624Y-102612523D01*
X233135624Y-102612523D02*
X233183243Y-102660142D01*
X233183243Y-102660142D02*
X233230862Y-102755380D01*
X233230862Y-102755380D02*
X233230862Y-103136332D01*
X233707052Y-101612523D02*
X233707052Y-102183951D01*
X233707052Y-101898237D02*
X232707052Y-101898237D01*
X232707052Y-101898237D02*
X232849910Y-101993475D01*
X232849910Y-101993475D02*
X232945148Y-102088713D01*
X232945148Y-102088713D02*
X232992767Y-102183951D01*
X232707052Y-100755380D02*
X232707052Y-100945856D01*
X232707052Y-100945856D02*
X232754672Y-101041094D01*
X232754672Y-101041094D02*
X232802291Y-101088713D01*
X232802291Y-101088713D02*
X232945148Y-101183951D01*
X232945148Y-101183951D02*
X233135624Y-101231570D01*
X233135624Y-101231570D02*
X233516576Y-101231570D01*
X233516576Y-101231570D02*
X233611814Y-101183951D01*
X233611814Y-101183951D02*
X233659433Y-101136332D01*
X233659433Y-101136332D02*
X233707052Y-101041094D01*
X233707052Y-101041094D02*
X233707052Y-100850618D01*
X233707052Y-100850618D02*
X233659433Y-100755380D01*
X233659433Y-100755380D02*
X233611814Y-100707761D01*
X233611814Y-100707761D02*
X233516576Y-100660142D01*
X233516576Y-100660142D02*
X233278481Y-100660142D01*
X233278481Y-100660142D02*
X233183243Y-100707761D01*
X233183243Y-100707761D02*
X233135624Y-100755380D01*
X233135624Y-100755380D02*
X233088005Y-100850618D01*
X233088005Y-100850618D02*
X233088005Y-101041094D01*
X233088005Y-101041094D02*
X233135624Y-101136332D01*
X233135624Y-101136332D02*
X233183243Y-101183951D01*
X233183243Y-101183951D02*
X233278481Y-101231570D01*
%TO.C,JP9*%
X248941052Y-104152333D02*
X249655338Y-104152333D01*
X249655338Y-104152333D02*
X249798195Y-104199952D01*
X249798195Y-104199952D02*
X249893433Y-104295190D01*
X249893433Y-104295190D02*
X249941052Y-104438047D01*
X249941052Y-104438047D02*
X249941052Y-104533285D01*
X249941052Y-103676142D02*
X248941052Y-103676142D01*
X248941052Y-103676142D02*
X248941052Y-103295190D01*
X248941052Y-103295190D02*
X248988672Y-103199952D01*
X248988672Y-103199952D02*
X249036291Y-103152333D01*
X249036291Y-103152333D02*
X249131529Y-103104714D01*
X249131529Y-103104714D02*
X249274386Y-103104714D01*
X249274386Y-103104714D02*
X249369624Y-103152333D01*
X249369624Y-103152333D02*
X249417243Y-103199952D01*
X249417243Y-103199952D02*
X249464862Y-103295190D01*
X249464862Y-103295190D02*
X249464862Y-103676142D01*
X249941052Y-102628523D02*
X249941052Y-102438047D01*
X249941052Y-102438047D02*
X249893433Y-102342809D01*
X249893433Y-102342809D02*
X249845814Y-102295190D01*
X249845814Y-102295190D02*
X249702957Y-102199952D01*
X249702957Y-102199952D02*
X249512481Y-102152333D01*
X249512481Y-102152333D02*
X249131529Y-102152333D01*
X249131529Y-102152333D02*
X249036291Y-102199952D01*
X249036291Y-102199952D02*
X248988672Y-102247571D01*
X248988672Y-102247571D02*
X248941052Y-102342809D01*
X248941052Y-102342809D02*
X248941052Y-102533285D01*
X248941052Y-102533285D02*
X248988672Y-102628523D01*
X248988672Y-102628523D02*
X249036291Y-102676142D01*
X249036291Y-102676142D02*
X249131529Y-102723761D01*
X249131529Y-102723761D02*
X249369624Y-102723761D01*
X249369624Y-102723761D02*
X249464862Y-102676142D01*
X249464862Y-102676142D02*
X249512481Y-102628523D01*
X249512481Y-102628523D02*
X249560100Y-102533285D01*
X249560100Y-102533285D02*
X249560100Y-102342809D01*
X249560100Y-102342809D02*
X249512481Y-102247571D01*
X249512481Y-102247571D02*
X249464862Y-102199952D01*
X249464862Y-102199952D02*
X249369624Y-102152333D01*
%TO.C,U2*%
X235603767Y-105636380D02*
X235603767Y-106445904D01*
X235603767Y-106445904D02*
X235651386Y-106541142D01*
X235651386Y-106541142D02*
X235699005Y-106588761D01*
X235699005Y-106588761D02*
X235794243Y-106636380D01*
X235794243Y-106636380D02*
X235984719Y-106636380D01*
X235984719Y-106636380D02*
X236079957Y-106588761D01*
X236079957Y-106588761D02*
X236127576Y-106541142D01*
X236127576Y-106541142D02*
X236175195Y-106445904D01*
X236175195Y-106445904D02*
X236175195Y-105636380D01*
X236603767Y-105731619D02*
X236651386Y-105684000D01*
X236651386Y-105684000D02*
X236746624Y-105636380D01*
X236746624Y-105636380D02*
X236984719Y-105636380D01*
X236984719Y-105636380D02*
X237079957Y-105684000D01*
X237079957Y-105684000D02*
X237127576Y-105731619D01*
X237127576Y-105731619D02*
X237175195Y-105826857D01*
X237175195Y-105826857D02*
X237175195Y-105922095D01*
X237175195Y-105922095D02*
X237127576Y-106064952D01*
X237127576Y-106064952D02*
X236556148Y-106636380D01*
X236556148Y-106636380D02*
X237175195Y-106636380D01*
%TO.C,TP5*%
X244864095Y-108587380D02*
X245435523Y-108587380D01*
X245149809Y-109587380D02*
X245149809Y-108587380D01*
X245768857Y-109587380D02*
X245768857Y-108587380D01*
X245768857Y-108587380D02*
X246149809Y-108587380D01*
X246149809Y-108587380D02*
X246245047Y-108635000D01*
X246245047Y-108635000D02*
X246292666Y-108682619D01*
X246292666Y-108682619D02*
X246340285Y-108777857D01*
X246340285Y-108777857D02*
X246340285Y-108920714D01*
X246340285Y-108920714D02*
X246292666Y-109015952D01*
X246292666Y-109015952D02*
X246245047Y-109063571D01*
X246245047Y-109063571D02*
X246149809Y-109111190D01*
X246149809Y-109111190D02*
X245768857Y-109111190D01*
X247245047Y-108587380D02*
X246768857Y-108587380D01*
X246768857Y-108587380D02*
X246721238Y-109063571D01*
X246721238Y-109063571D02*
X246768857Y-109015952D01*
X246768857Y-109015952D02*
X246864095Y-108968333D01*
X246864095Y-108968333D02*
X247102190Y-108968333D01*
X247102190Y-108968333D02*
X247197428Y-109015952D01*
X247197428Y-109015952D02*
X247245047Y-109063571D01*
X247245047Y-109063571D02*
X247292666Y-109158809D01*
X247292666Y-109158809D02*
X247292666Y-109396904D01*
X247292666Y-109396904D02*
X247245047Y-109492142D01*
X247245047Y-109492142D02*
X247197428Y-109539761D01*
X247197428Y-109539761D02*
X247102190Y-109587380D01*
X247102190Y-109587380D02*
X246864095Y-109587380D01*
X246864095Y-109587380D02*
X246768857Y-109539761D01*
X246768857Y-109539761D02*
X246721238Y-109492142D01*
%TO.C,R8*%
X215625005Y-97141380D02*
X215291672Y-96665190D01*
X215053577Y-97141380D02*
X215053577Y-96141380D01*
X215053577Y-96141380D02*
X215434529Y-96141380D01*
X215434529Y-96141380D02*
X215529767Y-96189000D01*
X215529767Y-96189000D02*
X215577386Y-96236619D01*
X215577386Y-96236619D02*
X215625005Y-96331857D01*
X215625005Y-96331857D02*
X215625005Y-96474714D01*
X215625005Y-96474714D02*
X215577386Y-96569952D01*
X215577386Y-96569952D02*
X215529767Y-96617571D01*
X215529767Y-96617571D02*
X215434529Y-96665190D01*
X215434529Y-96665190D02*
X215053577Y-96665190D01*
X216196434Y-96569952D02*
X216101196Y-96522333D01*
X216101196Y-96522333D02*
X216053577Y-96474714D01*
X216053577Y-96474714D02*
X216005958Y-96379476D01*
X216005958Y-96379476D02*
X216005958Y-96331857D01*
X216005958Y-96331857D02*
X216053577Y-96236619D01*
X216053577Y-96236619D02*
X216101196Y-96189000D01*
X216101196Y-96189000D02*
X216196434Y-96141380D01*
X216196434Y-96141380D02*
X216386910Y-96141380D01*
X216386910Y-96141380D02*
X216482148Y-96189000D01*
X216482148Y-96189000D02*
X216529767Y-96236619D01*
X216529767Y-96236619D02*
X216577386Y-96331857D01*
X216577386Y-96331857D02*
X216577386Y-96379476D01*
X216577386Y-96379476D02*
X216529767Y-96474714D01*
X216529767Y-96474714D02*
X216482148Y-96522333D01*
X216482148Y-96522333D02*
X216386910Y-96569952D01*
X216386910Y-96569952D02*
X216196434Y-96569952D01*
X216196434Y-96569952D02*
X216101196Y-96617571D01*
X216101196Y-96617571D02*
X216053577Y-96665190D01*
X216053577Y-96665190D02*
X216005958Y-96760428D01*
X216005958Y-96760428D02*
X216005958Y-96950904D01*
X216005958Y-96950904D02*
X216053577Y-97046142D01*
X216053577Y-97046142D02*
X216101196Y-97093761D01*
X216101196Y-97093761D02*
X216196434Y-97141380D01*
X216196434Y-97141380D02*
X216386910Y-97141380D01*
X216386910Y-97141380D02*
X216482148Y-97093761D01*
X216482148Y-97093761D02*
X216529767Y-97046142D01*
X216529767Y-97046142D02*
X216577386Y-96950904D01*
X216577386Y-96950904D02*
X216577386Y-96760428D01*
X216577386Y-96760428D02*
X216529767Y-96665190D01*
X216529767Y-96665190D02*
X216482148Y-96617571D01*
X216482148Y-96617571D02*
X216386910Y-96569952D01*
%TO.C,TP1*%
X240292095Y-100459380D02*
X240863523Y-100459380D01*
X240577809Y-101459380D02*
X240577809Y-100459380D01*
X241196857Y-101459380D02*
X241196857Y-100459380D01*
X241196857Y-100459380D02*
X241577809Y-100459380D01*
X241577809Y-100459380D02*
X241673047Y-100507000D01*
X241673047Y-100507000D02*
X241720666Y-100554619D01*
X241720666Y-100554619D02*
X241768285Y-100649857D01*
X241768285Y-100649857D02*
X241768285Y-100792714D01*
X241768285Y-100792714D02*
X241720666Y-100887952D01*
X241720666Y-100887952D02*
X241673047Y-100935571D01*
X241673047Y-100935571D02*
X241577809Y-100983190D01*
X241577809Y-100983190D02*
X241196857Y-100983190D01*
X242720666Y-101459380D02*
X242149238Y-101459380D01*
X242434952Y-101459380D02*
X242434952Y-100459380D01*
X242434952Y-100459380D02*
X242339714Y-100602238D01*
X242339714Y-100602238D02*
X242244476Y-100697476D01*
X242244476Y-100697476D02*
X242149238Y-100745095D01*
%TO.C,R12*%
X213624814Y-102890380D02*
X213291481Y-102414190D01*
X213053386Y-102890380D02*
X213053386Y-101890380D01*
X213053386Y-101890380D02*
X213434338Y-101890380D01*
X213434338Y-101890380D02*
X213529576Y-101938000D01*
X213529576Y-101938000D02*
X213577195Y-101985619D01*
X213577195Y-101985619D02*
X213624814Y-102080857D01*
X213624814Y-102080857D02*
X213624814Y-102223714D01*
X213624814Y-102223714D02*
X213577195Y-102318952D01*
X213577195Y-102318952D02*
X213529576Y-102366571D01*
X213529576Y-102366571D02*
X213434338Y-102414190D01*
X213434338Y-102414190D02*
X213053386Y-102414190D01*
X214577195Y-102890380D02*
X214005767Y-102890380D01*
X214291481Y-102890380D02*
X214291481Y-101890380D01*
X214291481Y-101890380D02*
X214196243Y-102033238D01*
X214196243Y-102033238D02*
X214101005Y-102128476D01*
X214101005Y-102128476D02*
X214005767Y-102176095D01*
X214958148Y-101985619D02*
X215005767Y-101938000D01*
X215005767Y-101938000D02*
X215101005Y-101890380D01*
X215101005Y-101890380D02*
X215339100Y-101890380D01*
X215339100Y-101890380D02*
X215434338Y-101938000D01*
X215434338Y-101938000D02*
X215481957Y-101985619D01*
X215481957Y-101985619D02*
X215529576Y-102080857D01*
X215529576Y-102080857D02*
X215529576Y-102176095D01*
X215529576Y-102176095D02*
X215481957Y-102318952D01*
X215481957Y-102318952D02*
X214910529Y-102890380D01*
X214910529Y-102890380D02*
X215529576Y-102890380D01*
%TO.C,Q4*%
X224332433Y-97553619D02*
X224237195Y-97506000D01*
X224237195Y-97506000D02*
X224141957Y-97410761D01*
X224141957Y-97410761D02*
X223999100Y-97267904D01*
X223999100Y-97267904D02*
X223903862Y-97220285D01*
X223903862Y-97220285D02*
X223808624Y-97220285D01*
X223856243Y-97458380D02*
X223761005Y-97410761D01*
X223761005Y-97410761D02*
X223665767Y-97315523D01*
X223665767Y-97315523D02*
X223618148Y-97125047D01*
X223618148Y-97125047D02*
X223618148Y-96791714D01*
X223618148Y-96791714D02*
X223665767Y-96601238D01*
X223665767Y-96601238D02*
X223761005Y-96506000D01*
X223761005Y-96506000D02*
X223856243Y-96458380D01*
X223856243Y-96458380D02*
X224046719Y-96458380D01*
X224046719Y-96458380D02*
X224141957Y-96506000D01*
X224141957Y-96506000D02*
X224237195Y-96601238D01*
X224237195Y-96601238D02*
X224284814Y-96791714D01*
X224284814Y-96791714D02*
X224284814Y-97125047D01*
X224284814Y-97125047D02*
X224237195Y-97315523D01*
X224237195Y-97315523D02*
X224141957Y-97410761D01*
X224141957Y-97410761D02*
X224046719Y-97458380D01*
X224046719Y-97458380D02*
X223856243Y-97458380D01*
X225141957Y-96791714D02*
X225141957Y-97458380D01*
X224903862Y-96410761D02*
X224665767Y-97125047D01*
X224665767Y-97125047D02*
X225284814Y-97125047D01*
%TO.C,J1*%
X244477380Y-123777333D02*
X245191666Y-123777333D01*
X245191666Y-123777333D02*
X245334523Y-123824952D01*
X245334523Y-123824952D02*
X245429761Y-123920190D01*
X245429761Y-123920190D02*
X245477380Y-124063047D01*
X245477380Y-124063047D02*
X245477380Y-124158285D01*
X245477380Y-122777333D02*
X245477380Y-123348761D01*
X245477380Y-123063047D02*
X244477380Y-123063047D01*
X244477380Y-123063047D02*
X244620238Y-123158285D01*
X244620238Y-123158285D02*
X244715476Y-123253523D01*
X244715476Y-123253523D02*
X244763095Y-123348761D01*
D11*
%TO.C,D6_Right1*%
X247250000Y-101588000D02*
G75*
G03*
X247250000Y-101588000I-100000J0D01*
G01*
D12*
X249150000Y-100818000D02*
X249150000Y-95818000D01*
X249150000Y-95818000D02*
X245150000Y-95818000D01*
X245150000Y-95818000D02*
X245150000Y-100818000D01*
X245150000Y-100818000D02*
X249150000Y-100818000D01*
%TO.C,D6_Front1*%
X225564172Y-94397000D02*
X225564172Y-90397000D01*
X220564172Y-94397000D02*
X225564172Y-94397000D01*
X220564172Y-90397000D02*
X220564172Y-94397000D01*
X225564172Y-90397000D02*
X220564172Y-90397000D01*
D11*
X226434172Y-92397000D02*
G75*
G03*
X226434172Y-92397000I-100000J0D01*
G01*
D12*
%TO.C,D6_Left1*%
X207115672Y-89917000D02*
X203115672Y-89917000D01*
X207115672Y-94917000D02*
X207115672Y-89917000D01*
X203115672Y-94917000D02*
X207115672Y-94917000D01*
X203115672Y-89917000D02*
X203115672Y-94917000D01*
D11*
X205215672Y-89147000D02*
G75*
G03*
X205215672Y-89147000I-100000J0D01*
G01*
D13*
%TO.C,TP6*%
X210395672Y-91573000D02*
X208995672Y-91573000D01*
X210395672Y-90173000D02*
X210395672Y-91573000D01*
X208995672Y-91573000D02*
X208995672Y-90173000D01*
X208995672Y-90173000D02*
X210395672Y-90173000D01*
%TO.C,JP6*%
X212074672Y-103811000D02*
X209274672Y-103811000D01*
X212074672Y-101811000D02*
X212074672Y-103811000D01*
X209274672Y-103811000D02*
X209274672Y-101811000D01*
X209274672Y-101811000D02*
X212074672Y-101811000D01*
%TO.C,Q6*%
X213330172Y-93637000D02*
X215005172Y-93637000D01*
X213330172Y-93637000D02*
X212680172Y-93637000D01*
X213330172Y-90517000D02*
X213980172Y-90517000D01*
X213330172Y-90517000D02*
X212680172Y-90517000D01*
%TO.C,JP18LO1*%
X227205672Y-104930000D02*
X227205672Y-107730000D01*
X225205672Y-104930000D02*
X227205672Y-104930000D01*
X227205672Y-107730000D02*
X225205672Y-107730000D01*
X225205672Y-107730000D02*
X225205672Y-104930000D01*
%TO.C,U3*%
X224649836Y-117485500D02*
X228099836Y-117485500D01*
X224649836Y-117485500D02*
X222699836Y-117485500D01*
X224649836Y-112365500D02*
X226599836Y-112365500D01*
X224649836Y-112365500D02*
X222699836Y-112365500D01*
%TO.C,D3_Left1*%
X208008672Y-96445000D02*
X204148672Y-96445000D01*
X208008672Y-96445000D02*
X208008672Y-99565000D01*
X208138672Y-96735000D02*
X208138672Y-96735000D01*
X208138672Y-96735000D02*
X208008672Y-96735000D01*
X208008672Y-96735000D02*
X208138672Y-96735000D01*
X208008672Y-96735000D02*
X208008672Y-96735000D01*
X208138672Y-99275000D02*
X208138672Y-99275000D01*
X208138672Y-99275000D02*
X208008672Y-99275000D01*
X208008672Y-99275000D02*
X208138672Y-99275000D01*
X208008672Y-99275000D02*
X208008672Y-99275000D01*
X208008672Y-99565000D02*
X204148672Y-99565000D01*
X208008672Y-99565000D02*
X208008672Y-99965000D01*
X206888672Y-99565000D02*
X208008672Y-99565000D01*
X208008672Y-99965000D02*
X206888672Y-99965000D01*
X206888672Y-99965000D02*
X206888672Y-99565000D01*
X204148672Y-96445000D02*
G75*
G03*
X204148672Y-99565000I0J-1560000D01*
G01*
%TO.C,JP17FO1*%
X212981672Y-109285000D02*
X212981672Y-112085000D01*
X210981672Y-109285000D02*
X212981672Y-109285000D01*
X212981672Y-112085000D02*
X210981672Y-112085000D01*
X210981672Y-112085000D02*
X210981672Y-109285000D01*
%TO.C,Q2*%
X237557172Y-91345000D02*
X236907172Y-91345000D01*
X237557172Y-91345000D02*
X238207172Y-91345000D01*
X237557172Y-94465000D02*
X236907172Y-94465000D01*
X237557172Y-94465000D02*
X239232172Y-94465000D01*
%TO.C,TP4*%
X222203672Y-98555000D02*
X223603672Y-98555000D01*
X222203672Y-99955000D02*
X222203672Y-98555000D01*
X223603672Y-98555000D02*
X223603672Y-99955000D01*
X223603672Y-99955000D02*
X222203672Y-99955000D01*
%TO.C,JP11*%
X214143672Y-107113000D02*
X211343672Y-107113000D01*
X214143672Y-105113000D02*
X214143672Y-107113000D01*
X211343672Y-107113000D02*
X211343672Y-105113000D01*
X211343672Y-105113000D02*
X214143672Y-105113000D01*
%TO.C,Q5*%
X244923172Y-116337459D02*
X245573172Y-116337459D01*
X244923172Y-116337459D02*
X244273172Y-116337459D01*
X244923172Y-113217459D02*
X245573172Y-113217459D01*
X244923172Y-113217459D02*
X243248172Y-113217459D01*
%TO.C,U1*%
X217126672Y-113118000D02*
X220576672Y-113118000D01*
X217126672Y-113118000D02*
X215176672Y-113118000D01*
X217126672Y-107998000D02*
X219076672Y-107998000D01*
X217126672Y-107998000D02*
X215176672Y-107998000D01*
%TO.C,JP3*%
X250248672Y-111939000D02*
X247448672Y-111939000D01*
X250248672Y-109939000D02*
X250248672Y-111939000D01*
X247448672Y-111939000D02*
X247448672Y-109939000D01*
X247448672Y-109939000D02*
X250248672Y-109939000D01*
%TO.C,TP2*%
X204916000Y-120334000D02*
X203516000Y-120334000D01*
X204916000Y-118934000D02*
X204916000Y-120334000D01*
X203516000Y-120334000D02*
X203516000Y-118934000D01*
X203516000Y-118934000D02*
X204916000Y-118934000D01*
%TO.C,JP16RO1*%
X227459672Y-108740000D02*
X227459672Y-111540000D01*
X225459672Y-108740000D02*
X227459672Y-108740000D01*
X227459672Y-111540000D02*
X225459672Y-111540000D01*
X225459672Y-111540000D02*
X225459672Y-108740000D01*
%TO.C,TP3*%
X235541672Y-99701000D02*
X234141672Y-99701000D01*
X235541672Y-98301000D02*
X235541672Y-99701000D01*
X234141672Y-99701000D02*
X234141672Y-98301000D01*
X234141672Y-98301000D02*
X235541672Y-98301000D01*
%TO.C,Q3*%
X213681172Y-113697000D02*
X213031172Y-113697000D01*
X213681172Y-113697000D02*
X214331172Y-113697000D01*
X213681172Y-116817000D02*
X213031172Y-116817000D01*
X213681172Y-116817000D02*
X215356172Y-116817000D01*
%TO.C,D1_Front1*%
X230305672Y-95759000D02*
X230305672Y-91899000D01*
X230305672Y-95759000D02*
X227185672Y-95759000D01*
X230015672Y-95889000D02*
X230015672Y-95889000D01*
X230015672Y-95889000D02*
X230015672Y-95759000D01*
X230015672Y-95759000D02*
X230015672Y-95889000D01*
X230015672Y-95759000D02*
X230015672Y-95759000D01*
X227475672Y-95889000D02*
X227475672Y-95889000D01*
X227475672Y-95889000D02*
X227475672Y-95759000D01*
X227475672Y-95759000D02*
X227475672Y-95889000D01*
X227475672Y-95759000D02*
X227475672Y-95759000D01*
X227185672Y-95759000D02*
X227185672Y-91899000D01*
X227185672Y-95759000D02*
X226785672Y-95759000D01*
X227185672Y-94639000D02*
X227185672Y-95759000D01*
X226785672Y-95759000D02*
X226785672Y-94639000D01*
X226785672Y-94639000D02*
X227185672Y-94639000D01*
X230305672Y-91899000D02*
G75*
G03*
X227185672Y-91899000I-1560000J0D01*
G01*
%TO.C,JP15*%
X215521672Y-97638000D02*
X215521672Y-100438000D01*
X213521672Y-97638000D02*
X215521672Y-97638000D01*
X215521672Y-100438000D02*
X213521672Y-100438000D01*
X213521672Y-100438000D02*
X213521672Y-97638000D01*
%TO.C,Q1*%
X242891172Y-103349000D02*
X241216172Y-103349000D01*
X242891172Y-103349000D02*
X243541172Y-103349000D01*
X242891172Y-106469000D02*
X242241172Y-106469000D01*
X242891172Y-106469000D02*
X243541172Y-106469000D01*
%TO.C,D2_Right1*%
X244656672Y-93937000D02*
X248516672Y-93937000D01*
X244656672Y-93937000D02*
X244656672Y-90817000D01*
X244526672Y-93647000D02*
X244526672Y-93647000D01*
X244526672Y-93647000D02*
X244656672Y-93647000D01*
X244656672Y-93647000D02*
X244526672Y-93647000D01*
X244656672Y-93647000D02*
X244656672Y-93647000D01*
X244526672Y-91107000D02*
X244526672Y-91107000D01*
X244526672Y-91107000D02*
X244656672Y-91107000D01*
X244656672Y-91107000D02*
X244526672Y-91107000D01*
X244656672Y-91107000D02*
X244656672Y-91107000D01*
X244656672Y-90817000D02*
X248516672Y-90817000D01*
X244656672Y-90817000D02*
X244656672Y-90417000D01*
X245776672Y-90817000D02*
X244656672Y-90817000D01*
X244656672Y-90417000D02*
X245776672Y-90417000D01*
X245776672Y-90417000D02*
X245776672Y-90817000D01*
X248516672Y-93937000D02*
G75*
G03*
X248516672Y-90817000I0J1560000D01*
G01*
%TO.C,JP16*%
X232539672Y-100903000D02*
X232539672Y-103703000D01*
X230539672Y-100903000D02*
X232539672Y-100903000D01*
X232539672Y-103703000D02*
X230539672Y-103703000D01*
X230539672Y-103703000D02*
X230539672Y-100903000D01*
%TO.C,JP9*%
X248065672Y-107804000D02*
X248065672Y-105004000D01*
X250065672Y-107804000D02*
X248065672Y-107804000D01*
X248065672Y-105004000D02*
X250065672Y-105004000D01*
X250065672Y-105004000D02*
X250065672Y-107804000D01*
%TO.C,U2*%
X236365672Y-107109000D02*
X232915672Y-107109000D01*
X236365672Y-107109000D02*
X238315672Y-107109000D01*
X236365672Y-112229000D02*
X234415672Y-112229000D01*
X236365672Y-112229000D02*
X238315672Y-112229000D01*
%TO.C,TP5*%
X246971672Y-107829000D02*
X245571672Y-107829000D01*
X246971672Y-106429000D02*
X246971672Y-107829000D01*
X245571672Y-107829000D02*
X245571672Y-106429000D01*
X245571672Y-106429000D02*
X246971672Y-106429000D01*
%TO.C,TP1*%
X242399672Y-99955000D02*
X240999672Y-99955000D01*
X242399672Y-98555000D02*
X242399672Y-99955000D01*
X240999672Y-99955000D02*
X240999672Y-98555000D01*
X240999672Y-98555000D02*
X242399672Y-98555000D01*
%TO.C,Q4*%
X226127172Y-98391000D02*
X224452172Y-98391000D01*
X226127172Y-98391000D02*
X226777172Y-98391000D01*
X226127172Y-101511000D02*
X225477172Y-101511000D01*
X226127172Y-101511000D02*
X226777172Y-101511000D01*
%TD*%
%LPC*%
D14*
%TO.C,D6_Right1*%
X247650000Y-97068000D03*
D15*
X247650000Y-99568000D03*
%TD*%
D16*
%TO.C,D6_Front1*%
X224314172Y-91897000D03*
D14*
X221814172Y-91897000D03*
%TD*%
D17*
%TO.C,D6_Left1*%
X204615672Y-91167000D03*
D14*
X204615672Y-93667000D03*
%TD*%
D18*
%TO.C,R9*%
X240175672Y-114144000D03*
X240175672Y-113504000D03*
%TD*%
D19*
%TO.C,TP6*%
X209695671Y-90872999D03*
%TD*%
D20*
%TO.C,R3*%
X236848672Y-96461000D03*
X236208672Y-96461000D03*
%TD*%
D21*
%TO.C,JP6*%
X211399672Y-102811000D03*
D22*
X209949672Y-102811000D03*
%TD*%
D23*
%TO.C,Q6*%
X214267672Y-93027000D03*
X214267672Y-91127000D03*
X212392672Y-92077000D03*
%TD*%
D24*
%TO.C,JP18LO1*%
X226205672Y-105605000D03*
D25*
X226205672Y-107055000D03*
%TD*%
D26*
%TO.C,U3*%
X227124836Y-116830500D03*
X227124836Y-115560500D03*
X227124836Y-114290500D03*
X227124836Y-113020500D03*
X222174836Y-113020500D03*
X222174836Y-114290500D03*
X222174836Y-115560500D03*
X222174836Y-116830500D03*
%TD*%
D27*
%TO.C,D3_Left1*%
X209218671Y-96734999D03*
D28*
X209218672Y-99275000D03*
%TD*%
D20*
%TO.C,R5*%
X218651672Y-115765000D03*
X218011672Y-115765000D03*
%TD*%
D24*
%TO.C,JP17FO1*%
X211981672Y-109960000D03*
D25*
X211981672Y-111410000D03*
%TD*%
D23*
%TO.C,Q2*%
X236619672Y-92905000D03*
X238494672Y-91955000D03*
X238494672Y-93855000D03*
%TD*%
D19*
%TO.C,TP4*%
X222903671Y-99254999D03*
%TD*%
D21*
%TO.C,JP11*%
X213468672Y-106113000D03*
D22*
X212018672Y-106113000D03*
%TD*%
D29*
%TO.C,Q5*%
X245860672Y-114777459D03*
X243985672Y-115727459D03*
X243985672Y-113827459D03*
%TD*%
D26*
%TO.C,U1*%
X219601672Y-112463000D03*
X219601672Y-111193000D03*
X219601672Y-109923000D03*
X219601672Y-108653000D03*
X214651672Y-108653000D03*
X214651672Y-109923000D03*
X214651672Y-111193000D03*
X214651672Y-112463000D03*
%TD*%
D21*
%TO.C,JP3*%
X249573672Y-110939000D03*
D22*
X248123672Y-110939000D03*
%TD*%
D19*
%TO.C,TP2*%
X204215999Y-119633999D03*
%TD*%
D24*
%TO.C,JP16RO1*%
X226459672Y-109415000D03*
D25*
X226459672Y-110865000D03*
%TD*%
D20*
%TO.C,R6*%
X209827672Y-93413000D03*
X209187672Y-93413000D03*
%TD*%
D19*
%TO.C,TP3*%
X234841671Y-99000999D03*
%TD*%
D20*
%TO.C,R2*%
X238209672Y-100271000D03*
X237569672Y-100271000D03*
%TD*%
D23*
%TO.C,Q3*%
X212743672Y-115257000D03*
X214618672Y-114307000D03*
X214618672Y-116207000D03*
%TD*%
D27*
%TO.C,D1_Front1*%
X230015671Y-96968999D03*
D28*
X227475672Y-96969000D03*
%TD*%
D24*
%TO.C,JP15*%
X214521672Y-98313000D03*
D25*
X214521672Y-99763000D03*
%TD*%
D20*
%TO.C,R1*%
X240937672Y-96715000D03*
X241577672Y-96715000D03*
%TD*%
D30*
%TO.C,R10*%
X246525672Y-103959000D03*
X246525672Y-103319000D03*
%TD*%
D29*
%TO.C,Q1*%
X241953672Y-103959000D03*
X241953672Y-105859000D03*
X243828672Y-104909000D03*
%TD*%
D20*
%TO.C,R11*%
X219068672Y-107383000D03*
X218428672Y-107383000D03*
%TD*%
D27*
%TO.C,D2_Right1*%
X243446671Y-93646999D03*
D28*
X243446672Y-91107000D03*
%TD*%
D18*
%TO.C,R4*%
X233363672Y-93479000D03*
X233363672Y-92839000D03*
%TD*%
D20*
%TO.C,R7*%
X220739672Y-107383000D03*
X221379672Y-107383000D03*
%TD*%
D24*
%TO.C,JP16*%
X231539672Y-101578000D03*
D25*
X231539672Y-103028000D03*
%TD*%
D31*
%TO.C,JP9*%
X249065672Y-107129000D03*
D32*
X249065672Y-105679000D03*
%TD*%
D33*
%TO.C,U2*%
X233890672Y-107764000D03*
X233890672Y-109034000D03*
X233890672Y-110304000D03*
X233890672Y-111574000D03*
X238840672Y-111574000D03*
X238840672Y-110304000D03*
X238840672Y-109034000D03*
X238840672Y-107764000D03*
%TD*%
D19*
%TO.C,TP5*%
X246271671Y-107128999D03*
%TD*%
D34*
%TO.C,R8*%
X216142672Y-94429000D03*
X216782672Y-94429000D03*
%TD*%
D19*
%TO.C,TP1*%
X241699671Y-99254999D03*
%TD*%
D34*
%TO.C,R12*%
X213947672Y-103573000D03*
X214587672Y-103573000D03*
%TD*%
D29*
%TO.C,Q4*%
X225189672Y-99001000D03*
X225189672Y-100901000D03*
X227064672Y-99951000D03*
%TD*%
D35*
%TO.C,J1*%
X240537999Y-122681999D03*
D36*
X240537999Y-120141999D03*
X237997999Y-122681999D03*
X237997999Y-120141999D03*
X235457999Y-122681999D03*
X235457999Y-120141999D03*
X232917999Y-122681999D03*
X232917999Y-120141999D03*
X230377999Y-122681999D03*
X230377999Y-120141999D03*
X227837999Y-122681999D03*
X227837999Y-120141999D03*
X225297999Y-122681999D03*
X225297999Y-120141999D03*
X222757999Y-122681999D03*
X222757999Y-120141999D03*
X220217999Y-122681999D03*
X220217999Y-120141999D03*
X217677999Y-122681999D03*
X217677999Y-120141999D03*
X215137999Y-122681999D03*
X215137999Y-120141999D03*
X212597999Y-122681999D03*
X212597999Y-120141999D03*
X210057999Y-122681999D03*
X210057999Y-120141999D03*
X207517999Y-122681999D03*
X207517999Y-120141999D03*
%TD*%
M02*
