M48
; DRILL file {KiCad (7.0.0-0)} date Sunday, 24 March 2024 at 23:26:04
; FORMAT={-:-/ absolute / inch / decimal}
; #@! TF.CreationDate,2024-03-24T23:26:04+02:00
; #@! TF.GenerationSoftware,Kicad,Pcbnew,(7.0.0-0)
; #@! TF.FileFunction,Plated,1,2,PTH
FMAT,2
INCH
; #@! TA.AperFunction,Plated,PTH,ViaDrill
T1C0.0157
; #@! TA.AperFunction,Plated,PTH,ComponentDrill
T2C0.0197
; #@! TA.AperFunction,Plated,PTH,ComponentDrill
T3C0.0327
; #@! TA.AperFunction,Plated,PTH,ComponentDrill
T4C0.0354
; #@! TA.AperFunction,Plated,PTH,ComponentDrill
T5C0.0394
%
G90
G05
T1
X8.3757Y-4.2577
X8.3771Y-4.4429
X8.4857Y-3.7577
X8.4957Y-3.6277
X8.5057Y-3.9977
X8.52Y-4.61
X8.6157Y-3.7777
X8.64Y-4.07
X8.7357Y-4.3777
X8.82Y-4.35
X8.8357Y-4.0577
X9.0257Y-3.9577
X9.0257Y-4.4777
X9.0457Y-4.5477
X9.08Y-4.63
X9.1157Y-4.3277
X9.1357Y-3.7377
X9.1657Y-3.6077
X9.2057Y-3.7377
X9.26Y-4.49
X9.3657Y-3.9077
X9.3857Y-3.7777
X9.4357Y-3.8777
X9.45Y-4.17
X9.49Y-4.44
X9.7Y-4.0
X9.71Y-4.14
X9.78Y-4.3
T2
X8.04Y-4.71
X8.2557Y-3.5777
X8.7757Y-3.9077
X9.2457Y-3.8977
X9.5157Y-3.9077
X9.6957Y-4.2177
T3
X8.0557Y-3.5893
X8.0557Y-3.6877
X8.7328Y-3.618
X8.8313Y-3.618
X9.75Y-3.8216
X9.75Y-3.92
T4
X8.237Y-3.8085
X8.237Y-3.9085
X8.9557Y-3.8177
X9.0557Y-3.8177
X9.5845Y-3.5869
X9.5845Y-3.6869
T5
X8.17Y-4.73
X8.17Y-4.83
X8.27Y-4.73
X8.27Y-4.83
X8.37Y-4.73
X8.37Y-4.83
X8.47Y-4.73
X8.47Y-4.83
X8.57Y-4.73
X8.57Y-4.83
X8.67Y-4.73
X8.67Y-4.83
X8.77Y-4.73
X8.77Y-4.83
X8.87Y-4.73
X8.87Y-4.83
X8.97Y-4.73
X8.97Y-4.83
X9.07Y-4.73
X9.07Y-4.83
X9.17Y-4.73
X9.17Y-4.83
X9.27Y-4.73
X9.27Y-4.83
X9.37Y-4.73
X9.37Y-4.83
X9.47Y-4.73
X9.47Y-4.83
T0
M30
