%TF.GenerationSoftware,KiCad,Pcbnew,(7.0.0-0)*%
%TF.CreationDate,2024-03-24T23:26:04+02:00*%
%TF.ProjectId,MicroMouse Sensor ,4d696372-6f4d-46f7-9573-652053656e73,rev?*%
%TF.SameCoordinates,Original*%
%TF.FileFunction,Soldermask,Bot*%
%TF.FilePolarity,Negative*%
%FSLAX46Y46*%
G04 Gerber Fmt 4.6, Leading zero omitted, Abs format (unit mm)*
G04 Created by KiCad (PCBNEW (7.0.0-0)) date 2024-03-24 23:26:04*
%MOMM*%
%LPD*%
G01*
G04 APERTURE LIST*
G04 Aperture macros list*
%AMRoundRect*
0 Rectangle with rounded corners*
0 $1 Rounding radius*
0 $2 $3 $4 $5 $6 $7 $8 $9 X,Y pos of 4 corners*
0 Add a 4 corners polygon primitive as box body*
4,1,4,$2,$3,$4,$5,$6,$7,$8,$9,$2,$3,0*
0 Add four circle primitives for the rounded corners*
1,1,$1+$1,$2,$3*
1,1,$1+$1,$4,$5*
1,1,$1+$1,$6,$7*
1,1,$1+$1,$8,$9*
0 Add four rect primitives between the rounded corners*
20,1,$1+$1,$2,$3,$4,$5,0*
20,1,$1+$1,$4,$5,$6,$7,0*
20,1,$1+$1,$6,$7,$8,$9,0*
20,1,$1+$1,$8,$9,$2,$3,0*%
G04 Aperture macros list end*
%ADD10C,1.454000*%
%ADD11RoundRect,0.102000X0.625000X-0.625000X0.625000X0.625000X-0.625000X0.625000X-0.625000X-0.625000X0*%
%ADD12RoundRect,0.102000X0.625000X0.625000X-0.625000X0.625000X-0.625000X-0.625000X0.625000X-0.625000X0*%
%ADD13RoundRect,0.102000X-0.625000X0.625000X-0.625000X-0.625000X0.625000X-0.625000X0.625000X0.625000X0*%
%ADD14R,1.000000X1.000000*%
%ADD15R,1.800000X1.800000*%
%ADD16C,1.800000*%
%ADD17R,1.700000X1.700000*%
%ADD18O,1.700000X1.700000*%
G04 APERTURE END LIST*
D10*
%TO.C,D6_Right1*%
X247650000Y-97068000D03*
D11*
X247650000Y-99568000D03*
%TD*%
D12*
%TO.C,D6_Front1*%
X224314172Y-91897000D03*
D10*
X221814172Y-91897000D03*
%TD*%
D13*
%TO.C,D6_Left1*%
X204615672Y-91167000D03*
D10*
X204615672Y-93667000D03*
%TD*%
D14*
%TO.C,TP6*%
X209695671Y-90872999D03*
%TD*%
D15*
%TO.C,D3_Left1*%
X209218671Y-96734999D03*
D16*
X209218672Y-99275000D03*
%TD*%
D14*
%TO.C,TP4*%
X222903671Y-99254999D03*
%TD*%
%TO.C,TP2*%
X204215999Y-119633999D03*
%TD*%
%TO.C,TP3*%
X234841671Y-99000999D03*
%TD*%
D15*
%TO.C,D1_Front1*%
X230015671Y-96968999D03*
D16*
X227475672Y-96969000D03*
%TD*%
D15*
%TO.C,D2_Right1*%
X243446671Y-93646999D03*
D16*
X243446672Y-91107000D03*
%TD*%
D14*
%TO.C,TP5*%
X246271671Y-107128999D03*
%TD*%
%TO.C,TP1*%
X241699671Y-99254999D03*
%TD*%
D17*
%TO.C,J1*%
X240537999Y-122681999D03*
D18*
X240537999Y-120141999D03*
X237997999Y-122681999D03*
X237997999Y-120141999D03*
X235457999Y-122681999D03*
X235457999Y-120141999D03*
X232917999Y-122681999D03*
X232917999Y-120141999D03*
X230377999Y-122681999D03*
X230377999Y-120141999D03*
X227837999Y-122681999D03*
X227837999Y-120141999D03*
X225297999Y-122681999D03*
X225297999Y-120141999D03*
X222757999Y-122681999D03*
X222757999Y-120141999D03*
X220217999Y-122681999D03*
X220217999Y-120141999D03*
X217677999Y-122681999D03*
X217677999Y-120141999D03*
X215137999Y-122681999D03*
X215137999Y-120141999D03*
X212597999Y-122681999D03*
X212597999Y-120141999D03*
X210057999Y-122681999D03*
X210057999Y-120141999D03*
X207517999Y-122681999D03*
X207517999Y-120141999D03*
%TD*%
M02*
