%TF.GenerationSoftware,KiCad,Pcbnew,8.0.0*%
%TF.CreationDate,2024-04-21T04:34:17+02:00*%
%TF.ProjectId,MicroMouse Power,4d696372-6f4d-46f7-9573-6520506f7765,rev?*%
%TF.SameCoordinates,Original*%
%TF.FileFunction,Copper,L1,Top*%
%TF.FilePolarity,Positive*%
%FSLAX46Y46*%
G04 Gerber Fmt 4.6, Leading zero omitted, Abs format (unit mm)*
G04 Created by KiCad (PCBNEW 8.0.0) date 2024-04-21 04:34:17*
%MOMM*%
%LPD*%
G01*
G04 APERTURE LIST*
G04 Aperture macros list*
%AMRoundRect*
0 Rectangle with rounded corners*
0 $1 Rounding radius*
0 $2 $3 $4 $5 $6 $7 $8 $9 X,Y pos of 4 corners*
0 Add a 4 corners polygon primitive as box body*
4,1,4,$2,$3,$4,$5,$6,$7,$8,$9,$2,$3,0*
0 Add four circle primitives for the rounded corners*
1,1,$1+$1,$2,$3*
1,1,$1+$1,$4,$5*
1,1,$1+$1,$6,$7*
1,1,$1+$1,$8,$9*
0 Add four rect primitives between the rounded corners*
20,1,$1+$1,$2,$3,$4,$5,0*
20,1,$1+$1,$4,$5,$6,$7,0*
20,1,$1+$1,$6,$7,$8,$9,0*
20,1,$1+$1,$8,$9,$2,$3,0*%
G04 Aperture macros list end*
%TA.AperFunction,SMDPad,CuDef*%
%ADD10C,1.000000*%
%TD*%
%TA.AperFunction,SMDPad,CuDef*%
%ADD11RoundRect,0.250000X-0.250000X-0.475000X0.250000X-0.475000X0.250000X0.475000X-0.250000X0.475000X0*%
%TD*%
%TA.AperFunction,SMDPad,CuDef*%
%ADD12RoundRect,0.250000X-0.262500X-0.450000X0.262500X-0.450000X0.262500X0.450000X-0.262500X0.450000X0*%
%TD*%
%TA.AperFunction,SMDPad,CuDef*%
%ADD13RoundRect,0.062500X0.187500X0.062500X-0.187500X0.062500X-0.187500X-0.062500X0.187500X-0.062500X0*%
%TD*%
%TA.AperFunction,SMDPad,CuDef*%
%ADD14R,0.900000X1.600000*%
%TD*%
%TA.AperFunction,SMDPad,CuDef*%
%ADD15RoundRect,0.243750X-0.243750X-0.456250X0.243750X-0.456250X0.243750X0.456250X-0.243750X0.456250X0*%
%TD*%
%TA.AperFunction,ComponentPad*%
%ADD16RoundRect,0.250000X-0.625000X0.350000X-0.625000X-0.350000X0.625000X-0.350000X0.625000X0.350000X0*%
%TD*%
%TA.AperFunction,ComponentPad*%
%ADD17O,1.750000X1.200000*%
%TD*%
%TA.AperFunction,SMDPad,CuDef*%
%ADD18RoundRect,0.250000X0.450000X-0.262500X0.450000X0.262500X-0.450000X0.262500X-0.450000X-0.262500X0*%
%TD*%
%TA.AperFunction,SMDPad,CuDef*%
%ADD19RoundRect,0.250000X0.262500X0.450000X-0.262500X0.450000X-0.262500X-0.450000X0.262500X-0.450000X0*%
%TD*%
%TA.AperFunction,SMDPad,CuDef*%
%ADD20RoundRect,0.062500X-0.187500X-0.062500X0.187500X-0.062500X0.187500X0.062500X-0.187500X0.062500X0*%
%TD*%
%TA.AperFunction,SMDPad,CuDef*%
%ADD21RoundRect,0.250000X0.250000X0.475000X-0.250000X0.475000X-0.250000X-0.475000X0.250000X-0.475000X0*%
%TD*%
%TA.AperFunction,SMDPad,CuDef*%
%ADD22R,0.900000X1.400000*%
%TD*%
%TA.AperFunction,SMDPad,CuDef*%
%ADD23R,0.750000X0.850000*%
%TD*%
%TA.AperFunction,SMDPad,CuDef*%
%ADD24RoundRect,0.150000X-0.825000X-0.150000X0.825000X-0.150000X0.825000X0.150000X-0.825000X0.150000X0*%
%TD*%
%TA.AperFunction,HeatsinkPad*%
%ADD25R,2.290000X3.000000*%
%TD*%
%TA.AperFunction,SMDPad,CuDef*%
%ADD26RoundRect,0.218750X-0.218750X-0.256250X0.218750X-0.256250X0.218750X0.256250X-0.218750X0.256250X0*%
%TD*%
%TA.AperFunction,ComponentPad*%
%ADD27R,1.700000X1.700000*%
%TD*%
%TA.AperFunction,ComponentPad*%
%ADD28O,1.700000X1.700000*%
%TD*%
%TA.AperFunction,ViaPad*%
%ADD29C,0.600000*%
%TD*%
%TA.AperFunction,Conductor*%
%ADD30C,0.200000*%
%TD*%
G04 APERTURE END LIST*
D10*
%TO.P,TP5,1,1*%
%TO.N,+5V*%
X195900000Y-58410000D03*
%TD*%
D11*
%TO.P,C5,1*%
%TO.N,BATT*%
X176370000Y-53470000D03*
%TO.P,C5,2*%
%TO.N,GND*%
X178270000Y-53470000D03*
%TD*%
D10*
%TO.P,TP4,1,1*%
%TO.N,BATT*%
X180880000Y-58790000D03*
%TD*%
D11*
%TO.P,C4,1*%
%TO.N,BATT*%
X176560000Y-59240000D03*
%TO.P,C4,2*%
%TO.N,GND*%
X178460000Y-59240000D03*
%TD*%
D12*
%TO.P,R4,1*%
%TO.N,B+*%
X197645000Y-63240000D03*
%TO.P,R4,2*%
%TO.N,BATT_ADC*%
X199470000Y-63240000D03*
%TD*%
D13*
%TO.P,U5,1,VM*%
%TO.N,BATT*%
X195390000Y-55500000D03*
%TO.P,U5,2,OUT1*%
%TO.N,M2_A*%
X195390000Y-55000000D03*
%TO.P,U5,3,OUT2*%
%TO.N,M2_B*%
X195390000Y-54500000D03*
%TO.P,U5,4,GND*%
%TO.N,GND*%
X195390000Y-54000000D03*
%TO.P,U5,5,IN2*%
%TO.N,M2_PWM4*%
X193490000Y-54000000D03*
%TO.P,U5,6,IN1*%
%TO.N,M2_PWM3*%
X193490000Y-54500000D03*
%TO.P,U5,7,~{SLEEP}*%
%TO.N,BATT*%
X193490000Y-55000000D03*
%TO.P,U5,8,VCC*%
X193490000Y-55500000D03*
D14*
%TO.P,U5,9,GND*%
%TO.N,GND*%
X194440000Y-54750000D03*
%TD*%
D15*
%TO.P,D1,1,K*%
%TO.N,Net-(D1-K)*%
X199390000Y-65790000D03*
%TO.P,D1,2,A*%
%TO.N,+5V*%
X201265000Y-65790000D03*
%TD*%
D16*
%TO.P,J2,1,Pin_1*%
%TO.N,B+*%
X201360000Y-54970000D03*
D17*
%TO.P,J2,2,Pin_2*%
%TO.N,GND*%
X201360000Y-56970000D03*
%TD*%
D18*
%TO.P,R3,1*%
%TO.N,Net-(U1-PROG)*%
X191770000Y-55760000D03*
%TO.P,R3,2*%
%TO.N,GND*%
X191770000Y-53935000D03*
%TD*%
D11*
%TO.P,C2,1*%
%TO.N,B+*%
X186800000Y-54860000D03*
%TO.P,C2,2*%
%TO.N,GND*%
X188700000Y-54860000D03*
%TD*%
%TO.P,C3,1*%
%TO.N,BATT*%
X176460000Y-56680000D03*
%TO.P,C3,2*%
%TO.N,GND*%
X178360000Y-56680000D03*
%TD*%
%TO.P,C9,1*%
%TO.N,BATT_ADC*%
X200680000Y-60510000D03*
%TO.P,C9,2*%
%TO.N,GND*%
X202580000Y-60510000D03*
%TD*%
D10*
%TO.P,TP1,1,1*%
%TO.N,B+*%
X195730000Y-61560000D03*
%TD*%
D19*
%TO.P,R1,1*%
%TO.N,Net-(D2-K)*%
X188760000Y-65730000D03*
%TO.P,R1,2*%
%TO.N,Net-(U1-~{STDBY})*%
X186935000Y-65730000D03*
%TD*%
D20*
%TO.P,U4,1,VM*%
%TO.N,BATT*%
X183300000Y-53980000D03*
%TO.P,U4,2,OUT1*%
%TO.N,M1_A*%
X183300000Y-54480000D03*
%TO.P,U4,3,OUT2*%
%TO.N,M1_B*%
X183300000Y-54980000D03*
%TO.P,U4,4,GND*%
%TO.N,GND*%
X183300000Y-55480000D03*
%TO.P,U4,5,IN2*%
%TO.N,M1_PWM2*%
X185200000Y-55480000D03*
%TO.P,U4,6,IN1*%
%TO.N,M1_PWM1*%
X185200000Y-54980000D03*
%TO.P,U4,7,~{SLEEP}*%
%TO.N,BATT*%
X185200000Y-54480000D03*
%TO.P,U4,8,VCC*%
X185200000Y-53980000D03*
D14*
%TO.P,U4,9,GND*%
%TO.N,GND*%
X184250000Y-54730000D03*
%TD*%
D19*
%TO.P,R2,1*%
%TO.N,Net-(D1-K)*%
X197500000Y-65210000D03*
%TO.P,R2,2*%
%TO.N,Net-(U1-~{CHRG})*%
X195675000Y-65210000D03*
%TD*%
D21*
%TO.P,C1,1*%
%TO.N,+5V*%
X186150000Y-63570000D03*
%TO.P,C1,2*%
%TO.N,GND*%
X184250000Y-63570000D03*
%TD*%
D12*
%TO.P,R5,1*%
%TO.N,BATT_ADC*%
X201165000Y-63700000D03*
%TO.P,R5,2*%
%TO.N,GND*%
X202990000Y-63700000D03*
%TD*%
D22*
%TO.P,SW1,1,B*%
%TO.N,B+*%
X176890000Y-63513700D03*
%TO.P,SW1,2,C*%
%TO.N,unconnected-(SW1-C-Pad2)*%
X179890000Y-63513700D03*
%TO.P,SW1,3,A*%
%TO.N,BATT*%
X181390000Y-63513700D03*
D23*
%TO.P,SW1,4*%
%TO.N,N/C*%
X175765000Y-64480700D03*
%TO.P,SW1,5*%
X175765000Y-66630700D03*
%TO.P,SW1,6*%
X182515000Y-64480700D03*
%TO.P,SW1,7*%
X182515000Y-66605700D03*
%TD*%
D11*
%TO.P,C6,1*%
%TO.N,BATT*%
X183120000Y-58210000D03*
%TO.P,C6,2*%
%TO.N,GND*%
X185020000Y-58210000D03*
%TD*%
D24*
%TO.P,U1,1,TEMP*%
%TO.N,GND*%
X188265000Y-58855000D03*
%TO.P,U1,2,PROG*%
%TO.N,Net-(U1-PROG)*%
X188265000Y-60125000D03*
%TO.P,U1,3,GND*%
%TO.N,GND*%
X188265000Y-61395000D03*
%TO.P,U1,4,VCC*%
%TO.N,+5V*%
X188265000Y-62665000D03*
%TO.P,U1,5,BAT*%
%TO.N,B+*%
X193215000Y-62665000D03*
%TO.P,U1,6,~{STDBY}*%
%TO.N,Net-(U1-~{STDBY})*%
X193215000Y-61395000D03*
%TO.P,U1,7,~{CHRG}*%
%TO.N,Net-(U1-~{CHRG})*%
X193215000Y-60125000D03*
%TO.P,U1,8,CE*%
%TO.N,+5V*%
X193215000Y-58855000D03*
D25*
%TO.P,U1,9,PP*%
%TO.N,GND*%
X190740000Y-60760000D03*
%TD*%
D26*
%TO.P,D2,1,K*%
%TO.N,Net-(D2-K)*%
X191292500Y-65120000D03*
%TO.P,D2,2,A*%
%TO.N,+5V*%
X192867500Y-65120000D03*
%TD*%
D27*
%TO.P,J1,1,Pin_1*%
%TO.N,M2_A*%
X198330000Y-49900000D03*
D28*
%TO.P,J1,2,Pin_2*%
%TO.N,M1_PWM1*%
X198330000Y-47360000D03*
%TO.P,J1,3,Pin_3*%
%TO.N,M2_B*%
X195790000Y-49900000D03*
%TO.P,J1,4,Pin_4*%
%TO.N,M1_PWM2*%
X195790000Y-47360000D03*
%TO.P,J1,5,Pin_5*%
%TO.N,GND*%
X193250000Y-49900000D03*
%TO.P,J1,6,Pin_6*%
X193250000Y-47360000D03*
%TO.P,J1,7,Pin_7*%
%TO.N,BATT*%
X190710000Y-49900000D03*
%TO.P,J1,8,Pin_8*%
X190710000Y-47360000D03*
%TO.P,J1,9,Pin_9*%
%TO.N,unconnected-(J1-Pin_9-Pad9)*%
X188170000Y-49900000D03*
%TO.P,J1,10,Pin_10*%
%TO.N,BATT_ADC*%
X188170000Y-47360000D03*
%TO.P,J1,11,Pin_11*%
%TO.N,+5V*%
X185630000Y-49900000D03*
%TO.P,J1,12,Pin_12*%
X185630000Y-47360000D03*
%TO.P,J1,13,Pin_13*%
%TO.N,M1_A*%
X183090000Y-49900000D03*
%TO.P,J1,14,Pin_14*%
%TO.N,M2_PWM3*%
X183090000Y-47360000D03*
%TO.P,J1,15,Pin_15*%
%TO.N,M1_B*%
X180550000Y-49900000D03*
%TO.P,J1,16,Pin_16*%
%TO.N,M2_PWM4*%
X180550000Y-47360000D03*
%TD*%
D29*
%TO.N,+5V*%
X186784100Y-62394100D03*
X189782500Y-58662800D03*
%TO.N,B+*%
X191608600Y-62774100D03*
X187476600Y-53670300D03*
%TO.N,M2_PWM4*%
X193216800Y-53254800D03*
%TO.N,M2_PWM3*%
X190565700Y-54760500D03*
%TO.N,BATT_ADC*%
X198486300Y-58503000D03*
%TD*%
D30*
%TO.N,+5V*%
X186467400Y-66760700D02*
X191226800Y-66760700D01*
X191226800Y-66760700D02*
X192867500Y-65120000D01*
X187055000Y-62665000D02*
X186150000Y-63570000D01*
X194542600Y-66795100D02*
X200259900Y-66795100D01*
X193215000Y-58855000D02*
X193022800Y-58662800D01*
X193660000Y-58410000D02*
X195900000Y-58410000D01*
X192867500Y-65120000D02*
X194542600Y-66795100D01*
X193215000Y-58855000D02*
X193660000Y-58410000D01*
X186150000Y-63570000D02*
X186099700Y-63620300D01*
X186784100Y-62394100D02*
X187055000Y-62665000D01*
X186099700Y-63620300D02*
X186099700Y-66393000D01*
X188265000Y-62665000D02*
X187055000Y-62665000D01*
X200259900Y-66795100D02*
X201265000Y-65790000D01*
X193022800Y-58662800D02*
X189782500Y-58662800D01*
X186099700Y-66393000D02*
X186467400Y-66760700D01*
%TO.N,B+*%
X202110600Y-65135700D02*
X201720000Y-64745100D01*
X178240000Y-64340000D02*
X179140000Y-65240000D01*
X191717700Y-62665000D02*
X191608600Y-62774100D01*
X201165800Y-54970000D02*
X201360000Y-54970000D01*
X197410000Y-63240000D02*
X197645000Y-63240000D01*
X178240000Y-62530000D02*
X178240000Y-64340000D01*
X193215000Y-62665000D02*
X191717700Y-62665000D01*
X199150100Y-64745100D02*
X197645000Y-63240000D01*
X180711200Y-67334900D02*
X201197100Y-67334900D01*
X186800000Y-54860000D02*
X186800000Y-54346900D01*
X201197100Y-67334900D02*
X202110600Y-66421400D01*
X178070000Y-62360000D02*
X178240000Y-62530000D01*
X176890000Y-63513700D02*
X176890000Y-62540000D01*
X179140000Y-65763700D02*
X180711200Y-67334900D01*
X202110600Y-66421400D02*
X202110600Y-65135700D01*
X186800000Y-54346900D02*
X187476600Y-53670300D01*
X177070000Y-62360000D02*
X178070000Y-62360000D01*
X195730000Y-61560000D02*
X197410000Y-63240000D01*
X195730000Y-60405800D02*
X201165800Y-54970000D01*
X179140000Y-65240000D02*
X179140000Y-65763700D01*
X176890000Y-62540000D02*
X177070000Y-62360000D01*
X195730000Y-61560000D02*
X195730000Y-60405800D01*
X201720000Y-64745100D02*
X199150100Y-64745100D01*
%TO.N,Net-(D1-K)*%
X198080000Y-65790000D02*
X197500000Y-65210000D01*
X199390000Y-65790000D02*
X198080000Y-65790000D01*
%TO.N,Net-(D2-K)*%
X188760000Y-65730000D02*
X190682500Y-65730000D01*
X190682500Y-65730000D02*
X191292500Y-65120000D01*
%TO.N,M2_PWM4*%
X193216800Y-53726800D02*
X193490000Y-54000000D01*
X193216800Y-53254800D02*
X193216800Y-53726800D01*
%TO.N,M2_PWM3*%
X193156500Y-54500000D02*
X192896000Y-54760500D01*
X192896000Y-54760500D02*
X190565700Y-54760500D01*
X193490000Y-54500000D02*
X193156500Y-54500000D01*
%TO.N,M1_A*%
X183034500Y-54480000D02*
X183300000Y-54480000D01*
X183090000Y-51051700D02*
X182743400Y-51398300D01*
X182743400Y-51398300D02*
X182743400Y-54188900D01*
X183090000Y-49900000D02*
X183090000Y-51051700D01*
X182743400Y-54188900D02*
X183034500Y-54480000D01*
%TO.N,M2_B*%
X195790000Y-49900000D02*
X195790000Y-51051700D01*
X195943700Y-51205400D02*
X195943700Y-54211800D01*
X195655500Y-54500000D02*
X195390000Y-54500000D01*
X195943700Y-54211800D02*
X195655500Y-54500000D01*
X195790000Y-51051700D02*
X195943700Y-51205400D01*
%TO.N,M1_PWM2*%
X188470500Y-53832300D02*
X191980000Y-50322800D01*
X185200000Y-55480000D02*
X185607700Y-55887700D01*
X187602700Y-55563800D02*
X187602700Y-54428000D01*
X188198400Y-53832300D02*
X188470500Y-53832300D01*
X193636800Y-48630000D02*
X194638300Y-47628500D01*
X191980000Y-49540700D02*
X192890700Y-48630000D01*
X187278800Y-55887700D02*
X187602700Y-55563800D01*
X194638300Y-47628500D02*
X194638300Y-47360000D01*
X185607700Y-55887700D02*
X187278800Y-55887700D01*
X192890700Y-48630000D02*
X193636800Y-48630000D01*
X195790000Y-47360000D02*
X194638300Y-47360000D01*
X187602700Y-54428000D02*
X188198400Y-53832300D01*
X191980000Y-50322800D02*
X191980000Y-49540700D01*
%TO.N,BATT_ADC*%
X200680000Y-60510000D02*
X200680000Y-63240000D01*
X198673000Y-58503000D02*
X200680000Y-60510000D01*
X199470000Y-63240000D02*
X200680000Y-63240000D01*
X198486300Y-58503000D02*
X198673000Y-58503000D01*
X200705000Y-63240000D02*
X201165000Y-63700000D01*
X200680000Y-63240000D02*
X200705000Y-63240000D01*
%TO.N,BATT*%
X177630100Y-60310100D02*
X179359900Y-60310100D01*
X176960000Y-52880000D02*
X176960000Y-52540000D01*
X177150000Y-52350000D02*
X178760000Y-52350000D01*
X184360000Y-53140000D02*
X185200000Y-53980000D01*
X185200000Y-54480000D02*
X185200000Y-53980000D01*
X196258900Y-46193000D02*
X192760200Y-46193000D01*
X176560000Y-59240000D02*
X177630100Y-60310100D01*
X181460000Y-58210000D02*
X180880000Y-58790000D01*
X176460000Y-56680000D02*
X176460000Y-59140000D01*
X195912700Y-55500000D02*
X199483300Y-51929400D01*
X186024100Y-48630000D02*
X186900000Y-47754100D01*
X176460000Y-59140000D02*
X176560000Y-59240000D01*
X176960000Y-52540000D02*
X177150000Y-52350000D01*
X176370000Y-53470000D02*
X176460000Y-53560000D01*
X195038300Y-55851700D02*
X193841700Y-55851700D01*
X184360000Y-49297800D02*
X185027800Y-48630000D01*
X192760200Y-46193000D02*
X191861700Y-47091500D01*
X176370000Y-53470000D02*
X176960000Y-52880000D01*
X179200000Y-52090000D02*
X179170000Y-52060000D01*
X199483300Y-51929400D02*
X199483300Y-48523400D01*
X197060000Y-46994100D02*
X196258900Y-46193000D01*
X188477100Y-45351500D02*
X197989100Y-45351500D01*
X176460000Y-53560000D02*
X176664400Y-53560000D01*
X179200000Y-52330000D02*
X179200000Y-52090000D01*
X199483300Y-48523400D02*
X197805100Y-48523400D01*
X195390000Y-55500000D02*
X195038300Y-55851700D01*
X197060000Y-47778300D02*
X197060000Y-46994100D01*
X184360000Y-53140000D02*
X184140000Y-53140000D01*
X179359900Y-60310100D02*
X181390000Y-62340200D01*
X197989100Y-45351500D02*
X199483300Y-46845700D01*
X183120000Y-58210000D02*
X181460000Y-58210000D01*
X183810500Y-48748300D02*
X184360000Y-49297800D01*
X190710000Y-47360000D02*
X191861700Y-47360000D01*
X176460000Y-53560000D02*
X176460000Y-56680000D01*
X193841700Y-55851700D02*
X193490000Y-55500000D01*
X178760000Y-52350000D02*
X178770000Y-52340000D01*
X193490000Y-55000000D02*
X193490000Y-55500000D01*
X186900000Y-47754100D02*
X186900000Y-46928600D01*
X179170000Y-49510000D02*
X179931700Y-48748300D01*
X184140000Y-53140000D02*
X183300000Y-53980000D01*
X179190000Y-52340000D02*
X179200000Y-52330000D01*
X179170000Y-52060000D02*
X179170000Y-49510000D01*
X186900000Y-46928600D02*
X188477100Y-45351500D01*
X179931700Y-48748300D02*
X183810500Y-48748300D01*
X179359900Y-60310100D02*
X180880000Y-58790000D01*
X184360000Y-49297800D02*
X184360000Y-53140000D01*
X197805100Y-48523400D02*
X197060000Y-47778300D01*
X191861700Y-47091500D02*
X191861700Y-47360000D01*
X181390000Y-62340200D02*
X181390000Y-63513700D01*
X199483300Y-46845700D02*
X199483300Y-48523400D01*
X195390000Y-55500000D02*
X195912700Y-55500000D01*
X185027800Y-48630000D02*
X186024100Y-48630000D01*
X178770000Y-52340000D02*
X179190000Y-52340000D01*
%TO.N,M2_A*%
X198330000Y-49900000D02*
X198330000Y-51051700D01*
X195774200Y-55000000D02*
X195390000Y-55000000D01*
X198330000Y-52444200D02*
X195774200Y-55000000D01*
X198330000Y-51051700D02*
X198330000Y-52444200D01*
%TO.N,M1_B*%
X180550000Y-49900000D02*
X180550000Y-52596200D01*
X180550000Y-52596200D02*
X182933800Y-54980000D01*
X182933800Y-54980000D02*
X183300000Y-54980000D01*
%TO.N,M1_PWM1*%
X190649200Y-45784800D02*
X196754800Y-45784800D01*
X185824800Y-52534100D02*
X186900000Y-51458900D01*
X185824800Y-54636500D02*
X185824800Y-52534100D01*
X188588300Y-48630000D02*
X189440000Y-47778300D01*
X189440000Y-47778300D02*
X189440000Y-46994000D01*
X186900000Y-51458900D02*
X186900000Y-49481600D01*
X185200000Y-54980000D02*
X185481300Y-54980000D01*
X186900000Y-49481600D02*
X187751600Y-48630000D01*
X185481300Y-54980000D02*
X185824800Y-54636500D01*
X196754800Y-45784800D02*
X198330000Y-47360000D01*
X187751600Y-48630000D02*
X188588300Y-48630000D01*
X189440000Y-46994000D02*
X190649200Y-45784800D01*
%TO.N,Net-(U1-~{STDBY})*%
X194501300Y-63016100D02*
X194501300Y-62289100D01*
X186935000Y-65730000D02*
X188796800Y-63868200D01*
X188796800Y-63868200D02*
X193649200Y-63868200D01*
X194501300Y-62289100D02*
X193607200Y-61395000D01*
X193649200Y-63868200D02*
X194501300Y-63016100D01*
X193607200Y-61395000D02*
X193215000Y-61395000D01*
%TO.N,Net-(U1-~{CHRG})*%
X194630400Y-61141700D02*
X194630400Y-61722100D01*
X193613700Y-60125000D02*
X194630400Y-61141700D01*
X195675000Y-62766700D02*
X195675000Y-65210000D01*
X193215000Y-60125000D02*
X193613700Y-60125000D01*
X194630400Y-61722100D02*
X195675000Y-62766700D01*
%TO.N,Net-(U1-PROG)*%
X187903000Y-60125000D02*
X186983400Y-59205400D01*
X186983400Y-58510500D02*
X189733900Y-55760000D01*
X186983400Y-59205400D02*
X186983400Y-58510500D01*
X188265000Y-60125000D02*
X187903000Y-60125000D01*
X189733900Y-55760000D02*
X191770000Y-55760000D01*
%TO.N,GND*%
X188656600Y-58855000D02*
X188265000Y-58855000D01*
X191770000Y-53935000D02*
X191770000Y-53817700D01*
X194440000Y-54750000D02*
X194440000Y-53711500D01*
X178460000Y-59240000D02*
X178360000Y-59140000D01*
X185020000Y-58210000D02*
X185020000Y-56601700D01*
X194440000Y-53711500D02*
X195101500Y-53711500D01*
X188265000Y-61395000D02*
X188658300Y-61395000D01*
X186483900Y-61336100D02*
X184250000Y-63570000D01*
X184250000Y-55518400D02*
X183338400Y-55518400D01*
X202990000Y-63700000D02*
X202990000Y-60920000D01*
X188658300Y-61395000D02*
X189293300Y-60760000D01*
X184250000Y-55518400D02*
X184250000Y-55831700D01*
X189625000Y-53935000D02*
X188700000Y-54860000D01*
X191770000Y-53935000D02*
X189625000Y-53935000D01*
X190484700Y-60760000D02*
X190484700Y-60683100D01*
X193204000Y-51428500D02*
X193204000Y-52383600D01*
X190484700Y-60760000D02*
X189293300Y-60760000D01*
X191770000Y-53817700D02*
X193204100Y-52383600D01*
X185020000Y-56601700D02*
X187132800Y-56601700D01*
X194440000Y-53619600D02*
X194440000Y-53711500D01*
X188265000Y-61395000D02*
X186542800Y-61395000D01*
X202580000Y-59091700D02*
X201360000Y-57871700D01*
X186483900Y-61336100D02*
X185020000Y-59872200D01*
X183338400Y-55518400D02*
X183300000Y-55480000D01*
X190484700Y-60683100D02*
X188656600Y-58855000D01*
X185020000Y-56601700D02*
X184250000Y-55831700D01*
X202990000Y-60920000D02*
X202580000Y-60510000D01*
X183300000Y-55480000D02*
X179560000Y-55480000D01*
X185020000Y-59872200D02*
X185020000Y-58210000D01*
X188700000Y-55034500D02*
X188700000Y-54860000D01*
X193250000Y-49900000D02*
X193250000Y-51051700D01*
X193204100Y-52383600D02*
X194440000Y-53619600D01*
X186542800Y-61395000D02*
X186483900Y-61336100D01*
X179560000Y-55480000D02*
X179560000Y-54760000D01*
X202580000Y-60510000D02*
X202580000Y-59091700D01*
X193250000Y-51382500D02*
X193204000Y-51428500D01*
X201360000Y-56970000D02*
X201360000Y-57871700D01*
X178360000Y-59140000D02*
X178360000Y-56680000D01*
X190740000Y-60760000D02*
X190484700Y-60760000D01*
X179560000Y-55480000D02*
X178360000Y-56680000D01*
X193250000Y-51051700D02*
X193250000Y-51382500D01*
X184250000Y-54730000D02*
X184250000Y-55518400D01*
X193204000Y-52383600D02*
X193204100Y-52383600D01*
X187132800Y-56601700D02*
X188700000Y-55034500D01*
X179560000Y-54760000D02*
X178270000Y-53470000D01*
X195101500Y-53711500D02*
X195390000Y-54000000D01*
%TD*%
%TA.AperFunction,Conductor*%
%TO.N,GND*%
G36*
X200238397Y-51978773D02*
G01*
X200277266Y-52005080D01*
X200312686Y-52040500D01*
X200426814Y-52106392D01*
X200554108Y-52140500D01*
X204145500Y-52140500D01*
X204212539Y-52160185D01*
X204258294Y-52212989D01*
X204269500Y-52264500D01*
X204269500Y-67605500D01*
X204249815Y-67672539D01*
X204197011Y-67718294D01*
X204145500Y-67729500D01*
X201951096Y-67729500D01*
X201884057Y-67709815D01*
X201838302Y-67657011D01*
X201828358Y-67587853D01*
X201857383Y-67524297D01*
X201863415Y-67517819D01*
X202083206Y-67298028D01*
X202479313Y-66901921D01*
X202479316Y-66901920D01*
X202591120Y-66790116D01*
X202641239Y-66703304D01*
X202670177Y-66653185D01*
X202711100Y-66500457D01*
X202711100Y-66342343D01*
X202711100Y-65224759D01*
X202711101Y-65224746D01*
X202711101Y-65056645D01*
X202711101Y-65056643D01*
X202702634Y-65025044D01*
X202704297Y-64955196D01*
X202734728Y-64905271D01*
X202740000Y-64899999D01*
X202740000Y-63950000D01*
X203240000Y-63950000D01*
X203240000Y-64899999D01*
X203302472Y-64899999D01*
X203302486Y-64899998D01*
X203405197Y-64889505D01*
X203571619Y-64834358D01*
X203571624Y-64834356D01*
X203720845Y-64742315D01*
X203844815Y-64618345D01*
X203936856Y-64469124D01*
X203936858Y-64469119D01*
X203992005Y-64302697D01*
X203992006Y-64302690D01*
X204002499Y-64199986D01*
X204002500Y-64199973D01*
X204002500Y-63950000D01*
X203240000Y-63950000D01*
X202740000Y-63950000D01*
X202740000Y-62500000D01*
X203240000Y-62500000D01*
X203240000Y-63450000D01*
X204002499Y-63450000D01*
X204002499Y-63200028D01*
X204002498Y-63200013D01*
X203992005Y-63097302D01*
X203936858Y-62930880D01*
X203936856Y-62930875D01*
X203844815Y-62781654D01*
X203720845Y-62657684D01*
X203571624Y-62565643D01*
X203571619Y-62565641D01*
X203405197Y-62510494D01*
X203405190Y-62510493D01*
X203302486Y-62500000D01*
X203240000Y-62500000D01*
X202740000Y-62500000D01*
X202739999Y-62499999D01*
X202677528Y-62500000D01*
X202677511Y-62500001D01*
X202574802Y-62510494D01*
X202408380Y-62565641D01*
X202408375Y-62565643D01*
X202259157Y-62657682D01*
X202165534Y-62751305D01*
X202104210Y-62784789D01*
X202034519Y-62779805D01*
X201990172Y-62751304D01*
X201896157Y-62657289D01*
X201896156Y-62657288D01*
X201756862Y-62571371D01*
X201746836Y-62565187D01*
X201746831Y-62565185D01*
X201745362Y-62564698D01*
X201580297Y-62510001D01*
X201580295Y-62510000D01*
X201477516Y-62499500D01*
X201477509Y-62499500D01*
X201404500Y-62499500D01*
X201337461Y-62479815D01*
X201291706Y-62427011D01*
X201280500Y-62375500D01*
X201280500Y-61719797D01*
X201300185Y-61652758D01*
X201339403Y-61614258D01*
X201398656Y-61577712D01*
X201522712Y-61453656D01*
X201524752Y-61450347D01*
X201526745Y-61448555D01*
X201527193Y-61447989D01*
X201527289Y-61448065D01*
X201576694Y-61403623D01*
X201645656Y-61392395D01*
X201709740Y-61420234D01*
X201735829Y-61450339D01*
X201737681Y-61453341D01*
X201737683Y-61453344D01*
X201861654Y-61577315D01*
X202010875Y-61669356D01*
X202010880Y-61669358D01*
X202177302Y-61724505D01*
X202177309Y-61724506D01*
X202280019Y-61734999D01*
X202329999Y-61734998D01*
X202330000Y-61734998D01*
X202330000Y-60760000D01*
X202830000Y-60760000D01*
X202830000Y-61734999D01*
X202879972Y-61734999D01*
X202879986Y-61734998D01*
X202982697Y-61724505D01*
X203149119Y-61669358D01*
X203149124Y-61669356D01*
X203298345Y-61577315D01*
X203422315Y-61453345D01*
X203514356Y-61304124D01*
X203514358Y-61304119D01*
X203569505Y-61137697D01*
X203569506Y-61137690D01*
X203579999Y-61034986D01*
X203580000Y-61034973D01*
X203580000Y-60760000D01*
X202830000Y-60760000D01*
X202330000Y-60760000D01*
X202330000Y-59285000D01*
X202830000Y-59285000D01*
X202830000Y-60260000D01*
X203579999Y-60260000D01*
X203579999Y-59985028D01*
X203579998Y-59985013D01*
X203569505Y-59882302D01*
X203514358Y-59715880D01*
X203514356Y-59715875D01*
X203422315Y-59566654D01*
X203298345Y-59442684D01*
X203149124Y-59350643D01*
X203149119Y-59350641D01*
X202982697Y-59295494D01*
X202982690Y-59295493D01*
X202879986Y-59285000D01*
X202830000Y-59285000D01*
X202330000Y-59285000D01*
X202329999Y-59284999D01*
X202280029Y-59285000D01*
X202280011Y-59285001D01*
X202177302Y-59295494D01*
X202010880Y-59350641D01*
X202010875Y-59350643D01*
X201861654Y-59442684D01*
X201737683Y-59566655D01*
X201737679Y-59566660D01*
X201735826Y-59569665D01*
X201734018Y-59571290D01*
X201733202Y-59572323D01*
X201733025Y-59572183D01*
X201683874Y-59616385D01*
X201614911Y-59627601D01*
X201550831Y-59599752D01*
X201524753Y-59569653D01*
X201524737Y-59569628D01*
X201522712Y-59566344D01*
X201398656Y-59442288D01*
X201249334Y-59350186D01*
X201082797Y-59295001D01*
X201082795Y-59295000D01*
X200980010Y-59284500D01*
X200379999Y-59284500D01*
X200379985Y-59284501D01*
X200369415Y-59285581D01*
X200300723Y-59272807D01*
X200269139Y-59249903D01*
X199253296Y-58234061D01*
X199223935Y-58187333D01*
X199223790Y-58186920D01*
X199212089Y-58153478D01*
X199154798Y-58062300D01*
X199117860Y-58003513D01*
X199098860Y-57936276D01*
X199119228Y-57869441D01*
X199135168Y-57849865D01*
X199806558Y-57178475D01*
X199867879Y-57144992D01*
X199937571Y-57149976D01*
X199993504Y-57191848D01*
X200012168Y-57227839D01*
X200065591Y-57392257D01*
X200144195Y-57546524D01*
X200245967Y-57686602D01*
X200368397Y-57809032D01*
X200508475Y-57910804D01*
X200662742Y-57989408D01*
X200827415Y-58042914D01*
X200998429Y-58070000D01*
X201110000Y-58070000D01*
X201110000Y-57250330D01*
X201129745Y-57270075D01*
X201215255Y-57319444D01*
X201310630Y-57345000D01*
X201409370Y-57345000D01*
X201504745Y-57319444D01*
X201590255Y-57270075D01*
X201610000Y-57250330D01*
X201610000Y-58070000D01*
X201721571Y-58070000D01*
X201892584Y-58042914D01*
X202057257Y-57989408D01*
X202211524Y-57910804D01*
X202351602Y-57809032D01*
X202474032Y-57686602D01*
X202575804Y-57546524D01*
X202654408Y-57392255D01*
X202707914Y-57227584D01*
X202709115Y-57220000D01*
X201640330Y-57220000D01*
X201660075Y-57200255D01*
X201709444Y-57114745D01*
X201735000Y-57019370D01*
X201735000Y-56920630D01*
X201709444Y-56825255D01*
X201660075Y-56739745D01*
X201640330Y-56720000D01*
X202709115Y-56720000D01*
X202709115Y-56719999D01*
X202707914Y-56712415D01*
X202654408Y-56547744D01*
X202575804Y-56393475D01*
X202474032Y-56253397D01*
X202366434Y-56145799D01*
X202332949Y-56084476D01*
X202337933Y-56014784D01*
X202379805Y-55958851D01*
X202388995Y-55952594D01*
X202453656Y-55912712D01*
X202577712Y-55788656D01*
X202669814Y-55639334D01*
X202724999Y-55472797D01*
X202735500Y-55370009D01*
X202735499Y-54569992D01*
X202730792Y-54523918D01*
X202724999Y-54467203D01*
X202724998Y-54467200D01*
X202707256Y-54413659D01*
X202669814Y-54300666D01*
X202577712Y-54151344D01*
X202453656Y-54027288D01*
X202342270Y-53958585D01*
X202304336Y-53935187D01*
X202304331Y-53935185D01*
X202248408Y-53916654D01*
X202137797Y-53880001D01*
X202137795Y-53880000D01*
X202035010Y-53869500D01*
X200684998Y-53869500D01*
X200684981Y-53869501D01*
X200582203Y-53880000D01*
X200582200Y-53880001D01*
X200415668Y-53935185D01*
X200415663Y-53935187D01*
X200266342Y-54027289D01*
X200142289Y-54151342D01*
X200050187Y-54300663D01*
X200050185Y-54300668D01*
X200045332Y-54315315D01*
X199995001Y-54467203D01*
X199995001Y-54467204D01*
X199995000Y-54467204D01*
X199984500Y-54569983D01*
X199984500Y-55250702D01*
X199964815Y-55317741D01*
X199948181Y-55338383D01*
X197075757Y-58210806D01*
X197014434Y-58244291D01*
X196944742Y-58239307D01*
X196888809Y-58197435D01*
X196869418Y-58159126D01*
X196828814Y-58025273D01*
X196828812Y-58025270D01*
X196828812Y-58025268D01*
X196735913Y-57851467D01*
X196735909Y-57851460D01*
X196610883Y-57699116D01*
X196458539Y-57574090D01*
X196458532Y-57574086D01*
X196284733Y-57481188D01*
X196284727Y-57481186D01*
X196096132Y-57423976D01*
X196096129Y-57423975D01*
X195900000Y-57404659D01*
X195703870Y-57423975D01*
X195515266Y-57481188D01*
X195341467Y-57574086D01*
X195341460Y-57574090D01*
X195189116Y-57699116D01*
X195135733Y-57764165D01*
X195077988Y-57803499D01*
X195039880Y-57809500D01*
X193746669Y-57809500D01*
X193746653Y-57809499D01*
X193739057Y-57809499D01*
X193580943Y-57809499D01*
X193485173Y-57835161D01*
X193428210Y-57850424D01*
X193428209Y-57850425D01*
X193388793Y-57873183D01*
X193388791Y-57873184D01*
X193291290Y-57929475D01*
X193291282Y-57929481D01*
X193202583Y-58018181D01*
X193141260Y-58051666D01*
X193114902Y-58054500D01*
X192324298Y-58054500D01*
X192287432Y-58057401D01*
X192281201Y-58058540D01*
X192281153Y-58058281D01*
X192252924Y-58062300D01*
X190364912Y-58062300D01*
X190297873Y-58042615D01*
X190287597Y-58035245D01*
X190284763Y-58032985D01*
X190284762Y-58032984D01*
X190159248Y-57954118D01*
X190132023Y-57937011D01*
X189961754Y-57877431D01*
X189961749Y-57877430D01*
X189782504Y-57857235D01*
X189782496Y-57857235D01*
X189603250Y-57877430D01*
X189603245Y-57877431D01*
X189432976Y-57937011D01*
X189274342Y-58036689D01*
X189273315Y-58035055D01*
X189217488Y-58057846D01*
X189195137Y-58058108D01*
X189155649Y-58055000D01*
X188587497Y-58055000D01*
X188520458Y-58035315D01*
X188474703Y-57982511D01*
X188464759Y-57913353D01*
X188493784Y-57849797D01*
X188499816Y-57843319D01*
X189946316Y-56396819D01*
X190007639Y-56363334D01*
X190033997Y-56360500D01*
X190577492Y-56360500D01*
X190644531Y-56380185D01*
X190683029Y-56419401D01*
X190727288Y-56491156D01*
X190851344Y-56615212D01*
X191000666Y-56707314D01*
X191167203Y-56762499D01*
X191269991Y-56773000D01*
X192270008Y-56772999D01*
X192270016Y-56772998D01*
X192270019Y-56772998D01*
X192326302Y-56767248D01*
X192372797Y-56762499D01*
X192539334Y-56707314D01*
X192688656Y-56615212D01*
X192812712Y-56491156D01*
X192904814Y-56341834D01*
X192959999Y-56175297D01*
X192959999Y-56175292D01*
X192960380Y-56174144D01*
X193000152Y-56116699D01*
X193064668Y-56089876D01*
X193125538Y-56098587D01*
X193141019Y-56104999D01*
X193155528Y-56111009D01*
X193224634Y-56120106D01*
X193288529Y-56148372D01*
X193296129Y-56155364D01*
X193356839Y-56216074D01*
X193356849Y-56216085D01*
X193361179Y-56220415D01*
X193361180Y-56220416D01*
X193472984Y-56332220D01*
X193535336Y-56368218D01*
X193559795Y-56382339D01*
X193559797Y-56382341D01*
X193579082Y-56393475D01*
X193609915Y-56411277D01*
X193762643Y-56452201D01*
X193762646Y-56452201D01*
X193928353Y-56452201D01*
X193928369Y-56452200D01*
X194951631Y-56452200D01*
X194951647Y-56452201D01*
X194959243Y-56452201D01*
X195117354Y-56452201D01*
X195117357Y-56452201D01*
X195270085Y-56411277D01*
X195320204Y-56382339D01*
X195407016Y-56332220D01*
X195518820Y-56220416D01*
X195518820Y-56220414D01*
X195529028Y-56210207D01*
X195529030Y-56210204D01*
X195583871Y-56155362D01*
X195645192Y-56121879D01*
X195655346Y-56120108D01*
X195724472Y-56111009D01*
X195727058Y-56109938D01*
X195774508Y-56100500D01*
X195826031Y-56100500D01*
X195826047Y-56100501D01*
X195833643Y-56100501D01*
X195991754Y-56100501D01*
X195991757Y-56100501D01*
X196144485Y-56059577D01*
X196213356Y-56019814D01*
X196281416Y-55980520D01*
X196393220Y-55868716D01*
X196393220Y-55868714D01*
X196403424Y-55858511D01*
X196403428Y-55858506D01*
X199841806Y-52420128D01*
X199841811Y-52420124D01*
X199852014Y-52409920D01*
X199852016Y-52409920D01*
X199963820Y-52298116D01*
X200037046Y-52171284D01*
X200042877Y-52161185D01*
X200069811Y-52060665D01*
X200106175Y-52001007D01*
X200169022Y-51970478D01*
X200238397Y-51978773D01*
G37*
%TD.AperFunction*%
%TA.AperFunction,Conductor*%
G36*
X179903459Y-52595862D02*
G01*
X179943989Y-52652776D01*
X179947824Y-52669005D01*
X179949499Y-52675256D01*
X179949499Y-52675257D01*
X179990423Y-52827985D01*
X179991876Y-52830502D01*
X179991882Y-52830523D01*
X179991887Y-52830521D01*
X180069475Y-52964909D01*
X180069481Y-52964917D01*
X180188349Y-53083785D01*
X180188355Y-53083790D01*
X182448939Y-55344374D01*
X182448949Y-55344385D01*
X182453279Y-55348715D01*
X182453280Y-55348716D01*
X182544228Y-55439664D01*
X182577712Y-55500985D01*
X182572728Y-55570677D01*
X182553166Y-55603424D01*
X182564478Y-55689340D01*
X182564478Y-55689342D01*
X182621156Y-55826175D01*
X182711320Y-55943679D01*
X182828824Y-56033843D01*
X182965658Y-56090521D01*
X183075622Y-56104999D01*
X183075637Y-56105000D01*
X183175000Y-56105000D01*
X183175000Y-55729499D01*
X183194685Y-55662460D01*
X183247489Y-55616705D01*
X183298997Y-55605499D01*
X183301001Y-55605499D01*
X183368039Y-55625184D01*
X183413794Y-55677988D01*
X183425000Y-55729499D01*
X183425000Y-56105000D01*
X183524363Y-56105000D01*
X183524377Y-56104999D01*
X183634341Y-56090521D01*
X183634342Y-56090521D01*
X183757666Y-56039439D01*
X183805119Y-56030000D01*
X184000000Y-56030000D01*
X184000000Y-55301069D01*
X184009439Y-55253616D01*
X184036009Y-55189472D01*
X184050500Y-55079401D01*
X184050499Y-54880600D01*
X184036009Y-54770528D01*
X184036008Y-54770525D01*
X184033905Y-54762674D01*
X184037207Y-54761789D01*
X184031392Y-54708075D01*
X184034501Y-54697485D01*
X184033905Y-54697326D01*
X184036008Y-54689475D01*
X184036008Y-54689474D01*
X184036009Y-54689472D01*
X184049392Y-54587814D01*
X184077658Y-54523918D01*
X184135983Y-54485447D01*
X184172331Y-54480000D01*
X184327670Y-54480000D01*
X184394709Y-54499685D01*
X184440464Y-54552489D01*
X184450609Y-54587817D01*
X184463989Y-54689468D01*
X184466094Y-54697322D01*
X184462814Y-54698200D01*
X184468581Y-54752073D01*
X184465517Y-54762522D01*
X184466095Y-54762677D01*
X184463990Y-54770529D01*
X184449500Y-54880598D01*
X184449500Y-55079403D01*
X184463989Y-55189468D01*
X184466094Y-55197322D01*
X184462814Y-55198200D01*
X184468581Y-55252073D01*
X184465517Y-55262522D01*
X184466095Y-55262677D01*
X184463990Y-55270529D01*
X184449500Y-55380598D01*
X184449500Y-55579403D01*
X184463988Y-55689463D01*
X184463990Y-55689470D01*
X184463991Y-55689472D01*
X184483537Y-55736660D01*
X184490561Y-55753616D01*
X184500000Y-55801069D01*
X184500000Y-56030000D01*
X184693575Y-56030000D01*
X184741028Y-56039439D01*
X184865528Y-56091009D01*
X184934634Y-56100106D01*
X184998529Y-56128372D01*
X185006129Y-56135364D01*
X185122839Y-56252074D01*
X185122849Y-56252085D01*
X185127179Y-56256415D01*
X185127180Y-56256416D01*
X185238984Y-56368220D01*
X185313562Y-56411277D01*
X185375915Y-56447277D01*
X185528643Y-56488201D01*
X185528646Y-56488201D01*
X185694353Y-56488201D01*
X185694369Y-56488200D01*
X187192131Y-56488200D01*
X187192147Y-56488201D01*
X187199743Y-56488201D01*
X187357854Y-56488201D01*
X187357857Y-56488201D01*
X187510585Y-56447277D01*
X187572938Y-56411277D01*
X187647516Y-56368220D01*
X187759320Y-56256416D01*
X187759321Y-56256414D01*
X187978362Y-56037372D01*
X188039682Y-56003890D01*
X188109374Y-56008874D01*
X188129399Y-56018667D01*
X188130880Y-56019358D01*
X188297301Y-56074504D01*
X188299106Y-56074891D01*
X188300112Y-56075436D01*
X188303730Y-56076635D01*
X188303516Y-56077280D01*
X188360541Y-56108170D01*
X188394232Y-56169380D01*
X188389482Y-56239088D01*
X188360836Y-56283826D01*
X186614686Y-58029978D01*
X186502881Y-58141782D01*
X186502877Y-58141787D01*
X186485040Y-58172684D01*
X186476822Y-58186919D01*
X186470751Y-58197435D01*
X186423823Y-58278714D01*
X186418209Y-58299665D01*
X186382899Y-58431443D01*
X186382899Y-58431445D01*
X186382899Y-58599546D01*
X186382900Y-58599559D01*
X186382900Y-59118730D01*
X186382899Y-59118748D01*
X186382899Y-59284454D01*
X186382898Y-59284454D01*
X186405770Y-59369812D01*
X186423371Y-59435500D01*
X186423822Y-59437181D01*
X186423824Y-59437187D01*
X186434397Y-59455501D01*
X186434398Y-59455502D01*
X186502875Y-59574109D01*
X186502881Y-59574117D01*
X186621749Y-59692985D01*
X186621755Y-59692990D01*
X186753181Y-59824416D01*
X186786666Y-59885739D01*
X186789500Y-59912097D01*
X186789500Y-60340701D01*
X186792401Y-60377567D01*
X186792402Y-60377573D01*
X186838254Y-60535393D01*
X186838255Y-60535396D01*
X186921917Y-60676862D01*
X186926702Y-60683031D01*
X186924369Y-60684840D01*
X186951210Y-60733995D01*
X186946226Y-60803687D01*
X186925470Y-60836021D01*
X186927097Y-60837283D01*
X186922313Y-60843449D01*
X186838718Y-60984801D01*
X186792899Y-61142513D01*
X186792704Y-61144998D01*
X186792705Y-61145000D01*
X189737295Y-61145000D01*
X189737295Y-61144998D01*
X189737100Y-61142513D01*
X189691281Y-60984801D01*
X189607685Y-60843447D01*
X189602900Y-60837278D01*
X189605366Y-60835364D01*
X189578802Y-60786776D01*
X189583749Y-60717082D01*
X189604856Y-60684232D01*
X189603301Y-60683026D01*
X189608077Y-60676868D01*
X189608081Y-60676865D01*
X189691744Y-60535398D01*
X189737598Y-60377569D01*
X189740500Y-60340694D01*
X189740500Y-59909306D01*
X189737598Y-59872431D01*
X189736252Y-59867799D01*
X189691745Y-59714606D01*
X189691744Y-59714603D01*
X189691744Y-59714602D01*
X189655923Y-59654033D01*
X189638741Y-59586310D01*
X189660901Y-59520048D01*
X189715367Y-59476284D01*
X189776545Y-59467694D01*
X189780719Y-59468164D01*
X189782499Y-59468365D01*
X189782500Y-59468365D01*
X189782504Y-59468365D01*
X189961749Y-59448169D01*
X189961752Y-59448168D01*
X189961755Y-59448168D01*
X190132022Y-59388589D01*
X190284762Y-59292616D01*
X190284767Y-59292610D01*
X190287597Y-59290355D01*
X190289775Y-59289465D01*
X190290658Y-59288911D01*
X190290755Y-59289065D01*
X190352283Y-59263945D01*
X190364912Y-59263300D01*
X191716287Y-59263300D01*
X191783326Y-59282985D01*
X191823019Y-59324179D01*
X191871917Y-59406862D01*
X191876702Y-59413031D01*
X191874256Y-59414927D01*
X191900857Y-59463642D01*
X191895873Y-59533334D01*
X191875069Y-59565703D01*
X191876702Y-59566969D01*
X191871917Y-59573137D01*
X191788255Y-59714603D01*
X191788254Y-59714606D01*
X191742402Y-59872426D01*
X191742401Y-59872432D01*
X191739500Y-59909298D01*
X191739500Y-60340701D01*
X191742401Y-60377567D01*
X191742402Y-60377573D01*
X191788254Y-60535393D01*
X191788255Y-60535396D01*
X191871917Y-60676862D01*
X191876702Y-60683031D01*
X191874256Y-60684927D01*
X191900857Y-60733642D01*
X191895873Y-60803334D01*
X191875069Y-60835703D01*
X191876702Y-60836969D01*
X191871917Y-60843137D01*
X191788255Y-60984603D01*
X191788254Y-60984606D01*
X191742402Y-61142426D01*
X191742401Y-61142432D01*
X191739500Y-61179298D01*
X191739500Y-61610701D01*
X191742401Y-61647567D01*
X191742402Y-61647573D01*
X191790432Y-61812890D01*
X191788136Y-61813557D01*
X191795231Y-61871107D01*
X191764932Y-61934065D01*
X191705405Y-61970649D01*
X191658990Y-61974212D01*
X191608604Y-61968535D01*
X191608596Y-61968535D01*
X191429350Y-61988730D01*
X191429345Y-61988731D01*
X191259076Y-62048311D01*
X191106337Y-62144284D01*
X190978784Y-62271837D01*
X190882811Y-62424576D01*
X190823231Y-62594845D01*
X190823230Y-62594850D01*
X190803035Y-62774096D01*
X190803035Y-62774103D01*
X190823230Y-62953349D01*
X190823233Y-62953362D01*
X190875505Y-63102745D01*
X190879067Y-63172524D01*
X190844339Y-63233151D01*
X190782345Y-63265379D01*
X190758464Y-63267700D01*
X189795412Y-63267700D01*
X189728373Y-63248015D01*
X189682618Y-63195211D01*
X189672674Y-63126053D01*
X189688679Y-63080581D01*
X189689199Y-63079699D01*
X189691744Y-63075398D01*
X189737598Y-62917569D01*
X189740500Y-62880694D01*
X189740500Y-62449306D01*
X189737598Y-62412431D01*
X189736946Y-62410187D01*
X189691745Y-62254604D01*
X189637478Y-62162842D01*
X189608081Y-62113135D01*
X189608078Y-62113132D01*
X189603298Y-62106969D01*
X189605635Y-62105155D01*
X189578798Y-62056050D01*
X189583756Y-61986356D01*
X189604554Y-61953998D01*
X189602903Y-61952717D01*
X189607686Y-61946550D01*
X189691281Y-61805198D01*
X189737100Y-61647486D01*
X189737295Y-61645001D01*
X189737295Y-61645000D01*
X187088073Y-61645000D01*
X187047118Y-61638042D01*
X186963354Y-61608731D01*
X186963349Y-61608730D01*
X186784104Y-61588535D01*
X186784096Y-61588535D01*
X186604850Y-61608730D01*
X186604845Y-61608731D01*
X186434576Y-61668311D01*
X186281837Y-61764284D01*
X186154284Y-61891837D01*
X186058310Y-62044578D01*
X185998730Y-62214849D01*
X185996529Y-62234387D01*
X185969460Y-62298800D01*
X185911864Y-62338354D01*
X185873314Y-62344500D01*
X185850001Y-62344500D01*
X185849980Y-62344501D01*
X185747203Y-62355000D01*
X185747200Y-62355001D01*
X185580668Y-62410185D01*
X185580663Y-62410187D01*
X185431342Y-62502289D01*
X185307288Y-62626343D01*
X185307283Y-62626349D01*
X185305241Y-62629661D01*
X185303247Y-62631453D01*
X185302807Y-62632011D01*
X185302711Y-62631935D01*
X185253291Y-62676383D01*
X185184328Y-62687602D01*
X185120247Y-62659755D01*
X185094168Y-62629656D01*
X185092319Y-62626659D01*
X185092316Y-62626655D01*
X184968345Y-62502684D01*
X184819124Y-62410643D01*
X184819119Y-62410641D01*
X184652697Y-62355494D01*
X184652690Y-62355493D01*
X184549986Y-62345000D01*
X184500000Y-62345000D01*
X184500000Y-64794999D01*
X184549972Y-64794999D01*
X184549986Y-64794998D01*
X184652697Y-64784505D01*
X184819119Y-64729358D01*
X184819124Y-64729356D01*
X184968345Y-64637315D01*
X185092318Y-64513342D01*
X185094165Y-64510348D01*
X185095969Y-64508724D01*
X185096798Y-64507677D01*
X185096976Y-64507818D01*
X185146110Y-64463621D01*
X185215073Y-64452396D01*
X185279156Y-64480236D01*
X185305243Y-64510341D01*
X185307288Y-64513656D01*
X185431344Y-64637712D01*
X185440291Y-64643230D01*
X185487018Y-64695175D01*
X185499200Y-64748772D01*
X185499200Y-66306330D01*
X185499199Y-66306348D01*
X185499199Y-66313943D01*
X185499199Y-66472057D01*
X185514510Y-66529197D01*
X185527669Y-66578306D01*
X185526006Y-66648156D01*
X185486844Y-66706019D01*
X185422615Y-66733523D01*
X185407894Y-66734400D01*
X183514500Y-66734400D01*
X183447461Y-66714715D01*
X183401706Y-66661911D01*
X183390500Y-66610400D01*
X183390499Y-66132829D01*
X183390498Y-66132823D01*
X183390454Y-66132417D01*
X183384091Y-66073217D01*
X183382835Y-66069850D01*
X183333797Y-65938371D01*
X183333793Y-65938364D01*
X183247547Y-65823155D01*
X183247544Y-65823152D01*
X183132335Y-65736906D01*
X183132328Y-65736902D01*
X182997482Y-65686608D01*
X182997483Y-65686608D01*
X182937883Y-65680201D01*
X182937881Y-65680200D01*
X182937873Y-65680200D01*
X182937864Y-65680200D01*
X182092129Y-65680200D01*
X182092123Y-65680201D01*
X182032516Y-65686608D01*
X181897671Y-65736902D01*
X181897668Y-65736904D01*
X181777046Y-65827202D01*
X181711582Y-65851619D01*
X181643309Y-65836767D01*
X181593903Y-65787362D01*
X181579051Y-65719089D01*
X181579332Y-65715781D01*
X181579743Y-65711608D01*
X181595099Y-65555700D01*
X181576747Y-65369369D01*
X181576746Y-65369366D01*
X181576647Y-65368358D01*
X181589666Y-65299712D01*
X181637731Y-65249002D01*
X181705581Y-65232327D01*
X181771676Y-65254983D01*
X181775284Y-65258026D01*
X181775355Y-65257932D01*
X181897664Y-65349493D01*
X181897671Y-65349497D01*
X182032517Y-65399791D01*
X182032516Y-65399791D01*
X182039444Y-65400535D01*
X182092127Y-65406200D01*
X182937872Y-65406199D01*
X182997483Y-65399791D01*
X183132331Y-65349496D01*
X183247546Y-65263246D01*
X183333796Y-65148031D01*
X183384091Y-65013183D01*
X183390500Y-64953573D01*
X183390499Y-64772423D01*
X183410183Y-64705386D01*
X183462987Y-64659631D01*
X183532145Y-64649687D01*
X183579596Y-64666886D01*
X183680875Y-64729356D01*
X183680880Y-64729358D01*
X183847302Y-64784505D01*
X183847309Y-64784506D01*
X183950019Y-64794999D01*
X183999999Y-64794998D01*
X184000000Y-64794998D01*
X184000000Y-63820000D01*
X183400829Y-63820000D01*
X183333790Y-63800315D01*
X183301564Y-63770313D01*
X183247546Y-63698154D01*
X183210876Y-63670703D01*
X183132335Y-63611906D01*
X183132328Y-63611902D01*
X182997482Y-63561608D01*
X182997483Y-63561608D01*
X182937883Y-63555201D01*
X182937881Y-63555200D01*
X182937873Y-63555200D01*
X182937865Y-63555200D01*
X182464499Y-63555200D01*
X182397460Y-63535515D01*
X182351705Y-63482711D01*
X182340499Y-63431200D01*
X182340499Y-63320000D01*
X183250000Y-63320000D01*
X184000000Y-63320000D01*
X184000000Y-62345000D01*
X183999999Y-62344999D01*
X183950029Y-62345000D01*
X183950011Y-62345001D01*
X183847302Y-62355494D01*
X183680880Y-62410641D01*
X183680875Y-62410643D01*
X183531654Y-62502684D01*
X183407684Y-62626654D01*
X183315643Y-62775875D01*
X183315641Y-62775880D01*
X183260494Y-62942302D01*
X183260493Y-62942309D01*
X183250000Y-63045013D01*
X183250000Y-63320000D01*
X182340499Y-63320000D01*
X182340499Y-62765829D01*
X182340498Y-62765823D01*
X182340497Y-62765816D01*
X182334091Y-62706217D01*
X182315989Y-62657684D01*
X182283797Y-62571371D01*
X182283793Y-62571364D01*
X182197547Y-62456155D01*
X182197544Y-62456152D01*
X182082334Y-62369905D01*
X182082332Y-62369904D01*
X182070687Y-62365561D01*
X182014754Y-62323689D01*
X181991083Y-62265565D01*
X181990501Y-62261146D01*
X181990501Y-62261143D01*
X181949577Y-62108415D01*
X181924725Y-62065371D01*
X181915851Y-62050000D01*
X181915851Y-62049999D01*
X181870524Y-61971490D01*
X181870521Y-61971486D01*
X181870520Y-61971484D01*
X181758716Y-61859680D01*
X181758715Y-61859679D01*
X181754385Y-61855349D01*
X181754374Y-61855339D01*
X180296815Y-60397780D01*
X180263330Y-60336457D01*
X180268314Y-60266765D01*
X180296811Y-60222423D01*
X180696421Y-59822812D01*
X180757742Y-59789329D01*
X180796251Y-59787092D01*
X180880000Y-59795341D01*
X181076132Y-59776024D01*
X181264727Y-59718814D01*
X181270226Y-59715875D01*
X181438532Y-59625913D01*
X181438538Y-59625910D01*
X181590883Y-59500883D01*
X181715910Y-59348538D01*
X181808814Y-59174727D01*
X181866024Y-58986132D01*
X181872306Y-58922346D01*
X181898466Y-58857559D01*
X181955501Y-58817200D01*
X181995709Y-58810500D01*
X182031415Y-58810500D01*
X182098454Y-58830185D01*
X182144209Y-58882989D01*
X182149118Y-58895489D01*
X182185186Y-59004334D01*
X182277288Y-59153656D01*
X182401344Y-59277712D01*
X182550666Y-59369814D01*
X182717203Y-59424999D01*
X182819991Y-59435500D01*
X183420008Y-59435499D01*
X183420016Y-59435498D01*
X183420019Y-59435498D01*
X183476302Y-59429748D01*
X183522797Y-59424999D01*
X183689334Y-59369814D01*
X183838656Y-59277712D01*
X183962712Y-59153656D01*
X183964752Y-59150347D01*
X183966745Y-59148555D01*
X183967193Y-59147989D01*
X183967289Y-59148065D01*
X184016694Y-59103623D01*
X184085656Y-59092395D01*
X184149740Y-59120234D01*
X184175829Y-59150339D01*
X184177681Y-59153341D01*
X184177683Y-59153344D01*
X184301654Y-59277315D01*
X184450875Y-59369356D01*
X184450880Y-59369358D01*
X184617302Y-59424505D01*
X184617309Y-59424506D01*
X184720019Y-59434999D01*
X184769999Y-59434998D01*
X184770000Y-59434998D01*
X184770000Y-58460000D01*
X185270000Y-58460000D01*
X185270000Y-59434999D01*
X185319972Y-59434999D01*
X185319986Y-59434998D01*
X185422697Y-59424505D01*
X185589119Y-59369358D01*
X185589124Y-59369356D01*
X185738345Y-59277315D01*
X185862315Y-59153345D01*
X185954356Y-59004124D01*
X185954358Y-59004119D01*
X186009505Y-58837697D01*
X186009506Y-58837690D01*
X186019999Y-58734986D01*
X186020000Y-58734973D01*
X186020000Y-58460000D01*
X185270000Y-58460000D01*
X184770000Y-58460000D01*
X184770000Y-56985000D01*
X185270000Y-56985000D01*
X185270000Y-57960000D01*
X186019999Y-57960000D01*
X186019999Y-57685028D01*
X186019998Y-57685013D01*
X186009505Y-57582302D01*
X185954358Y-57415880D01*
X185954356Y-57415875D01*
X185862315Y-57266654D01*
X185738345Y-57142684D01*
X185589124Y-57050643D01*
X185589119Y-57050641D01*
X185422697Y-56995494D01*
X185422690Y-56995493D01*
X185319986Y-56985000D01*
X185270000Y-56985000D01*
X184770000Y-56985000D01*
X184769999Y-56984999D01*
X184720029Y-56985000D01*
X184720011Y-56985001D01*
X184617302Y-56995494D01*
X184450880Y-57050641D01*
X184450875Y-57050643D01*
X184301654Y-57142684D01*
X184177683Y-57266655D01*
X184177679Y-57266660D01*
X184175826Y-57269665D01*
X184174018Y-57271290D01*
X184173202Y-57272323D01*
X184173025Y-57272183D01*
X184123874Y-57316385D01*
X184054911Y-57327601D01*
X183990831Y-57299752D01*
X183964753Y-57269653D01*
X183964737Y-57269628D01*
X183962712Y-57266344D01*
X183838656Y-57142288D01*
X183689334Y-57050186D01*
X183522797Y-56995001D01*
X183522795Y-56995000D01*
X183420010Y-56984500D01*
X182819998Y-56984500D01*
X182819980Y-56984501D01*
X182717203Y-56995000D01*
X182717200Y-56995001D01*
X182550668Y-57050185D01*
X182550663Y-57050187D01*
X182401342Y-57142289D01*
X182277289Y-57266342D01*
X182185187Y-57415663D01*
X182185185Y-57415668D01*
X182149121Y-57524504D01*
X182109348Y-57581949D01*
X182044833Y-57608772D01*
X182031415Y-57609500D01*
X181546669Y-57609500D01*
X181546653Y-57609499D01*
X181539057Y-57609499D01*
X181380943Y-57609499D01*
X181273587Y-57638265D01*
X181228210Y-57650424D01*
X181228209Y-57650425D01*
X181178096Y-57679359D01*
X181178095Y-57679360D01*
X181154832Y-57692790D01*
X181091282Y-57729480D01*
X181063575Y-57757187D01*
X181002250Y-57790670D01*
X180963743Y-57792906D01*
X180880001Y-57784659D01*
X180880000Y-57784659D01*
X180683870Y-57803975D01*
X180495266Y-57861188D01*
X180321467Y-57954086D01*
X180321460Y-57954090D01*
X180169116Y-58079116D01*
X180044090Y-58231460D01*
X180044086Y-58231467D01*
X179951188Y-58405266D01*
X179893975Y-58593870D01*
X179874659Y-58790000D01*
X179874659Y-58790001D01*
X179882906Y-58873746D01*
X179869886Y-58942391D01*
X179847184Y-58973579D01*
X179671680Y-59149083D01*
X179610357Y-59182568D01*
X179540665Y-59177584D01*
X179484732Y-59135712D01*
X179460315Y-59070248D01*
X179459999Y-59061402D01*
X179459999Y-58715028D01*
X179459998Y-58715013D01*
X179449505Y-58612302D01*
X179394358Y-58445880D01*
X179394356Y-58445875D01*
X179302315Y-58296654D01*
X179178345Y-58172684D01*
X179029124Y-58080643D01*
X179029119Y-58080641D01*
X178962017Y-58058406D01*
X178904572Y-58018633D01*
X178877749Y-57954118D01*
X178890064Y-57885342D01*
X178935925Y-57835161D01*
X179078343Y-57747317D01*
X179202315Y-57623345D01*
X179294356Y-57474124D01*
X179294358Y-57474119D01*
X179349505Y-57307697D01*
X179349506Y-57307690D01*
X179359999Y-57204986D01*
X179360000Y-57204973D01*
X179360000Y-56930000D01*
X178234000Y-56930000D01*
X178166961Y-56910315D01*
X178121206Y-56857511D01*
X178110000Y-56806000D01*
X178110000Y-55455000D01*
X178610000Y-55455000D01*
X178610000Y-56430000D01*
X179359999Y-56430000D01*
X179359999Y-56155028D01*
X179359998Y-56155013D01*
X179349505Y-56052302D01*
X179294358Y-55885880D01*
X179294356Y-55885875D01*
X179202315Y-55736654D01*
X179078345Y-55612684D01*
X178929124Y-55520643D01*
X178929119Y-55520641D01*
X178762697Y-55465494D01*
X178762690Y-55465493D01*
X178659986Y-55455000D01*
X178610000Y-55455000D01*
X178110000Y-55455000D01*
X178109999Y-55454999D01*
X178060029Y-55455000D01*
X178060011Y-55455001D01*
X177957302Y-55465494D01*
X177790880Y-55520641D01*
X177790875Y-55520643D01*
X177641654Y-55612684D01*
X177517683Y-55736655D01*
X177517679Y-55736660D01*
X177515826Y-55739665D01*
X177514018Y-55741290D01*
X177513202Y-55742323D01*
X177513025Y-55742183D01*
X177463874Y-55786385D01*
X177394911Y-55797601D01*
X177330831Y-55769752D01*
X177304753Y-55739653D01*
X177304737Y-55739628D01*
X177302712Y-55736344D01*
X177178656Y-55612288D01*
X177178655Y-55612287D01*
X177119402Y-55575739D01*
X177072678Y-55523791D01*
X177060500Y-55470201D01*
X177060500Y-54617230D01*
X177080185Y-54550191D01*
X177096819Y-54529549D01*
X177146368Y-54480000D01*
X177212712Y-54413656D01*
X177214752Y-54410347D01*
X177216745Y-54408555D01*
X177217193Y-54407989D01*
X177217289Y-54408065D01*
X177266694Y-54363623D01*
X177335656Y-54352395D01*
X177399740Y-54380234D01*
X177425829Y-54410339D01*
X177427681Y-54413341D01*
X177427683Y-54413344D01*
X177551654Y-54537315D01*
X177700875Y-54629356D01*
X177700880Y-54629358D01*
X177867302Y-54684505D01*
X177867309Y-54684506D01*
X177970019Y-54694999D01*
X178019999Y-54694998D01*
X178020000Y-54694998D01*
X178020000Y-53720000D01*
X178520000Y-53720000D01*
X178520000Y-54694999D01*
X178569972Y-54694999D01*
X178569986Y-54694998D01*
X178672697Y-54684505D01*
X178839119Y-54629358D01*
X178839124Y-54629356D01*
X178988345Y-54537315D01*
X179112315Y-54413345D01*
X179204356Y-54264124D01*
X179204358Y-54264119D01*
X179259505Y-54097697D01*
X179259506Y-54097690D01*
X179269999Y-53994986D01*
X179270000Y-53994973D01*
X179270000Y-53720000D01*
X178520000Y-53720000D01*
X178020000Y-53720000D01*
X178020000Y-53344000D01*
X178039685Y-53276961D01*
X178092489Y-53231206D01*
X178144000Y-53220000D01*
X179269999Y-53220000D01*
X179269999Y-53035396D01*
X179289684Y-52968357D01*
X179342488Y-52922602D01*
X179361897Y-52915624D01*
X179421785Y-52899577D01*
X179473881Y-52869499D01*
X179558716Y-52820520D01*
X179670520Y-52708716D01*
X179680520Y-52698716D01*
X179719421Y-52631335D01*
X179769987Y-52583119D01*
X179838594Y-52569895D01*
X179903459Y-52595862D01*
G37*
%TD.AperFunction*%
%TA.AperFunction,Conductor*%
G36*
X193500000Y-51230633D02*
G01*
X193713483Y-51173433D01*
X193713492Y-51173429D01*
X193927578Y-51073600D01*
X194121082Y-50938105D01*
X194288105Y-50771082D01*
X194418119Y-50585405D01*
X194472696Y-50541781D01*
X194542195Y-50534588D01*
X194604549Y-50566110D01*
X194621269Y-50585405D01*
X194751505Y-50771401D01*
X194918599Y-50938495D01*
X194997054Y-50993430D01*
X195112165Y-51074032D01*
X195112167Y-51074033D01*
X195112170Y-51074035D01*
X195117894Y-51076704D01*
X195130768Y-51082708D01*
X195183207Y-51128881D01*
X195198137Y-51162995D01*
X195230422Y-51283484D01*
X195230985Y-51284458D01*
X195230981Y-51284459D01*
X195230996Y-51284477D01*
X195309477Y-51420412D01*
X195314426Y-51426861D01*
X195312589Y-51428270D01*
X195340366Y-51479140D01*
X195343200Y-51505498D01*
X195343200Y-53251000D01*
X195323515Y-53318039D01*
X195270711Y-53363794D01*
X195219200Y-53375000D01*
X195165622Y-53375000D01*
X195055658Y-53389478D01*
X195055657Y-53389478D01*
X194932334Y-53440561D01*
X194884881Y-53450000D01*
X194690000Y-53450000D01*
X194690000Y-54178929D01*
X194680561Y-54226381D01*
X194653992Y-54290524D01*
X194653990Y-54290529D01*
X194639500Y-54400598D01*
X194639500Y-54599403D01*
X194653989Y-54709468D01*
X194656094Y-54717322D01*
X194652814Y-54718200D01*
X194658581Y-54772073D01*
X194655517Y-54782522D01*
X194656095Y-54782677D01*
X194653990Y-54790529D01*
X194640608Y-54892185D01*
X194612342Y-54956082D01*
X194554017Y-54994553D01*
X194517669Y-55000000D01*
X194362330Y-55000000D01*
X194295291Y-54980315D01*
X194249536Y-54927511D01*
X194239391Y-54892184D01*
X194226009Y-54790529D01*
X194226009Y-54790528D01*
X194226008Y-54790525D01*
X194223905Y-54782674D01*
X194227207Y-54781789D01*
X194221392Y-54728075D01*
X194224501Y-54717485D01*
X194223905Y-54717326D01*
X194226008Y-54709475D01*
X194226008Y-54709474D01*
X194226009Y-54709472D01*
X194240500Y-54599401D01*
X194240499Y-54400600D01*
X194226009Y-54290528D01*
X194226008Y-54290525D01*
X194223905Y-54282674D01*
X194227207Y-54281789D01*
X194221392Y-54228075D01*
X194224501Y-54217485D01*
X194223905Y-54217326D01*
X194226008Y-54209475D01*
X194226008Y-54209474D01*
X194226009Y-54209472D01*
X194240500Y-54099401D01*
X194240499Y-53900600D01*
X194240499Y-53900596D01*
X194226011Y-53790536D01*
X194226009Y-53790531D01*
X194226009Y-53790528D01*
X194212147Y-53757062D01*
X194199439Y-53726381D01*
X194190000Y-53678929D01*
X194190000Y-53450000D01*
X194139128Y-53450000D01*
X194072089Y-53430315D01*
X194026334Y-53377511D01*
X194015908Y-53312118D01*
X194022365Y-53254805D01*
X194022365Y-53254796D01*
X194002169Y-53075550D01*
X194002168Y-53075545D01*
X193964661Y-52968357D01*
X193942589Y-52905278D01*
X193941587Y-52903684D01*
X193895602Y-52830499D01*
X193846616Y-52752538D01*
X193719062Y-52624984D01*
X193700244Y-52613160D01*
X193566323Y-52529011D01*
X193396054Y-52469431D01*
X193396049Y-52469430D01*
X193216804Y-52449235D01*
X193216796Y-52449235D01*
X193037550Y-52469430D01*
X193037545Y-52469431D01*
X192867276Y-52529011D01*
X192714537Y-52624984D01*
X192586984Y-52752537D01*
X192586982Y-52752540D01*
X192507774Y-52878597D01*
X192455439Y-52924888D01*
X192386386Y-52935535D01*
X192376831Y-52933878D01*
X192372703Y-52932994D01*
X192269986Y-52922500D01*
X192020000Y-52922500D01*
X192020000Y-54036000D01*
X192000315Y-54103039D01*
X191947511Y-54148794D01*
X191896000Y-54160000D01*
X191148112Y-54160000D01*
X191081073Y-54140315D01*
X191070797Y-54132945D01*
X191067963Y-54130685D01*
X191067962Y-54130684D01*
X190985286Y-54078735D01*
X190915223Y-54034711D01*
X190744954Y-53975131D01*
X190744949Y-53975130D01*
X190565704Y-53954935D01*
X190565696Y-53954935D01*
X190386450Y-53975130D01*
X190386445Y-53975131D01*
X190216176Y-54034711D01*
X190063437Y-54130684D01*
X189935882Y-54258239D01*
X189917967Y-54286752D01*
X189865632Y-54333043D01*
X189796579Y-54343690D01*
X189732731Y-54315315D01*
X189694359Y-54256925D01*
X189689616Y-54233380D01*
X189689505Y-54232303D01*
X189634358Y-54065880D01*
X189634356Y-54065875D01*
X189542315Y-53916654D01*
X189476528Y-53850867D01*
X189443043Y-53789544D01*
X189448027Y-53719852D01*
X189470425Y-53685000D01*
X190570000Y-53685000D01*
X191520000Y-53685000D01*
X191520000Y-52922500D01*
X191270029Y-52922500D01*
X191270012Y-52922501D01*
X191167302Y-52932994D01*
X191000880Y-52988141D01*
X191000875Y-52988143D01*
X190851654Y-53080184D01*
X190727684Y-53204154D01*
X190635643Y-53353375D01*
X190635641Y-53353380D01*
X190580494Y-53519802D01*
X190580493Y-53519809D01*
X190570000Y-53622513D01*
X190570000Y-53685000D01*
X189470425Y-53685000D01*
X189476526Y-53675507D01*
X192208862Y-50943171D01*
X192270183Y-50909688D01*
X192339875Y-50914672D01*
X192376245Y-50935863D01*
X192378918Y-50938106D01*
X192572421Y-51073600D01*
X192786507Y-51173429D01*
X192786516Y-51173433D01*
X193000000Y-51230634D01*
X193000000Y-50333012D01*
X193057007Y-50365925D01*
X193184174Y-50400000D01*
X193315826Y-50400000D01*
X193442993Y-50365925D01*
X193500000Y-50333012D01*
X193500000Y-51230633D01*
G37*
%TD.AperFunction*%
%TA.AperFunction,Conductor*%
G36*
X193443039Y-49250185D02*
G01*
X193488794Y-49302989D01*
X193500000Y-49354500D01*
X193500000Y-49466988D01*
X193442993Y-49434075D01*
X193315826Y-49400000D01*
X193184174Y-49400000D01*
X193057007Y-49434075D01*
X193000000Y-49466988D01*
X193000000Y-49421297D01*
X193019685Y-49354258D01*
X193036319Y-49333616D01*
X193103116Y-49266819D01*
X193164439Y-49233334D01*
X193190797Y-49230500D01*
X193376000Y-49230500D01*
X193443039Y-49250185D01*
G37*
%TD.AperFunction*%
%TA.AperFunction,Conductor*%
G36*
X193500000Y-47866203D02*
G01*
X193480315Y-47933242D01*
X193463681Y-47953884D01*
X193424384Y-47993181D01*
X193363061Y-48026666D01*
X193336703Y-48029500D01*
X193124000Y-48029500D01*
X193056961Y-48009815D01*
X193011206Y-47957011D01*
X193000000Y-47905500D01*
X193000000Y-47793012D01*
X193057007Y-47825925D01*
X193184174Y-47860000D01*
X193315826Y-47860000D01*
X193442993Y-47825925D01*
X193500000Y-47793012D01*
X193500000Y-47866203D01*
G37*
%TD.AperFunction*%
%TD*%
M02*
