%TF.GenerationSoftware,KiCad,Pcbnew,8.0.0*%
%TF.CreationDate,2024-04-21T04:34:17+02:00*%
%TF.ProjectId,MicroMouse Power,4d696372-6f4d-46f7-9573-6520506f7765,rev?*%
%TF.SameCoordinates,Original*%
%TF.FileFunction,Paste,Top*%
%TF.FilePolarity,Positive*%
%FSLAX46Y46*%
G04 Gerber Fmt 4.6, Leading zero omitted, Abs format (unit mm)*
G04 Created by KiCad (PCBNEW 8.0.0) date 2024-04-21 04:34:17*
%MOMM*%
%LPD*%
G01*
G04 APERTURE LIST*
G04 Aperture macros list*
%AMRoundRect*
0 Rectangle with rounded corners*
0 $1 Rounding radius*
0 $2 $3 $4 $5 $6 $7 $8 $9 X,Y pos of 4 corners*
0 Add a 4 corners polygon primitive as box body*
4,1,4,$2,$3,$4,$5,$6,$7,$8,$9,$2,$3,0*
0 Add four circle primitives for the rounded corners*
1,1,$1+$1,$2,$3*
1,1,$1+$1,$4,$5*
1,1,$1+$1,$6,$7*
1,1,$1+$1,$8,$9*
0 Add four rect primitives between the rounded corners*
20,1,$1+$1,$2,$3,$4,$5,0*
20,1,$1+$1,$4,$5,$6,$7,0*
20,1,$1+$1,$6,$7,$8,$9,0*
20,1,$1+$1,$8,$9,$2,$3,0*%
G04 Aperture macros list end*
%ADD10RoundRect,0.250000X-0.250000X-0.475000X0.250000X-0.475000X0.250000X0.475000X-0.250000X0.475000X0*%
%ADD11RoundRect,0.250000X-0.262500X-0.450000X0.262500X-0.450000X0.262500X0.450000X-0.262500X0.450000X0*%
%ADD12R,0.750000X0.650000*%
%ADD13RoundRect,0.062500X0.187500X0.062500X-0.187500X0.062500X-0.187500X-0.062500X0.187500X-0.062500X0*%
%ADD14RoundRect,0.243750X-0.243750X-0.456250X0.243750X-0.456250X0.243750X0.456250X-0.243750X0.456250X0*%
%ADD15RoundRect,0.250000X0.450000X-0.262500X0.450000X0.262500X-0.450000X0.262500X-0.450000X-0.262500X0*%
%ADD16RoundRect,0.250000X0.262500X0.450000X-0.262500X0.450000X-0.262500X-0.450000X0.262500X-0.450000X0*%
%ADD17RoundRect,0.062500X-0.187500X-0.062500X0.187500X-0.062500X0.187500X0.062500X-0.187500X0.062500X0*%
%ADD18RoundRect,0.250000X0.250000X0.475000X-0.250000X0.475000X-0.250000X-0.475000X0.250000X-0.475000X0*%
%ADD19R,0.900000X1.400000*%
%ADD20R,0.750000X0.850000*%
%ADD21RoundRect,0.230000X-0.230000X-0.375000X0.230000X-0.375000X0.230000X0.375000X-0.230000X0.375000X0*%
%ADD22RoundRect,0.150000X-0.825000X-0.150000X0.825000X-0.150000X0.825000X0.150000X-0.825000X0.150000X0*%
%ADD23RoundRect,0.218750X-0.218750X-0.256250X0.218750X-0.256250X0.218750X0.256250X-0.218750X0.256250X0*%
G04 APERTURE END LIST*
D10*
%TO.C,C5*%
X176370000Y-53470000D03*
X178270000Y-53470000D03*
%TD*%
%TO.C,C4*%
X176560000Y-59240000D03*
X178460000Y-59240000D03*
%TD*%
D11*
%TO.C,R4*%
X197645000Y-63240000D03*
X199470000Y-63240000D03*
%TD*%
D12*
%TO.C,U5*%
X194440000Y-55150000D03*
X194440000Y-54350000D03*
D13*
X195390000Y-55500000D03*
X195390000Y-55000000D03*
X195390000Y-54500000D03*
X195390000Y-54000000D03*
X193490000Y-54000000D03*
X193490000Y-54500000D03*
X193490000Y-55000000D03*
X193490000Y-55500000D03*
%TD*%
D14*
%TO.C,D1*%
X199390000Y-65790000D03*
X201265000Y-65790000D03*
%TD*%
D15*
%TO.C,R3*%
X191770000Y-55760000D03*
X191770000Y-53935000D03*
%TD*%
D10*
%TO.C,C2*%
X186800000Y-54860000D03*
X188700000Y-54860000D03*
%TD*%
%TO.C,C3*%
X176460000Y-56680000D03*
X178360000Y-56680000D03*
%TD*%
%TO.C,C9*%
X200680000Y-60510000D03*
X202580000Y-60510000D03*
%TD*%
D16*
%TO.C,R1*%
X188760000Y-65730000D03*
X186935000Y-65730000D03*
%TD*%
D12*
%TO.C,U4*%
X184250000Y-54330000D03*
X184250000Y-55130000D03*
D17*
X183300000Y-53980000D03*
X183300000Y-54480000D03*
X183300000Y-54980000D03*
X183300000Y-55480000D03*
X185200000Y-55480000D03*
X185200000Y-54980000D03*
X185200000Y-54480000D03*
X185200000Y-53980000D03*
%TD*%
D16*
%TO.C,R2*%
X197500000Y-65210000D03*
X195675000Y-65210000D03*
%TD*%
D18*
%TO.C,C1*%
X186150000Y-63570000D03*
X184250000Y-63570000D03*
%TD*%
D11*
%TO.C,R5*%
X201165000Y-63700000D03*
X202990000Y-63700000D03*
%TD*%
D19*
%TO.C,SW1*%
X176890000Y-63513700D03*
X179890000Y-63513700D03*
X181390000Y-63513700D03*
D20*
X175765000Y-64480700D03*
X175765000Y-66630700D03*
X182515000Y-64480700D03*
X182515000Y-66605700D03*
%TD*%
D10*
%TO.C,C6*%
X183120000Y-58210000D03*
X185020000Y-58210000D03*
%TD*%
D21*
%TO.C,U1*%
X190170000Y-60010000D03*
X190170000Y-61510000D03*
X191310000Y-60010000D03*
X191310000Y-61510000D03*
D22*
X188265000Y-58855000D03*
X188265000Y-60125000D03*
X188265000Y-61395000D03*
X188265000Y-62665000D03*
X193215000Y-62665000D03*
X193215000Y-61395000D03*
X193215000Y-60125000D03*
X193215000Y-58855000D03*
%TD*%
D23*
%TO.C,D2*%
X191292500Y-65120000D03*
X192867500Y-65120000D03*
%TD*%
M02*
